<svg width="245" height="400" viewBox="0 0 245 400" fill="none" xmlns="http://www.w3.org/2000/svg">
<rect width="245" height="400" rx="25" fill="url(#paint0_linear_288_57)" fill-opacity="0.85098"/>
<g clip-path="url(#clip0_288_57)">
<path d="M150.21 59.19L120.341 83.2534C119.124 84.2339 118.463 85.7399 118.429 87.2793C118.426 87.4857 118.379 87.6882 118.292 87.8714C118.205 88.0545 118.082 88.2132 117.93 88.3352C117.779 88.4571 117.604 88.5391 117.419 88.5746C117.234 88.6102 117.044 88.5984 116.864 88.5402C115.519 88.1119 114.014 88.3502 112.797 89.3307L59.211 132.501C56.5846 134.617 56.0155 138.673 57.9398 141.561L90.545 190.491C92.4693 193.379 96.1583 194.005 98.7846 191.889L152.371 148.719C153.588 147.738 154.248 146.232 154.282 144.693C154.286 144.486 154.333 144.284 154.419 144.101C154.506 143.918 154.629 143.759 154.781 143.637C154.932 143.515 155.107 143.433 155.292 143.397C155.477 143.362 155.667 143.374 155.847 143.432C157.192 143.86 158.697 143.622 159.914 142.641L189.783 118.578C192.41 116.462 192.979 112.406 191.055 109.518L158.449 60.5878C156.525 57.6999 152.836 57.0741 150.21 59.19ZM153.159 134.255C153.319 134.495 153.434 134.766 153.498 135.055C153.562 135.343 153.574 135.643 153.533 135.936C153.491 136.23 153.398 136.512 153.258 136.765C153.118 137.019 152.933 137.24 152.715 137.415L150.009 139.596C149.791 139.772 149.544 139.898 149.281 139.969C149.019 140.039 148.747 140.052 148.48 140.007C148.213 139.962 147.957 139.859 147.726 139.705C147.495 139.551 147.294 139.348 147.134 139.109L143.066 133.002C142.906 132.763 142.791 132.491 142.727 132.203C142.662 131.914 142.651 131.615 142.692 131.321C142.733 131.028 142.826 130.746 142.967 130.492C143.107 130.239 143.291 130.018 143.509 129.842L146.216 127.662C146.434 127.486 146.681 127.359 146.943 127.289C147.205 127.218 147.478 127.205 147.745 127.251C148.012 127.296 148.268 127.398 148.499 127.553C148.729 127.707 148.93 127.909 149.09 128.149L153.159 134.255ZM141.402 116.612C141.562 116.852 141.677 117.124 141.741 117.412C141.805 117.7 141.817 118 141.776 118.293C141.735 118.587 141.642 118.869 141.501 119.122C141.361 119.376 141.177 119.597 140.959 119.773L138.252 121.953C138.034 122.129 137.787 122.256 137.525 122.326C137.262 122.397 136.99 122.41 136.723 122.364C136.456 122.319 136.2 122.216 135.969 122.062C135.738 121.908 135.537 121.705 135.378 121.466L131.309 115.36C131.149 115.12 131.034 114.849 130.97 114.56C130.906 114.272 130.894 113.972 130.935 113.679C130.977 113.385 131.07 113.104 131.21 112.85C131.35 112.596 131.535 112.375 131.753 112.2L134.459 110.019C134.677 109.843 134.924 109.717 135.187 109.646C135.449 109.576 135.721 109.563 135.988 109.608C136.255 109.653 136.511 109.756 136.742 109.91C136.973 110.064 137.174 110.267 137.334 110.506L141.402 116.612ZM129.646 98.9692C129.805 99.2087 129.921 99.4804 129.985 99.7689C130.049 100.057 130.061 100.357 130.019 100.65C129.978 100.944 129.885 101.225 129.745 101.479C129.604 101.733 129.42 101.954 129.202 102.129L126.495 104.31C126.278 104.486 126.03 104.612 125.768 104.683C125.506 104.753 125.233 104.766 124.966 104.721C124.7 104.676 124.443 104.573 124.213 104.419C123.982 104.265 123.781 104.062 123.621 103.823L119.552 97.7167C119.393 97.4772 119.278 97.2054 119.213 96.917C119.149 96.6285 119.138 96.329 119.179 96.0355C119.22 95.7421 119.313 95.4604 119.453 95.2066C119.594 94.9528 119.778 94.7319 119.996 94.5564L122.703 92.3757C122.921 92.2001 123.168 92.0735 123.43 92.003C123.692 91.9324 123.965 91.9195 124.232 91.9647C124.499 92.01 124.755 92.1127 124.986 92.2668C125.216 92.421 125.417 92.6237 125.577 92.8632L129.646 98.9692Z" fill="white"/>
<path d="M176.109 97.9134L151.215 117.968C150.719 118.368 150.099 118.534 149.492 118.431C148.884 118.328 148.338 117.964 147.975 117.419L127.653 86.9218C127.29 86.3764 127.138 85.6947 127.232 85.0265C127.326 84.3583 127.657 83.7584 128.153 83.3589L153.047 63.304C153.543 62.9044 154.163 62.7378 154.77 62.8409C155.378 62.944 155.924 63.3083 156.287 63.8537L176.609 94.3506C177.366 95.486 177.142 97.0813 176.109 97.9134ZM111.135 106.735C110.792 106.219 110.277 105.875 109.703 105.778C109.129 105.681 108.543 105.838 108.075 106.215L68.5045 138.094C68.036 138.472 67.7231 139.038 67.6345 139.669C67.546 140.3 67.6891 140.944 68.0323 141.459C68.3756 141.975 68.8908 142.319 69.4648 142.416C70.0388 142.513 70.6244 142.356 71.0928 141.979L110.663 110.1C110.895 109.913 111.091 109.678 111.241 109.407C111.39 109.137 111.489 108.837 111.533 108.525C111.577 108.212 111.564 107.893 111.496 107.586C111.428 107.279 111.305 106.99 111.135 106.735ZM107.444 127.181C107.1 126.666 106.585 126.322 106.011 126.225C105.437 126.128 104.852 126.285 104.383 126.662L76.0807 149.463C75.6122 149.841 75.2993 150.407 75.2108 151.038C75.1222 151.67 75.2653 152.313 75.6085 152.829C75.9518 153.344 76.4671 153.688 77.041 153.785C77.615 153.882 78.2006 153.725 78.6691 153.348L106.971 130.547C107.44 130.169 107.753 129.603 107.841 128.972C107.93 128.34 107.787 127.697 107.444 127.181ZM126.287 129.473C125.944 128.958 125.429 128.614 124.855 128.517C124.281 128.419 123.695 128.576 123.227 128.954L83.6565 160.833C83.1881 161.21 82.8751 161.777 82.7866 162.408C82.698 163.039 82.8411 163.683 83.1844 164.198C83.5276 164.713 84.0429 165.057 84.6168 165.154C85.1908 165.252 85.7764 165.095 86.2449 164.717L125.815 132.838C126.284 132.461 126.597 131.894 126.685 131.263C126.774 130.632 126.631 129.988 126.287 129.473Z" fill="#10264E"/>
<path d="M137.756 150.663L98.1037 182.608C97.0178 183.483 95.4924 183.224 94.6966 182.03L91.159 176.721C90.3634 175.527 90.5986 173.85 91.6847 172.975L131.337 141.03C132.423 140.155 133.949 140.413 134.744 141.608L138.282 146.916C139.078 148.11 138.842 149.788 137.756 150.663Z" fill="white"/>
</g>
<g clip-path="url(#clip1_288_57)">
<path d="M184.828 104.982L148.349 111.97C146.862 112.255 145.663 113.282 145.011 114.645C144.925 114.828 144.801 114.987 144.649 115.109C144.498 115.231 144.323 115.312 144.138 115.348C143.953 115.383 143.763 115.371 143.583 115.313C143.403 115.255 143.238 115.151 143.1 115.011C142.067 113.971 140.622 113.45 139.136 113.735L73.6915 126.272C70.484 126.886 68.3368 130.243 68.8956 133.77L78.3643 193.529C78.9231 197.055 81.9763 199.416 85.1839 198.802L150.628 186.265C152.115 185.98 153.314 184.953 153.966 183.59C154.052 183.407 154.176 183.248 154.328 183.127C154.479 183.005 154.654 182.923 154.839 182.887C155.024 182.852 155.214 182.864 155.394 182.922C155.574 182.981 155.739 183.084 155.877 183.224C156.91 184.264 158.355 184.785 159.841 184.5L196.32 177.512C199.528 176.898 201.675 173.541 201.116 170.014L191.648 110.255C191.089 106.728 188.036 104.368 184.828 104.982ZM157.172 173.689C157.219 173.981 157.212 174.281 157.153 174.571C157.094 174.861 156.984 175.135 156.829 175.378C156.673 175.621 156.476 175.827 156.248 175.986C156.02 176.145 155.766 176.254 155.5 176.304L152.194 176.938C151.928 176.989 151.655 176.982 151.391 176.917C151.128 176.852 150.879 176.731 150.658 176.56C150.437 176.389 150.249 176.172 150.104 175.921C149.959 175.67 149.861 175.391 149.815 175.098L148.633 167.641C148.587 167.348 148.593 167.049 148.652 166.759C148.711 166.469 148.821 166.195 148.977 165.952C149.132 165.709 149.329 165.502 149.558 165.343C149.786 165.184 150.04 165.076 150.306 165.025L153.612 164.392C153.878 164.341 154.151 164.348 154.414 164.413C154.678 164.478 154.927 164.599 155.148 164.77C155.369 164.941 155.557 165.158 155.702 165.408C155.846 165.659 155.944 165.939 155.991 166.231L157.172 173.689ZM153.758 152.142C153.805 152.434 153.798 152.734 153.739 153.024C153.68 153.313 153.57 153.588 153.415 153.83C153.259 154.073 153.062 154.28 152.834 154.439C152.606 154.598 152.351 154.706 152.085 154.757L148.779 155.39C148.513 155.442 148.241 155.434 147.977 155.37C147.714 155.305 147.464 155.183 147.243 155.013C147.023 154.842 146.834 154.625 146.69 154.374C146.545 154.123 146.447 153.844 146.401 153.551L145.219 146.094C145.173 145.801 145.179 145.502 145.238 145.212C145.297 144.922 145.407 144.648 145.563 144.405C145.718 144.162 145.915 143.955 146.143 143.796C146.372 143.637 146.626 143.529 146.892 143.478L150.198 142.845C150.464 142.794 150.737 142.801 151 142.866C151.264 142.931 151.513 143.052 151.734 143.223C151.955 143.394 152.143 143.611 152.288 143.861C152.432 144.112 152.53 144.392 152.577 144.684L153.758 152.142ZM150.344 130.594C150.39 130.887 150.384 131.186 150.325 131.476C150.266 131.766 150.156 132.04 150 132.283C149.845 132.526 149.648 132.733 149.42 132.892C149.192 133.051 148.937 133.159 148.671 133.21L145.365 133.843C145.099 133.894 144.827 133.887 144.563 133.822C144.3 133.757 144.05 133.636 143.829 133.465C143.608 133.294 143.42 133.077 143.276 132.827C143.131 132.576 143.033 132.296 142.986 132.004L141.805 124.546C141.758 124.254 141.765 123.954 141.824 123.664C141.883 123.375 141.993 123.1 142.148 122.858C142.304 122.615 142.501 122.408 142.729 122.249C142.957 122.09 143.212 121.982 143.478 121.931L146.784 121.298C147.05 121.246 147.322 121.254 147.586 121.318C147.849 121.383 148.099 121.505 148.32 121.675C148.541 121.846 148.729 122.063 148.873 122.314C149.018 122.565 149.116 122.844 149.162 123.137L150.344 130.594Z" fill="#D5DEE4"/>
<path d="M192.408 152.322L162.005 158.146C161.4 158.262 160.777 158.108 160.274 157.719C159.771 157.33 159.429 156.738 159.323 156.072L153.422 118.826C153.316 118.16 153.456 117.475 153.809 116.922C154.163 116.369 154.702 115.993 155.308 115.877L185.71 110.053C186.316 109.937 186.939 110.091 187.442 110.479C187.945 110.868 188.287 111.461 188.392 112.127L194.294 149.373C194.514 150.76 193.669 152.08 192.408 152.322ZM130.623 128.52C130.523 127.891 130.2 127.332 129.725 126.964C129.25 126.597 128.662 126.452 128.09 126.562L79.7626 135.819C79.1905 135.929 78.6814 136.284 78.3473 136.806C78.0132 137.329 77.8816 137.976 77.9812 138.605C78.0809 139.234 78.4038 139.794 78.8788 140.161C79.3539 140.528 79.9422 140.673 80.5143 140.563L128.841 131.306C129.125 131.251 129.396 131.136 129.638 130.967C129.881 130.798 130.091 130.577 130.257 130.319C130.422 130.06 130.54 129.768 130.602 129.46C130.665 129.151 130.672 128.832 130.623 128.52ZM119.062 145.042C118.962 144.413 118.639 143.853 118.164 143.486C117.689 143.118 117.101 142.974 116.529 143.083L81.963 149.705C81.3909 149.814 80.8818 150.169 80.5477 150.692C80.2136 151.214 80.0819 151.861 80.1816 152.49C80.2813 153.119 80.6041 153.679 81.0792 154.046C81.5542 154.413 82.1425 154.558 82.7147 154.449L117.28 147.827C117.852 147.717 118.361 147.362 118.696 146.84C119.03 146.318 119.161 145.671 119.062 145.042ZM135.023 156.291C134.923 155.662 134.601 155.102 134.125 154.735C133.65 154.367 133.062 154.223 132.49 154.332L84.1629 163.59C83.5907 163.7 83.0816 164.055 82.7475 164.577C82.4135 165.099 82.2818 165.746 82.3815 166.375C82.4811 167.004 82.804 167.564 83.2791 167.931C83.7541 168.299 84.3424 168.443 84.9145 168.334L133.242 159.076C133.814 158.967 134.323 158.611 134.657 158.089C134.991 157.567 135.123 156.92 135.023 156.291Z" fill="#597B91"/>
<path d="M136.747 180.876L88.3199 190.153C86.9937 190.407 85.731 189.431 85.4999 187.972L84.4726 181.489C84.2415 180.031 85.1293 178.642 86.4557 178.388L134.883 169.111C136.209 168.857 137.472 169.833 137.703 171.292L138.73 177.775C138.962 179.233 138.074 180.622 136.747 180.876Z" fill="#ACB6BC"/>
</g>
<path d="M73.1152 228.067C73.1152 228.77 72.972 229.398 72.6855 229.951C72.4056 230.505 72.0182 230.964 71.5234 231.328C70.9505 231.758 70.319 232.064 69.6289 232.246C68.9453 232.429 68.0762 232.52 67.0215 232.52H60.6738V217.979H66.3184C67.4902 217.979 68.3464 218.018 68.8867 218.096C69.4336 218.174 69.974 218.346 70.5078 218.613C71.0612 218.893 71.4714 219.271 71.7383 219.746C72.0117 220.215 72.1484 220.752 72.1484 221.358C72.1484 222.061 71.9629 222.682 71.5918 223.223C71.2207 223.757 70.6966 224.173 70.0195 224.473V224.551C70.9701 224.74 71.722 225.13 72.2754 225.723C72.8353 226.315 73.1152 227.096 73.1152 228.067ZM68.3105 222.09C68.3105 221.849 68.2487 221.608 68.125 221.367C68.0078 221.126 67.7962 220.947 67.4902 220.83C67.2168 220.726 66.875 220.671 66.4648 220.664C66.0612 220.651 65.4915 220.645 64.7559 220.645H64.4043V223.721H64.9902C65.5827 223.721 66.0872 223.711 66.5039 223.692C66.9206 223.672 67.2493 223.607 67.4902 223.496C67.8288 223.346 68.0501 223.154 68.1543 222.92C68.2585 222.679 68.3105 222.402 68.3105 222.09ZM69.2285 228.008C69.2285 227.546 69.1374 227.191 68.9551 226.943C68.7793 226.69 68.4766 226.501 68.0469 226.377C67.7539 226.292 67.3503 226.247 66.8359 226.24C66.3216 226.234 65.7845 226.231 65.2246 226.231H64.4043V229.854H64.6777C65.7324 229.854 66.4876 229.85 66.9434 229.844C67.3991 229.837 67.819 229.753 68.2031 229.59C68.5938 229.427 68.8607 229.212 69.0039 228.945C69.1536 228.672 69.2285 228.359 69.2285 228.008ZM79.2285 232.52H75.7129V221.553H79.2285V232.52ZM79.3262 219.99H75.6152V217.324H79.3262V219.99ZM86.0645 232.52H82.5488V217.324H86.0645V232.52ZM100.4 232.52H96.8652V227.08C96.8652 226.637 96.8424 226.198 96.7969 225.762C96.7513 225.319 96.6732 224.994 96.5625 224.785C96.4323 224.544 96.2402 224.369 95.9863 224.258C95.7389 224.147 95.3906 224.092 94.9414 224.092C94.6224 224.092 94.2969 224.144 93.9648 224.248C93.6393 224.352 93.2845 224.518 92.9004 224.746V232.52H89.3848V217.324H92.9004V222.764C93.5254 222.276 94.1243 221.901 94.6973 221.641C95.2767 221.38 95.918 221.25 96.6211 221.25C97.806 221.25 98.7305 221.595 99.3945 222.285C100.065 222.975 100.4 224.007 100.4 225.381V232.52ZM114.443 227.686H106.396C106.449 228.545 106.774 229.203 107.373 229.658C107.979 230.114 108.867 230.342 110.039 230.342C110.781 230.342 111.501 230.208 112.197 229.942C112.894 229.675 113.444 229.388 113.848 229.082H114.238V231.904C113.444 232.223 112.695 232.455 111.992 232.598C111.289 232.741 110.511 232.813 109.658 232.813C107.458 232.813 105.771 232.318 104.6 231.328C103.428 230.339 102.842 228.929 102.842 227.1C102.842 225.29 103.395 223.858 104.502 222.803C105.615 221.742 107.139 221.211 109.072 221.211C110.856 221.211 112.197 221.664 113.096 222.568C113.994 223.467 114.443 224.762 114.443 226.455V227.686ZM110.947 225.625C110.928 224.889 110.745 224.336 110.4 223.965C110.055 223.594 109.518 223.408 108.789 223.408C108.112 223.408 107.555 223.584 107.119 223.936C106.683 224.287 106.439 224.85 106.387 225.625H110.947ZM123.936 232.422C123.558 232.52 123.158 232.595 122.734 232.647C122.311 232.705 121.794 232.734 121.182 232.734C119.814 232.734 118.796 232.458 118.125 231.904C117.461 231.351 117.129 230.404 117.129 229.063V223.936H115.684V221.553H117.129V218.418H120.645V221.553H123.936V223.936H120.645V227.822C120.645 228.207 120.648 228.542 120.654 228.828C120.661 229.115 120.713 229.372 120.811 229.6C120.902 229.828 121.061 230.01 121.289 230.147C121.523 230.277 121.862 230.342 122.305 230.342C122.487 230.342 122.725 230.303 123.018 230.225C123.317 230.147 123.525 230.075 123.643 230.01H123.936V232.422ZM132.686 229.658V227.373C132.21 227.412 131.696 227.468 131.143 227.539C130.589 227.604 130.169 227.682 129.883 227.774C129.531 227.884 129.261 228.047 129.072 228.262C128.89 228.47 128.799 228.747 128.799 229.092C128.799 229.32 128.818 229.505 128.857 229.649C128.896 229.792 128.994 229.929 129.15 230.059C129.3 230.189 129.479 230.287 129.688 230.352C129.896 230.41 130.221 230.44 130.664 230.44C131.016 230.44 131.37 230.368 131.729 230.225C132.093 230.082 132.412 229.893 132.686 229.658ZM132.686 231.358C132.497 231.501 132.262 231.673 131.982 231.875C131.702 232.077 131.439 232.236 131.191 232.354C130.846 232.51 130.488 232.624 130.117 232.695C129.746 232.774 129.339 232.813 128.896 232.813C127.855 232.813 126.982 232.49 126.279 231.846C125.576 231.201 125.225 230.378 125.225 229.375C125.225 228.574 125.404 227.92 125.762 227.412C126.12 226.904 126.628 226.504 127.285 226.211C127.936 225.918 128.743 225.71 129.707 225.586C130.671 225.462 131.67 225.371 132.705 225.313V225.254C132.705 224.649 132.458 224.232 131.963 224.004C131.468 223.77 130.739 223.652 129.775 223.652C129.196 223.652 128.577 223.757 127.92 223.965C127.262 224.167 126.79 224.323 126.504 224.434H126.182V221.787C126.553 221.69 127.155 221.576 127.988 221.445C128.828 221.309 129.668 221.24 130.508 221.24C132.507 221.24 133.949 221.55 134.834 222.168C135.726 222.78 136.172 223.744 136.172 225.059V232.52H132.686V231.358ZM150.068 231.26C150.068 232.289 149.922 233.154 149.629 233.858C149.336 234.561 148.926 235.111 148.398 235.508C147.871 235.912 147.233 236.201 146.484 236.377C145.742 236.559 144.902 236.651 143.965 236.651C143.203 236.651 142.451 236.605 141.709 236.514C140.973 236.423 140.335 236.312 139.795 236.182V233.438H140.225C140.654 233.607 141.178 233.76 141.797 233.897C142.415 234.04 142.969 234.111 143.457 234.111C144.108 234.111 144.635 234.05 145.039 233.926C145.449 233.809 145.762 233.639 145.977 233.418C146.178 233.21 146.325 232.943 146.416 232.617C146.507 232.292 146.553 231.901 146.553 231.445V231.24C146.13 231.585 145.661 231.859 145.146 232.061C144.632 232.262 144.059 232.363 143.428 232.363C141.891 232.363 140.706 231.901 139.873 230.977C139.04 230.052 138.623 228.646 138.623 226.758C138.623 225.853 138.75 225.072 139.004 224.414C139.258 223.757 139.616 223.184 140.078 222.695C140.508 222.24 141.035 221.885 141.66 221.631C142.292 221.377 142.936 221.25 143.594 221.25C144.186 221.25 144.723 221.322 145.205 221.465C145.693 221.602 146.136 221.794 146.533 222.041L146.66 221.553H150.068V231.26ZM146.553 229.063V224.092C146.351 224.007 146.104 223.942 145.811 223.897C145.518 223.845 145.254 223.818 145.02 223.818C144.095 223.818 143.402 224.085 142.939 224.619C142.477 225.147 142.246 225.886 142.246 226.836C142.246 227.891 142.441 228.626 142.832 229.043C143.229 229.46 143.815 229.668 144.59 229.668C144.941 229.668 145.286 229.613 145.625 229.502C145.964 229.391 146.273 229.245 146.553 229.063ZM164.189 227.686H156.143C156.195 228.545 156.52 229.203 157.119 229.658C157.725 230.114 158.613 230.342 159.785 230.342C160.527 230.342 161.247 230.208 161.943 229.942C162.64 229.675 163.19 229.388 163.594 229.082H163.984V231.904C163.19 232.223 162.441 232.455 161.738 232.598C161.035 232.741 160.257 232.813 159.404 232.813C157.204 232.813 155.518 232.318 154.346 231.328C153.174 230.339 152.588 228.929 152.588 227.1C152.588 225.29 153.141 223.858 154.248 222.803C155.361 221.742 156.885 221.211 158.818 221.211C160.602 221.211 161.943 221.664 162.842 222.568C163.74 223.467 164.189 224.762 164.189 226.455V227.686ZM160.693 225.625C160.674 224.889 160.492 224.336 160.146 223.965C159.801 223.594 159.264 223.408 158.535 223.408C157.858 223.408 157.301 223.584 156.865 223.936C156.429 224.287 156.185 224.85 156.133 225.625H160.693ZM177.393 224.746V232.52H173.857V227.041C173.857 226.507 173.844 226.055 173.818 225.684C173.792 225.306 173.721 225 173.604 224.766C173.486 224.531 173.307 224.362 173.066 224.258C172.832 224.147 172.5 224.092 172.07 224.092C171.725 224.092 171.39 224.164 171.064 224.307C170.739 224.443 170.446 224.59 170.186 224.746V232.52H166.67V221.553H170.186V222.764C170.791 222.289 171.37 221.917 171.924 221.651C172.477 221.384 173.089 221.25 173.76 221.25C174.482 221.25 175.12 221.413 175.674 221.738C176.227 222.057 176.66 222.529 176.973 223.154C177.676 222.562 178.359 222.096 179.023 221.758C179.688 221.419 180.339 221.25 180.977 221.25C182.161 221.25 183.06 221.605 183.672 222.315C184.29 223.024 184.6 224.046 184.6 225.381V232.52H181.064V227.041C181.064 226.501 181.051 226.045 181.025 225.674C181.006 225.303 180.938 225 180.82 224.766C180.71 224.531 180.534 224.362 180.293 224.258C180.052 224.147 179.714 224.092 179.277 224.092C178.984 224.092 178.698 224.144 178.418 224.248C178.138 224.346 177.796 224.512 177.393 224.746Z" fill="white"/>
<defs>
<linearGradient id="paint0_linear_288_57" x1="122.5" y1="0" x2="122.5" y2="400" gradientUnits="userSpaceOnUse">
<stop offset="0.5" stop-color="#A1A1A1"/>
<stop offset="1" stop-color="#3C3C3C"/>
</linearGradient>
<clipPath id="clip0_288_57">
<rect width="130.738" height="134.52" fill="white" transform="matrix(0.778728 -0.627362 0.554524 0.832168 31.9243 103.682)"/>
</clipPath>
<clipPath id="clip1_288_57">
<rect width="126.6" height="138.422" fill="white" transform="matrix(0.982142 -0.188143 0.156497 0.987679 60.8716 87.1316)"/>
</clipPath>
</defs>
</svg>
