<svg width="180" height="195" viewBox="0 0 180 195" fill="none" xmlns="http://www.w3.org/2000/svg">
<rect width="180" height="195" rx="25" fill="url(#paint0_linear_288_57)" fill-opacity="0.85098"/>
<g clip-path="url(#clip0_288_57)">
<path d="M104.584 33.0437L89.0594 41.3424C88.4268 41.6805 88.1049 42.221 88.1201 42.7847C88.1226 42.8603 88.1018 42.9337 88.0592 42.9993C88.0167 43.0649 87.9537 43.1209 87.875 43.163C87.7963 43.2051 87.7041 43.232 87.6055 43.2418C87.507 43.2517 87.4047 43.244 87.3067 43.2195C86.5746 43.039 85.7712 43.1001 85.1387 43.4382L57.288 58.3262C55.923 59.0559 55.7055 60.5328 56.8023 61.625L75.386 80.1301C76.4828 81.2222 78.4785 81.5161 79.8435 80.7864L107.694 65.8984C108.327 65.5602 108.649 65.0198 108.633 64.4561C108.631 64.3805 108.652 64.3071 108.694 64.2415C108.737 64.1759 108.8 64.1198 108.878 64.0778C108.957 64.0357 109.049 64.0087 109.148 63.9989C109.246 63.9891 109.349 63.9968 109.447 64.0212C110.179 64.2017 110.982 64.1407 111.615 63.8025L127.139 55.5038C128.504 54.7742 128.721 53.2973 127.625 52.2051L109.041 33.7C107.944 32.6078 105.949 32.314 104.584 33.0437ZM107.803 60.6106C107.894 60.7011 107.961 60.8028 108.002 60.9096C108.043 61.0165 108.056 61.1265 108.04 61.2333C108.024 61.3402 107.98 61.4418 107.911 61.5324C107.841 61.6229 107.747 61.7007 107.633 61.7612L106.226 62.5133C106.113 62.5738 105.983 62.6159 105.844 62.6372C105.704 62.6585 105.558 62.6585 105.414 62.6372C105.269 62.616 105.13 62.5738 105.002 62.5133C104.875 62.4528 104.763 62.375 104.672 62.2844L102.352 59.975C102.261 59.8845 102.194 59.7828 102.153 59.676C102.112 59.5691 102.099 59.4591 102.115 59.3523C102.131 59.2454 102.175 59.1438 102.245 59.0532C102.314 58.9627 102.409 58.8849 102.522 58.8244L103.929 58.0723C104.042 58.0118 104.172 57.9697 104.311 57.9484C104.451 57.9271 104.597 57.9271 104.741 57.9484C104.886 57.9697 105.026 58.0118 105.153 58.0723C105.28 58.1328 105.393 58.2106 105.484 58.3012L107.803 60.6106ZM101.102 53.9381C101.193 54.0287 101.261 54.1303 101.301 54.2372C101.342 54.344 101.355 54.454 101.339 54.5609C101.324 54.6677 101.28 54.7693 101.21 54.8599C101.14 54.9505 101.046 55.0283 100.932 55.0888L99.5256 55.8408C99.4124 55.9014 99.2824 55.9435 99.143 55.9648C99.0036 55.986 98.8575 55.986 98.7131 55.9648C98.5687 55.9435 98.4288 55.9014 98.3015 55.8409C98.1741 55.7803 98.0617 55.7025 97.9708 55.6119L95.6517 53.3027C95.5607 53.2121 95.4929 53.1105 95.4522 53.0036C95.4114 52.8968 95.3986 52.7868 95.4143 52.6799C95.43 52.5731 95.4741 52.4715 95.5439 52.3809C95.6137 52.2903 95.7079 52.2125 95.8211 52.152L97.228 51.4C97.3412 51.3394 97.4712 51.2973 97.6106 51.276C97.7501 51.2548 97.8961 51.2548 98.0405 51.276C98.1849 51.2973 98.3248 51.3394 98.4522 51.3999C98.5795 51.4605 98.6919 51.5383 98.7829 51.6289L101.102 53.9381ZM94.401 47.2656C94.492 47.3562 94.5598 47.4578 94.6006 47.5646C94.6413 47.6715 94.6542 47.7815 94.6384 47.8883C94.6227 47.9952 94.5787 48.0968 94.5089 48.1874C94.4391 48.278 94.3449 48.3557 94.2316 48.4162L92.8247 49.1683C92.7115 49.2289 92.5815 49.271 92.4421 49.2922C92.3027 49.3135 92.1566 49.3135 92.0122 49.2922C91.8678 49.271 91.728 49.2289 91.6006 49.1683C91.4732 49.1078 91.3608 49.03 91.2699 48.9394L88.9509 46.6301C88.8598 46.5396 88.792 46.438 88.7513 46.3311C88.7106 46.2242 88.6977 46.1143 88.7134 46.0074C88.7292 45.9005 88.7732 45.7989 88.843 45.7083C88.9128 45.6178 89.007 45.54 89.1203 45.4795L90.5271 44.7274C90.6403 44.6669 90.7704 44.6248 90.9098 44.6035C91.0492 44.5823 91.1953 44.5822 91.3397 44.6035C91.484 44.6248 91.6239 44.6669 91.7513 44.7274C91.8787 44.788 91.991 44.8658 92.082 44.9564L94.401 47.2656Z" fill="white"/>
<path d="M119.343 47.6903L106.404 54.6066C106.147 54.7444 105.817 54.7946 105.488 54.7462C105.16 54.6978 104.859 54.5547 104.651 54.3485L93.0687 42.8148C92.8616 42.6085 92.7654 42.356 92.8012 42.1127C92.837 41.8694 93.002 41.6553 93.2597 41.5175L106.198 34.6012C106.456 34.4634 106.785 34.4132 107.114 34.4616C107.443 34.51 107.744 34.6531 107.951 34.8593L119.534 46.3931C119.965 46.8225 119.879 47.4033 119.343 47.6903ZM84.6255 49.7886C84.4298 49.5938 84.1455 49.4587 83.835 49.413C83.5245 49.3673 83.2133 49.4147 82.9698 49.5449L62.4036 60.5388C62.1601 60.669 62.0043 60.8712 61.9705 61.101C61.9367 61.3308 62.0276 61.5693 62.2232 61.7641C62.4188 61.9589 62.7032 62.094 63.0137 62.1398C63.3242 62.1855 63.6354 62.138 63.8789 62.0079L84.4451 51.0139C84.5656 50.9494 84.6659 50.8666 84.7402 50.7702C84.8146 50.6737 84.8614 50.5655 84.8782 50.4517C84.8949 50.338 84.8812 50.2208 84.8379 50.1071C84.7945 49.9933 84.7223 49.8851 84.6255 49.7886ZM83.0872 57.219C82.8916 57.0242 82.6073 56.8891 82.2968 56.8433C81.9863 56.7976 81.675 56.8451 81.4315 56.9752L66.7217 64.8386C66.4783 64.9687 66.3225 65.1709 66.2886 65.4007C66.2548 65.6305 66.3457 65.869 66.5413 66.0638C66.737 66.2587 67.0213 66.3938 67.3318 66.4395C67.6423 66.4852 67.9535 66.4378 68.197 66.3076L82.9068 58.4443C83.1503 58.3141 83.3061 58.1119 83.3399 57.8821C83.3738 57.6523 83.2829 57.4138 83.0872 57.219ZM93.2616 58.3882C93.066 58.1934 92.7816 58.0583 92.4711 58.0126C92.1606 57.9668 91.8494 58.0143 91.6059 58.1444L71.0397 69.1384C70.7962 69.2686 70.6404 69.4708 70.6066 69.7006C70.5728 69.9304 70.6637 70.1689 70.8593 70.3637C71.0549 70.5585 71.3393 70.6936 71.6498 70.7393C71.9603 70.785 72.2715 70.7376 72.515 70.6075L93.0812 59.6135C93.3247 59.4833 93.4805 59.2811 93.5143 59.0513C93.5481 58.8215 93.4572 58.583 93.2616 58.3882Z" fill="#10264E"/>
<path d="M99.8848 66.3557L79.2759 77.3725C78.7115 77.6742 77.8862 77.5527 77.4327 77.1011L75.4164 75.0933C74.9629 74.6418 75.0527 74.0311 75.6172 73.7293L96.2261 62.7125C96.7905 62.4108 97.6157 62.5322 98.0693 62.9839L100.086 64.9916C100.539 65.4432 100.449 66.054 99.8848 66.3557Z" fill="white"/>
</g>
<g clip-path="url(#clip1_288_57)">
<path d="M123.658 49.297L106.196 51.5167C105.484 51.6072 104.93 52.018 104.65 52.5822C104.612 52.658 104.556 52.7227 104.486 52.7712C104.416 52.8198 104.334 52.8509 104.245 52.8621C104.157 52.8734 104.064 52.8645 103.976 52.8361C103.887 52.8077 103.805 52.7606 103.735 52.6985C103.209 52.2368 102.497 51.9868 101.786 52.0773L70.4574 56.0595C68.922 56.2546 67.9687 57.6333 68.3282 59.1387L74.4195 84.6474C74.779 86.1529 76.3151 87.2151 77.8506 87.0199L109.179 83.0378C109.89 82.9473 110.444 82.5364 110.725 81.9723C110.762 81.8965 110.818 81.8318 110.888 81.7832C110.958 81.7347 111.041 81.7036 111.129 81.6923C111.218 81.6811 111.31 81.69 111.399 81.7184C111.487 81.7468 111.57 81.7938 111.64 81.856C112.166 82.3176 112.877 82.5676 113.589 82.4772L131.051 80.2575C132.587 80.0623 133.54 78.6837 133.181 77.1782L127.089 51.6695C126.73 50.164 125.194 49.1018 123.658 49.297ZM112.025 77.8428C112.055 77.9676 112.059 78.0945 112.038 78.216C112.017 78.3376 111.97 78.4515 111.901 78.5513C111.832 78.651 111.742 78.7346 111.636 78.7974C111.53 78.8601 111.409 78.9007 111.282 78.9169L109.7 79.118C109.572 79.1343 109.44 79.1257 109.311 79.0929C109.182 79.0601 109.058 79.0036 108.947 78.9268C108.836 78.8499 108.74 78.7542 108.663 78.645C108.587 78.5358 108.533 78.4153 108.503 78.2905L107.743 75.1071C107.713 74.9823 107.708 74.8554 107.729 74.7339C107.751 74.6123 107.797 74.4984 107.866 74.3986C107.935 74.2989 108.025 74.2153 108.131 74.1525C108.238 74.0898 108.358 74.0492 108.485 74.033L110.068 73.8319C110.195 73.8157 110.327 73.8242 110.456 73.857C110.585 73.8898 110.709 73.9463 110.82 74.0231C110.931 74.1 111.028 74.1957 111.104 74.3049C111.18 74.4141 111.235 74.5346 111.265 74.6595L112.025 77.8428ZM109.828 68.645C109.858 68.7699 109.863 68.8967 109.842 69.0183C109.82 69.1399 109.774 69.2538 109.705 69.3535C109.636 69.4533 109.546 69.5369 109.44 69.5997C109.333 69.6624 109.213 69.703 109.086 69.7191L107.503 69.9203C107.376 69.9365 107.244 69.928 107.115 69.8952C106.986 69.8624 106.862 69.8059 106.751 69.7291C106.64 69.6522 106.543 69.5564 106.467 69.4473C106.391 69.3381 106.336 69.2176 106.306 69.0927L105.546 65.9095C105.516 65.7847 105.512 65.6578 105.533 65.5363C105.554 65.4147 105.601 65.3008 105.67 65.201C105.739 65.1013 105.829 65.0176 105.935 64.9549C106.041 64.8922 106.162 64.8516 106.289 64.8354L107.871 64.6343C107.999 64.618 108.131 64.6266 108.26 64.6594C108.389 64.6922 108.513 64.7487 108.624 64.8255C108.735 64.9024 108.831 64.9981 108.908 65.1073C108.984 65.2165 109.039 65.337 109.068 65.4618L109.828 68.645ZM107.632 59.4472C107.662 59.5721 107.666 59.6989 107.645 59.8205C107.624 59.942 107.578 60.056 107.509 60.1557C107.44 60.2555 107.349 60.3391 107.243 60.4018C107.137 60.4645 107.017 60.5051 106.889 60.5213L105.307 60.7225C105.179 60.7387 105.047 60.7301 104.918 60.6973C104.789 60.6645 104.666 60.6081 104.555 60.5312C104.443 60.4544 104.347 60.3586 104.271 60.2494C104.194 60.1402 104.14 60.0198 104.11 59.8949L103.35 56.7117C103.32 56.5868 103.316 56.46 103.337 56.3384C103.358 56.2168 103.404 56.1029 103.473 56.0032C103.542 55.9034 103.632 55.8198 103.739 55.7571C103.845 55.6943 103.965 55.6537 104.093 55.6376L105.675 55.4364C105.802 55.4202 105.934 55.4287 106.064 55.4616C106.193 55.4944 106.316 55.5508 106.427 55.6277C106.539 55.7045 106.635 55.8003 106.711 55.9095C106.788 56.0186 106.842 56.1391 106.872 56.264L107.632 59.4472Z" fill="#D5DEE4"/>
<path d="M128.522 69.5062L113.968 71.3561C113.678 71.393 113.373 71.3154 113.12 71.1404C112.867 70.9654 112.687 70.7074 112.619 70.4231L108.823 54.5243C108.755 54.24 108.805 53.9527 108.962 53.7256C109.119 53.4985 109.37 53.3502 109.66 53.3133L124.213 51.4634C124.503 51.4265 124.809 51.5041 125.062 51.6791C125.315 51.8541 125.495 52.1121 125.563 52.3964L129.359 68.2953C129.501 68.8872 129.126 69.4294 128.522 69.5062ZM98.0435 58.1682C97.9794 57.8997 97.8091 57.656 97.5701 57.4907C97.3311 57.3255 97.0429 57.2522 96.7691 57.287L73.6349 60.2276C73.361 60.2624 73.1238 60.4025 72.9755 60.617C72.8272 60.8315 72.7799 61.1028 72.844 61.3714C72.9081 61.6399 73.0784 61.8836 73.3174 62.0489C73.5564 62.2141 73.8446 62.2874 74.1184 62.2526L97.2526 59.312C97.3882 59.2948 97.5163 59.2515 97.6294 59.1847C97.7425 59.1179 97.8386 59.0288 97.912 58.9226C97.9854 58.8164 98.0349 58.6951 98.0574 58.5657C98.08 58.4362 98.0753 58.3012 98.0435 58.1682ZM92.8713 64.9327C92.8072 64.6641 92.6369 64.4204 92.3979 64.2552C92.1589 64.0899 91.8707 64.0166 91.5969 64.0514L75.0504 66.1547C74.7765 66.1895 74.5393 66.3295 74.391 66.544C74.2426 66.7585 74.1953 67.0299 74.2595 67.2984C74.3236 67.567 74.4939 67.8107 74.7329 67.976C74.9719 68.1412 75.26 68.2145 75.5339 68.1797L92.0804 66.0764C92.3543 66.0416 92.5915 65.9016 92.7398 65.6871C92.8881 65.4726 92.9354 65.2012 92.8713 64.9327ZM100.874 70.0224C100.81 69.7539 100.64 69.5102 100.401 69.3449C100.162 69.1797 99.8736 69.1064 99.5998 69.1412L76.4656 72.0818C76.1917 72.1166 75.9545 72.2567 75.8062 72.4712C75.6579 72.6857 75.6106 72.957 75.6747 73.2256C75.7388 73.4941 75.9091 73.7378 76.1481 73.9031C76.3871 74.0683 76.6753 74.1416 76.9492 74.1068L100.083 71.1662C100.357 71.1314 100.594 70.9913 100.743 70.7768C100.891 70.5623 100.938 70.291 100.874 70.0224Z" fill="#597B91"/>
<path d="M102.33 80.4728L79.1481 83.4195C78.5133 83.5002 77.878 83.0611 77.7294 82.4385L77.0685 79.6709C76.9198 79.0484 77.314 78.4783 77.9489 78.3976L101.131 75.4509C101.766 75.3702 102.401 75.8093 102.55 76.4319L103.211 79.1995C103.359 79.822 102.965 80.3921 102.33 80.4728Z" fill="#ACB6BC"/>
</g>
<path d="M60.3691 112.031C60.3691 112.453 60.2832 112.83 60.1113 113.162C59.9434 113.494 59.7109 113.77 59.4141 113.989C59.0703 114.246 58.6914 114.43 58.2773 114.539C57.8672 114.649 57.3457 114.703 56.7129 114.703H52.9043V105.979H56.291C56.9941 105.979 57.5078 106.002 57.832 106.049C58.1602 106.096 58.4844 106.199 58.8047 106.36C59.1367 106.528 59.3828 106.754 59.543 107.039C59.707 107.321 59.7891 107.643 59.7891 108.006C59.7891 108.428 59.6777 108.801 59.4551 109.125C59.2324 109.446 58.918 109.696 58.5117 109.875V109.922C59.082 110.035 59.5332 110.27 59.8652 110.625C60.2012 110.981 60.3691 111.449 60.3691 112.031ZM57.4863 108.446C57.4863 108.301 57.4492 108.156 57.375 108.012C57.3047 107.867 57.1777 107.76 56.9941 107.69C56.8301 107.627 56.625 107.594 56.3789 107.59C56.1367 107.582 55.7949 107.578 55.3535 107.578H55.1426V109.424H55.4941C55.8496 109.424 56.1523 109.418 56.4023 109.406C56.6523 109.395 56.8496 109.356 56.9941 109.289C57.1973 109.199 57.3301 109.084 57.3926 108.944C57.4551 108.799 57.4863 108.633 57.4863 108.446ZM58.0371 111.996C58.0371 111.719 57.9824 111.506 57.873 111.358C57.7676 111.205 57.5859 111.092 57.3281 111.018C57.1523 110.967 56.9102 110.94 56.6016 110.936C56.293 110.932 55.9707 110.93 55.6348 110.93H55.1426V113.104H55.3066C55.9395 113.104 56.3926 113.102 56.666 113.098C56.9395 113.094 57.1914 113.043 57.4219 112.946C57.6562 112.848 57.8164 112.719 57.9023 112.559C57.9922 112.395 58.0371 112.207 58.0371 111.996ZM64.0371 114.703H61.9277V108.123H64.0371V114.703ZM64.0957 107.186H61.8691V105.586H64.0957V107.186ZM68.1387 114.703H66.0293V105.586H68.1387V114.703ZM76.7402 114.703H74.6191V111.44C74.6191 111.174 74.6055 110.91 74.5781 110.649C74.5508 110.383 74.5039 110.188 74.4375 110.063C74.3594 109.918 74.2441 109.813 74.0918 109.746C73.9434 109.68 73.7344 109.647 73.4648 109.647C73.2734 109.647 73.0781 109.678 72.8789 109.74C72.6836 109.803 72.4707 109.903 72.2402 110.039V114.703H70.1309V105.586H72.2402V108.85C72.6152 108.557 72.9746 108.332 73.3184 108.176C73.666 108.02 74.0508 107.942 74.4727 107.942C75.1836 107.942 75.7383 108.149 76.1367 108.563C76.5391 108.977 76.7402 109.596 76.7402 110.42V114.703ZM85.166 111.803H80.3379C80.3691 112.319 80.5645 112.713 80.9238 112.987C81.2871 113.26 81.8203 113.397 82.5234 113.397C82.9688 113.397 83.4004 113.317 83.8184 113.156C84.2363 112.996 84.5664 112.824 84.8086 112.641H85.043V114.334C84.5664 114.526 84.1172 114.664 83.6953 114.75C83.2734 114.836 82.8066 114.879 82.2949 114.879C80.9746 114.879 79.9629 114.582 79.2598 113.989C78.5566 113.395 78.2051 112.549 78.2051 111.451C78.2051 110.365 78.5371 109.506 79.2012 108.873C79.8691 108.237 80.7832 107.918 81.9434 107.918C83.0137 107.918 83.8184 108.19 84.3574 108.733C84.8965 109.272 85.166 110.049 85.166 111.065V111.803ZM83.0684 110.567C83.0566 110.125 82.9473 109.793 82.7402 109.571C82.5332 109.348 82.2109 109.237 81.7734 109.237C81.3672 109.237 81.0332 109.342 80.7715 109.553C80.5098 109.764 80.3633 110.102 80.332 110.567H83.0684ZM90.8613 114.645C90.6348 114.703 90.3945 114.748 90.1406 114.78C89.8867 114.815 89.5762 114.832 89.209 114.832C88.3887 114.832 87.7773 114.666 87.375 114.334C86.9766 114.002 86.7773 113.434 86.7773 112.629V109.553H85.9102V108.123H86.7773V106.242H88.8867V108.123H90.8613V109.553H88.8867V111.885C88.8867 112.115 88.8887 112.317 88.8926 112.489C88.8965 112.66 88.9277 112.815 88.9863 112.951C89.041 113.088 89.1367 113.198 89.2734 113.28C89.4141 113.358 89.6172 113.397 89.8828 113.397C89.9922 113.397 90.1348 113.373 90.3105 113.326C90.4902 113.28 90.6152 113.237 90.6855 113.198H90.8613V114.645ZM96.1113 112.987V111.615C95.8262 111.639 95.5176 111.672 95.1855 111.715C94.8535 111.754 94.6016 111.801 94.4297 111.856C94.2188 111.922 94.0566 112.02 93.9434 112.149C93.834 112.274 93.7793 112.44 93.7793 112.647C93.7793 112.783 93.791 112.895 93.8145 112.981C93.8379 113.067 93.8965 113.149 93.9902 113.227C94.0801 113.305 94.1875 113.364 94.3125 113.403C94.4375 113.438 94.6328 113.455 94.8984 113.455C95.1094 113.455 95.3223 113.412 95.5371 113.326C95.7559 113.24 95.9473 113.127 96.1113 112.987ZM96.1113 114.006C95.998 114.092 95.8574 114.196 95.6895 114.317C95.5215 114.438 95.3633 114.533 95.2148 114.604C95.0078 114.698 94.793 114.766 94.5703 114.809C94.3477 114.856 94.1035 114.879 93.8379 114.879C93.2129 114.879 92.6895 114.686 92.2676 114.299C91.8457 113.912 91.6348 113.418 91.6348 112.817C91.6348 112.336 91.7422 111.944 91.957 111.639C92.1719 111.334 92.4766 111.094 92.8711 110.918C93.2617 110.742 93.7461 110.617 94.3242 110.543C94.9023 110.469 95.502 110.414 96.123 110.379V110.344C96.123 109.981 95.9746 109.731 95.6777 109.594C95.3809 109.453 94.9434 109.383 94.3652 109.383C94.0176 109.383 93.6465 109.446 93.252 109.571C92.8574 109.692 92.5742 109.785 92.4023 109.852H92.209V108.264C92.4316 108.205 92.793 108.137 93.293 108.059C93.7969 107.977 94.3008 107.936 94.8047 107.936C96.0039 107.936 96.8691 108.121 97.4004 108.492C97.9355 108.86 98.2031 109.438 98.2031 110.227V114.703H96.1113V114.006ZM106.541 113.948C106.541 114.565 106.453 115.084 106.277 115.506C106.102 115.928 105.855 116.258 105.539 116.496C105.223 116.739 104.84 116.912 104.391 117.018C103.945 117.127 103.441 117.182 102.879 117.182C102.422 117.182 101.971 117.155 101.525 117.1C101.084 117.045 100.701 116.979 100.377 116.901V115.254H100.635C100.893 115.356 101.207 115.448 101.578 115.53C101.949 115.615 102.281 115.658 102.574 115.658C102.965 115.658 103.281 115.621 103.523 115.547C103.77 115.477 103.957 115.375 104.086 115.242C104.207 115.117 104.295 114.957 104.35 114.762C104.404 114.567 104.432 114.332 104.432 114.059V113.936C104.178 114.143 103.896 114.307 103.588 114.428C103.279 114.549 102.936 114.61 102.557 114.61C101.635 114.61 100.924 114.332 100.424 113.778C99.9238 113.223 99.6738 112.379 99.6738 111.246C99.6738 110.703 99.75 110.235 99.9023 109.84C100.055 109.446 100.27 109.102 100.547 108.809C100.805 108.535 101.121 108.323 101.496 108.17C101.875 108.018 102.262 107.942 102.656 107.942C103.012 107.942 103.334 107.985 103.623 108.071C103.916 108.153 104.182 108.268 104.42 108.416L104.496 108.123H106.541V113.948ZM104.432 112.629V109.647C104.311 109.596 104.162 109.557 103.986 109.53C103.811 109.498 103.652 109.483 103.512 109.483C102.957 109.483 102.541 109.643 102.264 109.963C101.986 110.28 101.848 110.723 101.848 111.293C101.848 111.926 101.965 112.367 102.199 112.617C102.438 112.867 102.789 112.992 103.254 112.992C103.465 112.992 103.672 112.959 103.875 112.893C104.078 112.826 104.264 112.739 104.432 112.629ZM115.014 111.803H110.186C110.217 112.319 110.412 112.713 110.771 112.987C111.135 113.26 111.668 113.397 112.371 113.397C112.816 113.397 113.248 113.317 113.666 113.156C114.084 112.996 114.414 112.824 114.656 112.641H114.891V114.334C114.414 114.526 113.965 114.664 113.543 114.75C113.121 114.836 112.654 114.879 112.143 114.879C110.822 114.879 109.811 114.582 109.107 113.989C108.404 113.395 108.053 112.549 108.053 111.451C108.053 110.365 108.385 109.506 109.049 108.873C109.717 108.237 110.631 107.918 111.791 107.918C112.861 107.918 113.666 108.19 114.205 108.733C114.744 109.272 115.014 110.049 115.014 111.065V111.803ZM112.916 110.567C112.904 110.125 112.795 109.793 112.588 109.571C112.381 109.348 112.059 109.237 111.621 109.237C111.215 109.237 110.881 109.342 110.619 109.553C110.357 109.764 110.211 110.102 110.18 110.567H112.916ZM122.936 110.039V114.703H120.814V111.416C120.814 111.096 120.807 110.824 120.791 110.602C120.775 110.375 120.732 110.192 120.662 110.051C120.592 109.91 120.484 109.809 120.34 109.746C120.199 109.68 120 109.647 119.742 109.647C119.535 109.647 119.334 109.69 119.139 109.776C118.943 109.858 118.768 109.946 118.611 110.039V114.703H116.502V108.123H118.611V108.85C118.975 108.565 119.322 108.342 119.654 108.182C119.986 108.022 120.354 107.942 120.756 107.942C121.189 107.942 121.572 108.039 121.904 108.235C122.236 108.426 122.496 108.709 122.684 109.084C123.105 108.729 123.516 108.449 123.914 108.246C124.312 108.043 124.703 107.942 125.086 107.942C125.797 107.942 126.336 108.155 126.703 108.58C127.074 109.006 127.26 109.619 127.26 110.42V114.703H125.139V111.416C125.139 111.092 125.131 110.819 125.115 110.596C125.104 110.373 125.062 110.192 124.992 110.051C124.926 109.91 124.82 109.809 124.676 109.746C124.531 109.68 124.328 109.647 124.066 109.647C123.891 109.647 123.719 109.678 123.551 109.74C123.383 109.799 123.178 109.899 122.936 110.039Z" fill="white"/>
<defs>
<linearGradient id="paint0_linear_288_57" x1="90" y1="0" x2="90" y2="195" gradientUnits="userSpaceOnUse">
<stop offset="0.5" stop-color="#A1A1A1"/>
<stop offset="1" stop-color="#3C3C3C"/>
</linearGradient>
<clipPath id="clip0_288_57">
<rect width="60" height="60" fill="white" transform="matrix(0.881901 -0.471434 0.708604 0.705606 42 47.286)"/>
</clipPath>
<clipPath id="clip1_288_57">
<rect width="60" height="60" fill="white" transform="matrix(0.992018 -0.126096 0.232263 0.972653 63.2676 39.2175)"/>
</clipPath>
</defs>
</svg>
