<svg width="180" height="195" viewBox="0 0 180 195" fill="none" xmlns="http://www.w3.org/2000/svg">
<path d="M104.4 61.7606H75.5997C74.2041 61.7606 73.0728 60.6293 73.0728 59.2337V32.5351C73.0728 31.1395 74.2041 30.0082 75.5997 30.0082H104.4C105.796 30.0082 106.927 31.1395 106.927 32.5351V59.2337C106.927 60.6292 105.796 61.7606 104.4 61.7606Z" fill="#E8E8E8"/>
<path d="M114.004 88.0131H65.9961C63.2514 88.0131 61.0264 85.788 61.0264 83.0434V57.742C61.0264 54.9973 63.2514 52.7722 65.9962 52.7722H114.004C116.749 52.7722 118.974 54.9973 118.974 57.742V83.0433C118.974 85.788 116.749 88.0131 114.004 88.0131Z" fill="#C5CFD1"/>
<path d="M110.514 61.7605C111.805 61.7605 112.851 60.714 112.851 59.4231C112.851 58.1322 111.805 57.0857 110.514 57.0857C109.223 57.0857 108.176 58.1322 108.176 59.4231C108.176 60.714 109.223 61.7605 110.514 61.7605Z" fill="white"/>
<path d="M103.835 61.7605C105.126 61.7605 106.172 60.714 106.172 59.4231C106.172 58.1322 105.126 57.0857 103.835 57.0857C102.544 57.0857 101.498 58.1322 101.498 59.4231C101.498 60.714 102.544 61.7605 103.835 61.7605Z" fill="#FF473E"/>
<path d="M104.423 65.0937H75.5773C72.4928 65.0937 69.9609 67.5621 69.9609 70.6466V87.9453H71.0156V88.0625H110.039V70.6466C110.039 67.5621 107.507 65.0937 104.423 65.0937ZM72.1875 77.0469V70.6466C72.1875 68.7518 73.6825 67.2031 75.5773 67.2031H104.423C106.318 67.2031 107.812 68.7518 107.812 70.6466V77.0469H72.1875ZM87.2311 37.0251H77.9023C77.7098 37.0217 77.5264 36.9428 77.3915 36.8055C77.2566 36.6681 77.181 36.4833 77.181 36.2908C77.181 36.0983 77.2566 35.9135 77.3915 35.7762C77.5264 35.6388 77.7098 35.56 77.9023 35.5565H87.2311C87.4236 35.56 87.607 35.6388 87.7419 35.7762C87.8768 35.9135 87.9524 36.0983 87.9524 36.2908C87.9524 36.4833 87.8768 36.6681 87.7419 36.8055C87.607 36.9428 87.4236 37.0217 87.2311 37.0251ZM103.379 36.2908C103.379 36.0961 103.302 35.9093 103.164 35.7716C103.026 35.6339 102.84 35.5565 102.645 35.5565H90.8382C90.6435 35.5565 90.4567 35.6339 90.319 35.7716C90.1813 35.9093 90.1039 36.0961 90.1039 36.2908C90.1039 36.4856 90.1813 36.6723 90.319 36.81C90.4567 36.9477 90.6435 37.0251 90.8382 37.0251H102.645C102.84 37.0251 103.026 36.9477 103.164 36.81C103.302 36.6723 103.379 36.4856 103.379 36.2908ZM101.953 47.5487C101.953 47.3539 101.876 47.1671 101.738 47.0294C101.6 46.8917 101.413 46.8144 101.219 46.8144H86.9371C86.7446 46.8178 86.5612 46.8967 86.4263 47.034C86.2914 47.1714 86.2158 47.3562 86.2158 47.5487C86.2158 47.7412 86.2914 47.926 86.4263 48.0633C86.5612 48.2007 86.7446 48.2795 86.9371 48.283H101.219C101.413 48.283 101.6 48.2056 101.738 48.0679C101.876 47.9302 101.953 47.7434 101.953 47.5487ZM98.5288 41.9198C98.5288 41.8234 98.5098 41.7279 98.4729 41.6388C98.436 41.5497 98.3819 41.4688 98.3137 41.4006C98.2455 41.3324 98.1646 41.2783 98.0755 41.2414C97.9864 41.2045 97.8909 41.1855 97.7945 41.1855H77.9021C77.7097 41.1889 77.5262 41.2678 77.3913 41.4052C77.2564 41.5425 77.1809 41.7273 77.1809 41.9198C77.1809 42.1123 77.2564 42.2971 77.3913 42.4345C77.5262 42.5718 77.7097 42.6507 77.9021 42.6541H97.7946C97.891 42.6541 97.9865 42.6351 98.0756 42.5982C98.1647 42.5613 98.2456 42.5072 98.3138 42.439C98.382 42.3708 98.436 42.2899 98.4729 42.2008C98.5098 42.1117 98.5288 42.0162 98.5288 41.9198ZM83.6795 47.5487C83.6795 47.3539 83.6021 47.1672 83.4644 47.0295C83.3267 46.8918 83.1399 46.8144 82.9452 46.8144H77.9021C77.7097 46.8178 77.5262 46.8967 77.3913 47.034C77.2564 47.1714 77.1809 47.3562 77.1809 47.5487C77.1809 47.7412 77.2564 47.926 77.3913 48.0633C77.5262 48.2007 77.7097 48.2795 77.9021 48.283H82.9452C83.1399 48.283 83.3267 48.2056 83.4644 48.0679C83.6021 47.9302 83.6795 47.7434 83.6795 47.5487Z" fill="#10264E"/>
<path d="M6.57422 114.703H1.46484V113.156H2.89453V107.526H1.46484V105.979H6.57422V107.526H5.14453V113.156H6.57422V114.703ZM14.9004 114.703H12.7793V111.44C12.7793 111.174 12.7656 110.91 12.7383 110.649C12.7109 110.383 12.6641 110.188 12.5977 110.063C12.5195 109.918 12.4043 109.813 12.252 109.746C12.1035 109.68 11.8945 109.647 11.625 109.647C11.4336 109.647 11.2383 109.678 11.0391 109.74C10.8438 109.803 10.6309 109.903 10.4004 110.039V114.703H8.29102V108.123H10.4004V108.85C10.7754 108.557 11.1348 108.332 11.4785 108.176C11.8262 108.02 12.2109 107.942 12.6328 107.942C13.3438 107.942 13.8984 108.149 14.2969 108.563C14.6992 108.977 14.9004 109.596 14.9004 110.42V114.703ZM23.4727 108.123L20.9355 114.703H18.5449L16.0254 108.123H18.2578L19.7812 112.647L21.2871 108.123H23.4727ZM31.1309 111.803H26.3027C26.334 112.319 26.5293 112.713 26.8887 112.987C27.252 113.26 27.7852 113.397 28.4883 113.397C28.9336 113.397 29.3652 113.317 29.7832 113.156C30.2012 112.996 30.5312 112.824 30.7734 112.641H31.0078V114.334C30.5312 114.526 30.082 114.664 29.6602 114.75C29.2383 114.836 28.7715 114.879 28.2598 114.879C26.9395 114.879 25.9277 114.582 25.2246 113.989C24.5215 113.395 24.1699 112.549 24.1699 111.451C24.1699 110.365 24.502 109.506 25.166 108.873C25.834 108.237 26.748 107.918 27.9082 107.918C28.9785 107.918 29.7832 108.19 30.3223 108.733C30.8613 109.272 31.1309 110.049 31.1309 111.065V111.803ZM29.0332 110.567C29.0215 110.125 28.9121 109.793 28.7051 109.571C28.498 109.348 28.1758 109.237 27.7383 109.237C27.332 109.237 26.998 109.342 26.7363 109.553C26.4746 109.764 26.3281 110.102 26.2969 110.567H29.0332ZM39.2285 114.703H37.1074V111.44C37.1074 111.174 37.0938 110.91 37.0664 110.649C37.0391 110.383 36.9922 110.188 36.9258 110.063C36.8477 109.918 36.7324 109.813 36.5801 109.746C36.4316 109.68 36.2227 109.647 35.9531 109.647C35.7617 109.647 35.5664 109.678 35.3672 109.74C35.1719 109.803 34.959 109.903 34.7285 110.039V114.703H32.6191V108.123H34.7285V108.85C35.1035 108.557 35.4629 108.332 35.8066 108.176C36.1543 108.02 36.5391 107.942 36.9609 107.942C37.6719 107.942 38.2266 108.149 38.625 108.563C39.0273 108.977 39.2285 109.596 39.2285 110.42V114.703ZM45.3809 114.645C45.1543 114.703 44.9141 114.748 44.6602 114.78C44.4062 114.815 44.0957 114.832 43.7285 114.832C42.9082 114.832 42.2969 114.666 41.8945 114.334C41.4961 114.002 41.2969 113.434 41.2969 112.629V109.553H40.4297V108.123H41.2969V106.242H43.4062V108.123H45.3809V109.553H43.4062V111.885C43.4062 112.115 43.4082 112.317 43.4121 112.489C43.416 112.66 43.4473 112.815 43.5059 112.951C43.5605 113.088 43.6562 113.198 43.793 113.28C43.9336 113.358 44.1367 113.397 44.4023 113.397C44.5117 113.397 44.6543 113.373 44.8301 113.326C45.0098 113.28 45.1348 113.237 45.2051 113.198H45.3809V114.645ZM50.6309 112.987V111.615C50.3457 111.639 50.0371 111.672 49.7051 111.715C49.373 111.754 49.1211 111.801 48.9492 111.856C48.7383 111.922 48.5762 112.02 48.4629 112.149C48.3535 112.274 48.2988 112.44 48.2988 112.647C48.2988 112.783 48.3105 112.895 48.334 112.981C48.3574 113.067 48.416 113.149 48.5098 113.227C48.5996 113.305 48.707 113.364 48.832 113.403C48.957 113.438 49.1523 113.455 49.418 113.455C49.6289 113.455 49.8418 113.412 50.0566 113.326C50.2754 113.24 50.4668 113.127 50.6309 112.987ZM50.6309 114.006C50.5176 114.092 50.377 114.196 50.209 114.317C50.041 114.438 49.8828 114.533 49.7344 114.604C49.5273 114.698 49.3125 114.766 49.0898 114.809C48.8672 114.856 48.623 114.879 48.3574 114.879C47.7324 114.879 47.209 114.686 46.7871 114.299C46.3652 113.912 46.1543 113.418 46.1543 112.817C46.1543 112.336 46.2617 111.944 46.4766 111.639C46.6914 111.334 46.9961 111.094 47.3906 110.918C47.7812 110.742 48.2656 110.617 48.8438 110.543C49.4219 110.469 50.0215 110.414 50.6426 110.379V110.344C50.6426 109.981 50.4941 109.731 50.1973 109.594C49.9004 109.453 49.4629 109.383 48.8848 109.383C48.5371 109.383 48.166 109.446 47.7715 109.571C47.377 109.692 47.0938 109.785 46.9219 109.852H46.7285V108.264C46.9512 108.205 47.3125 108.137 47.8125 108.059C48.3164 107.977 48.8203 107.936 49.3242 107.936C50.5234 107.936 51.3887 108.121 51.9199 108.492C52.4551 108.86 52.7227 109.438 52.7227 110.227V114.703H50.6309V114.006ZM51.7617 104.883V105L49.6992 107.186H48.2578L49.7051 104.883H51.7617ZM59.4316 110.133H59.2441C59.1543 110.102 59.0098 110.078 58.8105 110.063C58.6113 110.047 58.4453 110.039 58.3125 110.039C58.0117 110.039 57.7461 110.059 57.5156 110.098C57.2852 110.137 57.0371 110.203 56.7715 110.297V114.703H54.6621V108.123H56.7715V109.09C57.2363 108.692 57.6406 108.428 57.9844 108.299C58.3281 108.166 58.6445 108.1 58.9336 108.1C59.0078 108.1 59.0918 108.102 59.1855 108.106C59.2793 108.11 59.3613 108.115 59.4316 108.123V110.133ZM62.7363 114.703H60.627V108.123H62.7363V114.703ZM62.7949 107.186H60.5684V105.586H62.7949V107.186ZM71.4551 111.416C71.4551 112.498 71.1387 113.352 70.5059 113.977C69.877 114.598 68.9922 114.908 67.8516 114.908C66.7109 114.908 65.8242 114.598 65.1914 113.977C64.5625 113.352 64.248 112.498 64.248 111.416C64.248 110.326 64.5645 109.471 65.1973 108.85C65.834 108.229 66.7188 107.918 67.8516 107.918C69 107.918 69.8867 108.231 70.5117 108.856C71.1406 109.481 71.4551 110.334 71.4551 111.416ZM68.8594 113.016C68.9961 112.848 69.0977 112.647 69.1641 112.412C69.2344 112.174 69.2695 111.846 69.2695 111.428C69.2695 111.041 69.2344 110.717 69.1641 110.455C69.0938 110.194 68.9961 109.985 68.8711 109.828C68.7461 109.668 68.5957 109.555 68.4199 109.489C68.2441 109.422 68.0547 109.389 67.8516 109.389C67.6484 109.389 67.4668 109.416 67.3066 109.471C67.1504 109.526 67 109.635 66.8555 109.799C66.7266 109.951 66.623 110.16 66.5449 110.426C66.4707 110.692 66.4336 111.026 66.4336 111.428C66.4336 111.787 66.4668 112.1 66.5332 112.365C66.5996 112.627 66.6973 112.838 66.8262 112.998C66.9512 113.151 67.0996 113.262 67.2715 113.332C67.4473 113.403 67.6465 113.438 67.8691 113.438C68.0605 113.438 68.2422 113.406 68.4141 113.344C68.5898 113.278 68.7383 113.168 68.8594 113.016ZM83.4668 114.703H81.3574V114.018C80.9941 114.315 80.6543 114.533 80.3379 114.674C80.0215 114.815 79.6562 114.885 79.2422 114.885C78.4414 114.885 77.8008 114.576 77.3203 113.959C76.8398 113.342 76.5996 112.51 76.5996 111.463C76.5996 110.905 76.6797 110.41 76.8398 109.981C77.0039 109.547 77.2266 109.176 77.5078 108.867C77.7734 108.574 78.0957 108.348 78.4746 108.188C78.8535 108.024 79.2324 107.942 79.6113 107.942C80.0059 107.942 80.3281 107.985 80.5781 108.071C80.832 108.153 81.0918 108.258 81.3574 108.387V105.586H83.4668V114.703ZM81.3574 112.887V109.658C81.209 109.596 81.0527 109.551 80.8887 109.524C80.7246 109.496 80.5742 109.483 80.4375 109.483C79.8828 109.483 79.4668 109.656 79.1895 110.004C78.9121 110.348 78.7734 110.826 78.7734 111.44C78.7734 112.084 78.8848 112.553 79.1074 112.846C79.3301 113.135 79.6875 113.28 80.1797 113.28C80.3711 113.28 80.5742 113.244 80.7891 113.174C81.0039 113.1 81.1934 113.004 81.3574 112.887ZM91.9395 111.803H87.1113C87.1426 112.319 87.3379 112.713 87.6973 112.987C88.0605 113.26 88.5938 113.397 89.2969 113.397C89.7422 113.397 90.1738 113.317 90.5918 113.156C91.0098 112.996 91.3398 112.824 91.582 112.641H91.8164V114.334C91.3398 114.526 90.8906 114.664 90.4688 114.75C90.0469 114.836 89.5801 114.879 89.0684 114.879C87.748 114.879 86.7363 114.582 86.0332 113.989C85.3301 113.395 84.9785 112.549 84.9785 111.451C84.9785 110.365 85.3105 109.506 85.9746 108.873C86.6426 108.237 87.5566 107.918 88.7168 107.918C89.7871 107.918 90.5918 108.19 91.1309 108.733C91.6699 109.272 91.9395 110.049 91.9395 111.065V111.803ZM89.8418 110.567C89.8301 110.125 89.7207 109.793 89.5137 109.571C89.3066 109.348 88.9844 109.237 88.5469 109.237C88.1406 109.237 87.8066 109.342 87.5449 109.553C87.2832 109.764 87.1367 110.102 87.1055 110.567H89.8418ZM99.6387 114.703H97.5293V108.123H99.6387V114.703ZM99.6973 107.186H97.4707V105.586H99.6973V107.186ZM108.064 110.039V114.703H105.943V111.416C105.943 111.096 105.936 110.824 105.92 110.602C105.904 110.375 105.861 110.192 105.791 110.051C105.721 109.91 105.613 109.809 105.469 109.746C105.328 109.68 105.129 109.647 104.871 109.647C104.664 109.647 104.463 109.69 104.268 109.776C104.072 109.858 103.896 109.946 103.74 110.039V114.703H101.631V108.123H103.74V108.85C104.104 108.565 104.451 108.342 104.783 108.182C105.115 108.022 105.482 107.942 105.885 107.942C106.318 107.942 106.701 108.039 107.033 108.235C107.365 108.426 107.625 108.709 107.812 109.084C108.234 108.729 108.645 108.449 109.043 108.246C109.441 108.043 109.832 107.942 110.215 107.942C110.926 107.942 111.465 108.155 111.832 108.58C112.203 109.006 112.389 109.619 112.389 110.42V114.703H110.268V111.416C110.268 111.092 110.26 110.819 110.244 110.596C110.232 110.373 110.191 110.192 110.121 110.051C110.055 109.91 109.949 109.809 109.805 109.746C109.66 109.68 109.457 109.647 109.195 109.647C109.02 109.647 108.848 109.678 108.68 109.74C108.512 109.799 108.307 109.899 108.064 110.039ZM121.201 111.323C121.201 111.865 121.117 112.36 120.949 112.805C120.785 113.25 120.568 113.617 120.299 113.906C120.018 114.211 119.699 114.442 119.344 114.598C118.988 114.754 118.607 114.832 118.201 114.832C117.826 114.832 117.508 114.791 117.246 114.709C116.984 114.631 116.717 114.52 116.443 114.375V117.117H114.334V108.123H116.443V108.809C116.768 108.551 117.098 108.342 117.434 108.182C117.773 108.022 118.164 107.942 118.605 107.942C119.426 107.942 120.062 108.242 120.516 108.844C120.973 109.446 121.201 110.272 121.201 111.323ZM119.027 111.364C119.027 110.723 118.918 110.258 118.699 109.969C118.48 109.68 118.135 109.535 117.662 109.535C117.463 109.535 117.258 109.567 117.047 109.629C116.836 109.688 116.635 109.774 116.443 109.887V113.198C116.584 113.252 116.734 113.287 116.895 113.303C117.055 113.319 117.213 113.326 117.369 113.326C117.928 113.326 118.344 113.164 118.617 112.84C118.891 112.512 119.027 112.02 119.027 111.364ZM127.494 110.133H127.307C127.217 110.102 127.072 110.078 126.873 110.063C126.674 110.047 126.508 110.039 126.375 110.039C126.074 110.039 125.809 110.059 125.578 110.098C125.348 110.137 125.1 110.203 124.834 110.297V114.703H122.725V108.123H124.834V109.09C125.299 108.692 125.703 108.428 126.047 108.299C126.391 108.166 126.707 108.1 126.996 108.1C127.07 108.1 127.154 108.102 127.248 108.106C127.342 108.11 127.424 108.115 127.494 108.123V110.133ZM135.17 111.803H130.342C130.373 112.319 130.568 112.713 130.928 112.987C131.291 113.26 131.824 113.397 132.527 113.397C132.973 113.397 133.404 113.317 133.822 113.156C134.24 112.996 134.57 112.824 134.812 112.641H135.047V114.334C134.57 114.526 134.121 114.664 133.699 114.75C133.277 114.836 132.811 114.879 132.299 114.879C130.979 114.879 129.967 114.582 129.264 113.989C128.561 113.395 128.209 112.549 128.209 111.451C128.209 110.365 128.541 109.506 129.205 108.873C129.873 108.237 130.787 107.918 131.947 107.918C133.018 107.918 133.822 108.19 134.361 108.733C134.9 109.272 135.17 110.049 135.17 111.065V111.803ZM133.072 110.567C133.061 110.125 132.951 109.793 132.744 109.571C132.537 109.348 132.215 109.237 131.777 109.237C131.371 109.237 131.037 109.342 130.775 109.553C130.514 109.764 130.367 110.102 130.336 110.567H133.072ZM142.377 112.617C142.377 113.297 142.072 113.846 141.463 114.264C140.854 114.678 140.02 114.885 138.961 114.885C138.375 114.885 137.844 114.83 137.367 114.721C136.891 114.612 136.508 114.49 136.219 114.358V112.623H136.412C136.518 112.698 136.639 112.78 136.775 112.869C136.916 112.955 137.113 113.049 137.367 113.151C137.586 113.24 137.834 113.319 138.111 113.385C138.389 113.448 138.686 113.479 139.002 113.479C139.416 113.479 139.723 113.434 139.922 113.344C140.121 113.25 140.221 113.114 140.221 112.934C140.221 112.774 140.162 112.658 140.045 112.588C139.928 112.514 139.705 112.444 139.377 112.377C139.221 112.342 139.008 112.305 138.738 112.266C138.473 112.223 138.23 112.172 138.012 112.114C137.414 111.957 136.971 111.715 136.682 111.387C136.393 111.055 136.248 110.643 136.248 110.151C136.248 109.518 136.547 108.992 137.145 108.574C137.746 108.153 138.566 107.942 139.605 107.942C140.098 107.942 140.568 107.992 141.018 108.094C141.471 108.192 141.824 108.297 142.078 108.41V110.074H141.896C141.584 109.86 141.227 109.686 140.824 109.553C140.426 109.416 140.021 109.348 139.611 109.348C139.271 109.348 138.984 109.395 138.75 109.489C138.52 109.582 138.404 109.715 138.404 109.887C138.404 110.043 138.457 110.162 138.562 110.244C138.668 110.326 138.916 110.408 139.307 110.49C139.521 110.533 139.752 110.576 139.998 110.619C140.248 110.658 140.498 110.709 140.748 110.772C141.303 110.916 141.713 111.145 141.979 111.457C142.244 111.766 142.377 112.153 142.377 112.617ZM149.502 112.617C149.502 113.297 149.197 113.846 148.588 114.264C147.979 114.678 147.145 114.885 146.086 114.885C145.5 114.885 144.969 114.83 144.492 114.721C144.016 114.612 143.633 114.49 143.344 114.358V112.623H143.537C143.643 112.698 143.764 112.78 143.9 112.869C144.041 112.955 144.238 113.049 144.492 113.151C144.711 113.24 144.959 113.319 145.236 113.385C145.514 113.448 145.811 113.479 146.127 113.479C146.541 113.479 146.848 113.434 147.047 113.344C147.246 113.25 147.346 113.114 147.346 112.934C147.346 112.774 147.287 112.658 147.17 112.588C147.053 112.514 146.83 112.444 146.502 112.377C146.346 112.342 146.133 112.305 145.863 112.266C145.598 112.223 145.355 112.172 145.137 112.114C144.539 111.957 144.096 111.715 143.807 111.387C143.518 111.055 143.373 110.643 143.373 110.151C143.373 109.518 143.672 108.992 144.27 108.574C144.871 108.153 145.691 107.942 146.73 107.942C147.223 107.942 147.693 107.992 148.143 108.094C148.596 108.192 148.949 108.297 149.203 108.41V110.074H149.021C148.709 109.86 148.352 109.686 147.949 109.553C147.551 109.416 147.146 109.348 146.736 109.348C146.396 109.348 146.109 109.395 145.875 109.489C145.645 109.582 145.529 109.715 145.529 109.887C145.529 110.043 145.582 110.162 145.688 110.244C145.793 110.326 146.041 110.408 146.432 110.49C146.646 110.533 146.877 110.576 147.123 110.619C147.373 110.658 147.623 110.709 147.873 110.772C148.428 110.916 148.838 111.145 149.104 111.457C149.369 111.766 149.502 112.153 149.502 112.617ZM157.635 111.416C157.635 112.498 157.318 113.352 156.686 113.977C156.057 114.598 155.172 114.908 154.031 114.908C152.891 114.908 152.004 114.598 151.371 113.977C150.742 113.352 150.428 112.498 150.428 111.416C150.428 110.326 150.744 109.471 151.377 108.85C152.014 108.229 152.898 107.918 154.031 107.918C155.18 107.918 156.066 108.231 156.691 108.856C157.32 109.481 157.635 110.334 157.635 111.416ZM155.039 113.016C155.176 112.848 155.277 112.647 155.344 112.412C155.414 112.174 155.449 111.846 155.449 111.428C155.449 111.041 155.414 110.717 155.344 110.455C155.273 110.194 155.176 109.985 155.051 109.828C154.926 109.668 154.775 109.555 154.6 109.489C154.424 109.422 154.234 109.389 154.031 109.389C153.828 109.389 153.646 109.416 153.486 109.471C153.33 109.526 153.18 109.635 153.035 109.799C152.906 109.951 152.803 110.16 152.725 110.426C152.65 110.692 152.613 111.026 152.613 111.428C152.613 111.787 152.646 112.1 152.713 112.365C152.779 112.627 152.877 112.838 153.006 112.998C153.131 113.151 153.279 113.262 153.451 113.332C153.627 113.403 153.826 113.438 154.049 113.438C154.24 113.438 154.422 113.406 154.594 113.344C154.77 113.278 154.918 113.168 155.039 113.016ZM163.916 110.133H163.729C163.639 110.102 163.494 110.078 163.295 110.063C163.096 110.047 162.93 110.039 162.797 110.039C162.496 110.039 162.23 110.059 162 110.098C161.77 110.137 161.521 110.203 161.256 110.297V114.703H159.146V108.123H161.256V109.09C161.721 108.692 162.125 108.428 162.469 108.299C162.812 108.166 163.129 108.1 163.418 108.1C163.492 108.1 163.576 108.102 163.67 108.106C163.764 108.11 163.846 108.115 163.916 108.123V110.133ZM169.096 112.987V111.615C168.811 111.639 168.502 111.672 168.17 111.715C167.838 111.754 167.586 111.801 167.414 111.856C167.203 111.922 167.041 112.02 166.928 112.149C166.818 112.274 166.764 112.44 166.764 112.647C166.764 112.783 166.775 112.895 166.799 112.981C166.822 113.067 166.881 113.149 166.975 113.227C167.064 113.305 167.172 113.364 167.297 113.403C167.422 113.438 167.617 113.455 167.883 113.455C168.094 113.455 168.307 113.412 168.521 113.326C168.74 113.24 168.932 113.127 169.096 112.987ZM169.096 114.006C168.982 114.092 168.842 114.196 168.674 114.317C168.506 114.438 168.348 114.533 168.199 114.604C167.992 114.698 167.777 114.766 167.555 114.809C167.332 114.856 167.088 114.879 166.822 114.879C166.197 114.879 165.674 114.686 165.252 114.299C164.83 113.912 164.619 113.418 164.619 112.817C164.619 112.336 164.727 111.944 164.941 111.639C165.156 111.334 165.461 111.094 165.855 110.918C166.246 110.742 166.73 110.617 167.309 110.543C167.887 110.469 168.486 110.414 169.107 110.379V110.344C169.107 109.981 168.959 109.731 168.662 109.594C168.365 109.453 167.928 109.383 167.35 109.383C167.002 109.383 166.631 109.446 166.236 109.571C165.842 109.692 165.559 109.785 165.387 109.852H165.193V108.264C165.416 108.205 165.777 108.137 166.277 108.059C166.781 107.977 167.285 107.936 167.789 107.936C168.988 107.936 169.854 108.121 170.385 108.492C170.92 108.86 171.188 109.438 171.188 110.227V114.703H169.096V114.006ZM178.846 112.617C178.846 113.297 178.541 113.846 177.932 114.264C177.322 114.678 176.488 114.885 175.43 114.885C174.844 114.885 174.312 114.83 173.836 114.721C173.359 114.612 172.977 114.49 172.688 114.358V112.623H172.881C172.986 112.698 173.107 112.78 173.244 112.869C173.385 112.955 173.582 113.049 173.836 113.151C174.055 113.24 174.303 113.319 174.58 113.385C174.857 113.448 175.154 113.479 175.471 113.479C175.885 113.479 176.191 113.434 176.391 113.344C176.59 113.25 176.689 113.114 176.689 112.934C176.689 112.774 176.631 112.658 176.514 112.588C176.396 112.514 176.174 112.444 175.846 112.377C175.689 112.342 175.477 112.305 175.207 112.266C174.941 112.223 174.699 112.172 174.48 112.114C173.883 111.957 173.439 111.715 173.15 111.387C172.861 111.055 172.717 110.643 172.717 110.151C172.717 109.518 173.016 108.992 173.613 108.574C174.215 108.153 175.035 107.942 176.074 107.942C176.566 107.942 177.037 107.992 177.486 108.094C177.939 108.192 178.293 108.297 178.547 108.41V110.074H178.365C178.053 109.86 177.695 109.686 177.293 109.553C176.895 109.416 176.49 109.348 176.08 109.348C175.74 109.348 175.453 109.395 175.219 109.489C174.988 109.582 174.873 109.715 174.873 109.887C174.873 110.043 174.926 110.162 175.031 110.244C175.137 110.326 175.385 110.408 175.775 110.49C175.99 110.533 176.221 110.576 176.467 110.619C176.717 110.658 176.967 110.709 177.217 110.772C177.771 110.916 178.182 111.145 178.447 111.457C178.713 111.766 178.846 112.153 178.846 112.617Z" fill="white"/>
</svg>
