<svg width="330" height="505" viewBox="0 0 330 505" fill="none" xmlns="http://www.w3.org/2000/svg">
<rect width="330" height="505" rx="25" fill="url(#paint0_linear_288_57)" fill-opacity="0.85098"/>
<g clip-path="url(#clip0_288_57)">
<path d="M202.323 74.7273L162.091 105.107C160.452 106.345 159.563 108.247 159.517 110.19C159.512 110.451 159.449 110.706 159.332 110.938C159.215 111.169 159.049 111.369 158.845 111.523C158.641 111.677 158.405 111.781 158.156 111.825C157.907 111.87 157.651 111.855 157.409 111.782C155.597 111.241 153.57 111.542 151.931 112.78L79.7534 167.282C76.2158 169.954 75.4493 175.075 78.0412 178.72L121.958 240.495C124.55 244.141 129.519 244.931 133.057 242.26L205.234 187.757C206.873 186.519 207.762 184.618 207.808 182.675C207.813 182.414 207.876 182.158 207.993 181.927C208.11 181.696 208.276 181.496 208.48 181.342C208.684 181.188 208.92 181.084 209.169 181.039C209.418 180.994 209.674 181.009 209.916 181.083C211.728 181.623 213.755 181.323 215.394 180.085L255.626 149.705C259.164 147.033 259.931 141.912 257.339 138.267L213.421 76.4921C210.83 72.846 205.861 72.056 202.323 74.7273ZM206.295 169.497C206.511 169.8 206.666 170.143 206.752 170.507C206.838 170.871 206.854 171.249 206.799 171.62C206.743 171.99 206.618 172.346 206.429 172.666C206.24 172.987 205.992 173.265 205.698 173.487L202.052 176.24C201.759 176.462 201.426 176.622 201.073 176.711C200.719 176.8 200.352 176.816 199.993 176.759C199.633 176.702 199.288 176.572 198.977 176.378C198.666 176.183 198.396 175.927 198.181 175.625L192.7 167.916C192.485 167.613 192.33 167.27 192.244 166.906C192.157 166.542 192.141 166.164 192.197 165.793C192.252 165.423 192.378 165.067 192.567 164.747C192.756 164.426 193.004 164.147 193.298 163.926L196.944 161.173C197.237 160.951 197.57 160.791 197.923 160.702C198.277 160.613 198.643 160.597 199.003 160.654C199.363 160.711 199.708 160.841 200.018 161.035C200.329 161.23 200.6 161.486 200.815 161.788L206.295 169.497ZM190.46 147.223C190.675 147.525 190.83 147.868 190.917 148.233C191.003 148.597 191.019 148.975 190.964 149.345C190.908 149.716 190.782 150.072 190.594 150.392C190.405 150.712 190.156 150.991 189.863 151.213L186.217 153.966C185.924 154.188 185.591 154.348 185.237 154.437C184.884 154.526 184.517 154.542 184.158 154.485C183.798 154.428 183.453 154.298 183.142 154.103C182.831 153.909 182.561 153.653 182.346 153.35L176.865 145.642C176.65 145.339 176.495 144.996 176.409 144.632C176.322 144.268 176.306 143.89 176.362 143.519C176.417 143.149 176.543 142.793 176.732 142.473C176.921 142.152 177.169 141.873 177.462 141.652L181.108 138.899C181.402 138.677 181.735 138.517 182.088 138.428C182.441 138.339 182.808 138.323 183.168 138.38C183.527 138.437 183.872 138.567 184.183 138.761C184.494 138.956 184.765 139.212 184.98 139.514L190.46 147.223ZM174.625 124.949C174.84 125.251 174.995 125.594 175.081 125.958C175.168 126.322 175.184 126.7 175.128 127.071C175.073 127.441 174.947 127.797 174.758 128.118C174.569 128.438 174.321 128.717 174.027 128.938L170.381 131.692C170.088 131.913 169.755 132.073 169.402 132.162C169.048 132.251 168.681 132.268 168.322 132.21C167.962 132.153 167.617 132.024 167.307 131.829C166.996 131.634 166.725 131.378 166.51 131.076L161.03 123.367C160.815 123.065 160.659 122.722 160.573 122.358C160.487 121.993 160.471 121.615 160.526 121.245C160.582 120.874 160.707 120.519 160.896 120.198C161.085 119.878 161.333 119.599 161.627 119.377L165.273 116.624C165.566 116.403 165.899 116.243 166.253 116.154C166.606 116.065 166.973 116.048 167.332 116.105C167.692 116.163 168.037 116.292 168.348 116.487C168.659 116.681 168.929 116.937 169.144 117.24L174.625 124.949Z" fill="white"/>
<path d="M237.208 123.616L203.678 148.935C203.01 149.439 202.175 149.65 201.357 149.52C200.538 149.389 199.803 148.929 199.314 148.241L171.941 109.739C171.452 109.05 171.248 108.19 171.374 107.346C171.5 106.502 171.947 105.745 172.615 105.241L206.145 79.9213C206.813 79.4169 207.648 79.2066 208.467 79.3367C209.285 79.4669 210.02 79.9268 210.51 80.6153L237.882 119.118C238.901 120.551 238.6 122.565 237.208 123.616ZM149.693 134.752C149.231 134.102 148.537 133.668 147.763 133.545C146.99 133.422 146.202 133.62 145.571 134.097L92.2717 174.344C91.6407 174.821 91.2192 175.536 91.1 176.333C90.9807 177.129 91.1734 177.942 91.6357 178.593C92.0981 179.243 92.7921 179.677 93.5652 179.8C94.3383 179.923 95.1271 179.724 95.7581 179.248L149.057 139.001C149.369 138.765 149.634 138.468 149.835 138.127C150.036 137.786 150.17 137.407 150.229 137.012C150.288 136.618 150.271 136.215 150.179 135.827C150.087 135.44 149.922 135.074 149.693 134.752ZM144.72 160.567C144.258 159.916 143.564 159.482 142.791 159.359C142.018 159.236 141.229 159.435 140.598 159.911L102.476 188.698C101.845 189.174 101.424 189.889 101.305 190.686C101.185 191.483 101.378 192.296 101.84 192.946C102.303 193.596 102.997 194.031 103.77 194.154C104.543 194.277 105.332 194.078 105.963 193.602L144.084 164.815C144.715 164.339 145.137 163.623 145.256 162.827C145.375 162.03 145.183 161.217 144.72 160.567ZM170.102 163.46C169.64 162.809 168.945 162.375 168.172 162.252C167.399 162.129 166.61 162.328 165.979 162.804L112.681 203.051C112.05 203.528 111.628 204.243 111.509 205.04C111.39 205.837 111.582 206.65 112.045 207.3C112.507 207.95 113.201 208.385 113.974 208.508C114.747 208.631 115.536 208.432 116.167 207.955L169.466 167.708C170.097 167.232 170.518 166.517 170.638 165.72C170.757 164.923 170.564 164.11 170.102 163.46Z" fill="#10264E"/>
<path d="M185.549 190.212L132.139 230.542C130.677 231.647 128.622 231.32 127.55 229.813L122.785 223.11C121.714 221.603 122.03 219.485 123.493 218.381L176.903 178.05C178.365 176.946 180.42 177.272 181.492 178.78L186.257 185.482C187.329 186.989 187.012 189.107 185.549 190.212Z" fill="white"/>
</g>
<g clip-path="url(#clip1_288_57)">
<path d="M248.952 132.54L199.817 141.362C197.815 141.722 196.199 143.019 195.322 144.74C195.205 144.971 195.038 145.171 194.834 145.325C194.63 145.479 194.394 145.582 194.145 145.627C193.896 145.671 193.64 145.656 193.398 145.583C193.155 145.509 192.933 145.379 192.747 145.202C191.356 143.888 189.41 143.231 187.408 143.59L99.2582 159.418C94.9378 160.194 92.0457 164.432 92.7984 168.885L105.552 244.33C106.305 248.782 110.417 251.763 114.738 250.987L202.887 235.16C204.889 234.8 206.505 233.503 207.383 231.782C207.499 231.551 207.666 231.351 207.87 231.197C208.074 231.043 208.31 230.94 208.559 230.895C208.808 230.851 209.064 230.866 209.306 230.939C209.549 231.013 209.772 231.143 209.957 231.32C211.348 232.633 213.294 233.291 215.296 232.932L264.432 224.109C268.752 223.333 271.644 219.095 270.891 214.642L258.138 139.197C257.385 134.745 253.273 131.764 248.952 132.54ZM211.702 219.282C211.764 219.651 211.756 220.03 211.676 220.396C211.597 220.761 211.448 221.108 211.239 221.414C211.03 221.721 210.764 221.982 210.457 222.183C210.15 222.384 209.807 222.52 209.449 222.584L204.996 223.384C204.637 223.448 204.27 223.439 203.915 223.357C203.56 223.276 203.224 223.122 202.927 222.907C202.629 222.691 202.376 222.417 202.181 222.101C201.986 221.784 201.854 221.431 201.792 221.062L200.2 211.646C200.137 211.277 200.146 210.899 200.226 210.533C200.305 210.167 200.454 209.821 200.663 209.514C200.872 209.208 201.138 208.946 201.445 208.746C201.752 208.545 202.095 208.409 202.453 208.344L206.906 207.545C207.265 207.48 207.632 207.489 207.987 207.571C208.342 207.653 208.678 207.806 208.975 208.022C209.273 208.237 209.526 208.511 209.721 208.828C209.916 209.145 210.048 209.498 210.11 209.867L211.702 219.282ZM207.103 192.079C207.166 192.448 207.157 192.826 207.078 193.192C206.998 193.558 206.85 193.904 206.64 194.211C206.431 194.518 206.165 194.779 205.858 194.98C205.551 195.18 205.208 195.317 204.85 195.381L200.397 196.18C200.039 196.245 199.672 196.236 199.317 196.154C198.962 196.072 198.626 195.919 198.328 195.703C198.031 195.488 197.777 195.214 197.582 194.897C197.388 194.581 197.255 194.227 197.193 193.858L195.601 184.443C195.539 184.074 195.548 183.696 195.627 183.33C195.706 182.964 195.855 182.618 196.064 182.311C196.274 182.005 196.539 181.743 196.847 181.543C197.154 181.342 197.496 181.206 197.855 181.141L202.308 180.342C202.666 180.277 203.033 180.286 203.388 180.368C203.743 180.45 204.079 180.603 204.376 180.819C204.674 181.034 204.927 181.308 205.122 181.625C205.317 181.942 205.449 182.295 205.512 182.664L207.103 192.079ZM202.505 164.875C202.567 165.244 202.558 165.623 202.479 165.989C202.4 166.354 202.251 166.701 202.042 167.007C201.832 167.314 201.567 167.575 201.259 167.776C200.952 167.977 200.61 168.113 200.251 168.177L195.798 168.977C195.44 169.041 195.073 169.032 194.718 168.95C194.363 168.869 194.027 168.715 193.729 168.5C193.432 168.284 193.179 168.01 192.984 167.694C192.789 167.377 192.657 167.024 192.594 166.654L191.003 157.24C190.94 156.87 190.949 156.492 191.028 156.126C191.108 155.76 191.256 155.414 191.466 155.108C191.675 154.801 191.941 154.54 192.248 154.339C192.555 154.138 192.898 154.002 193.256 153.938L197.709 153.138C198.067 153.074 198.434 153.083 198.789 153.164C199.144 153.246 199.48 153.399 199.778 153.615C200.075 153.831 200.329 154.105 200.524 154.421C200.718 154.738 200.851 155.091 200.913 155.46L202.505 164.875Z" fill="#D5DEE4"/>
<path d="M259.161 192.306L218.211 199.659C217.395 199.805 216.556 199.612 215.879 199.121C215.201 198.63 214.741 197.881 214.599 197.04L206.65 150.018C206.508 149.177 206.695 148.312 207.172 147.614C207.648 146.916 208.374 146.441 209.19 146.295L250.14 138.942C250.956 138.796 251.795 138.989 252.473 139.48C253.15 139.971 253.61 140.719 253.753 141.56L261.702 188.583C261.998 190.334 260.86 192.001 259.161 192.306ZM175.941 162.257C175.807 161.463 175.372 160.756 174.732 160.292C174.092 159.828 173.3 159.646 172.529 159.784L107.435 171.472C106.665 171.61 105.979 172.059 105.529 172.718C105.079 173.377 104.902 174.194 105.036 174.988C105.17 175.783 105.605 176.489 106.245 176.953C106.885 177.417 107.677 177.6 108.448 177.461L173.541 165.773C173.923 165.705 174.288 165.559 174.615 165.346C174.942 165.132 175.225 164.854 175.448 164.527C175.671 164.201 175.829 163.832 175.913 163.443C175.998 163.053 176.007 162.65 175.941 162.257ZM160.369 183.115C160.234 182.321 159.799 181.614 159.16 181.151C158.52 180.687 157.727 180.504 156.957 180.642L110.399 189.002C109.628 189.14 108.943 189.589 108.493 190.248C108.043 190.907 107.865 191.724 108 192.518C108.134 193.313 108.569 194.019 109.209 194.483C109.848 194.947 110.641 195.13 111.411 194.991L157.969 186.632C158.74 186.493 159.426 186.045 159.875 185.386C160.325 184.726 160.503 183.909 160.369 183.115ZM181.868 197.317C181.733 196.523 181.299 195.816 180.659 195.352C180.019 194.889 179.226 194.706 178.456 194.844L113.362 206.532C112.591 206.671 111.906 207.119 111.456 207.778C111.006 208.438 110.828 209.254 110.963 210.049C111.097 210.843 111.532 211.549 112.172 212.013C112.812 212.477 113.604 212.66 114.375 212.521L179.468 200.833C180.239 200.695 180.925 200.247 181.375 199.587C181.825 198.928 182.002 198.111 181.868 197.317Z" fill="#597B91"/>
<path d="M184.191 228.356L118.962 240.068C117.176 240.389 115.475 239.156 115.164 237.315L113.78 229.129C113.469 227.288 114.664 225.536 116.451 225.215L181.68 213.503C183.466 213.182 185.167 214.414 185.478 216.256L186.862 224.441C187.173 226.282 185.977 228.035 184.191 228.356Z" fill="#ACB6BC"/>
</g>
<path d="M115.615 287.753C115.615 288.456 115.472 289.084 115.186 289.638C114.906 290.191 114.518 290.65 114.023 291.015C113.451 291.444 112.819 291.75 112.129 291.933C111.445 292.115 110.576 292.206 109.521 292.206H103.174V277.665H108.818C109.99 277.665 110.846 277.704 111.387 277.782C111.934 277.86 112.474 278.033 113.008 278.3C113.561 278.58 113.971 278.957 114.238 279.433C114.512 279.901 114.648 280.438 114.648 281.044C114.648 281.747 114.463 282.369 114.092 282.909C113.721 283.443 113.197 283.86 112.52 284.159V284.237C113.47 284.426 114.222 284.817 114.775 285.409C115.335 286.002 115.615 286.783 115.615 287.753ZM110.811 281.776C110.811 281.535 110.749 281.295 110.625 281.054C110.508 280.813 110.296 280.634 109.99 280.517C109.717 280.412 109.375 280.357 108.965 280.351C108.561 280.338 107.992 280.331 107.256 280.331H106.904V283.407H107.49C108.083 283.407 108.587 283.397 109.004 283.378C109.421 283.358 109.749 283.293 109.99 283.183C110.329 283.033 110.55 282.841 110.654 282.606C110.758 282.366 110.811 282.089 110.811 281.776ZM111.729 287.694C111.729 287.232 111.637 286.877 111.455 286.63C111.279 286.376 110.977 286.187 110.547 286.063C110.254 285.979 109.85 285.933 109.336 285.927C108.822 285.92 108.285 285.917 107.725 285.917H106.904V289.54H107.178C108.232 289.54 108.988 289.537 109.443 289.53C109.899 289.524 110.319 289.439 110.703 289.276C111.094 289.114 111.361 288.899 111.504 288.632C111.654 288.358 111.729 288.046 111.729 287.694ZM121.729 292.206H118.213V281.239H121.729V292.206ZM121.826 279.677H118.115V277.011H121.826V279.677ZM128.564 292.206H125.049V277.011H128.564V292.206ZM142.9 292.206H139.365V286.767C139.365 286.324 139.342 285.884 139.297 285.448C139.251 285.006 139.173 284.68 139.062 284.472C138.932 284.231 138.74 284.055 138.486 283.944C138.239 283.834 137.891 283.778 137.441 283.778C137.122 283.778 136.797 283.83 136.465 283.935C136.139 284.039 135.785 284.205 135.4 284.433V292.206H131.885V277.011H135.4V282.45C136.025 281.962 136.624 281.588 137.197 281.327C137.777 281.067 138.418 280.937 139.121 280.937C140.306 280.937 141.23 281.282 141.895 281.972C142.565 282.662 142.9 283.694 142.9 285.067V292.206ZM156.943 287.372H148.896C148.949 288.231 149.274 288.889 149.873 289.345C150.479 289.8 151.367 290.028 152.539 290.028C153.281 290.028 154.001 289.895 154.697 289.628C155.394 289.361 155.944 289.075 156.348 288.769H156.738V291.591C155.944 291.91 155.195 292.141 154.492 292.284C153.789 292.427 153.011 292.499 152.158 292.499C149.958 292.499 148.271 292.004 147.1 291.015C145.928 290.025 145.342 288.616 145.342 286.786C145.342 284.976 145.895 283.544 147.002 282.489C148.115 281.428 149.639 280.897 151.572 280.897C153.356 280.897 154.697 281.35 155.596 282.255C156.494 283.153 156.943 284.449 156.943 286.142V287.372ZM153.447 285.312C153.428 284.576 153.245 284.022 152.9 283.651C152.555 283.28 152.018 283.095 151.289 283.095C150.612 283.095 150.055 283.271 149.619 283.622C149.183 283.974 148.939 284.537 148.887 285.312H153.447ZM166.436 292.108C166.058 292.206 165.658 292.281 165.234 292.333C164.811 292.392 164.294 292.421 163.682 292.421C162.314 292.421 161.296 292.144 160.625 291.591C159.961 291.037 159.629 290.09 159.629 288.749V283.622H158.184V281.239H159.629V278.104H163.145V281.239H166.436V283.622H163.145V287.509C163.145 287.893 163.148 288.228 163.154 288.515C163.161 288.801 163.213 289.058 163.311 289.286C163.402 289.514 163.561 289.696 163.789 289.833C164.023 289.963 164.362 290.028 164.805 290.028C164.987 290.028 165.225 289.989 165.518 289.911C165.817 289.833 166.025 289.761 166.143 289.696H166.436V292.108ZM175.186 289.345V287.06C174.71 287.099 174.196 287.154 173.643 287.226C173.089 287.291 172.669 287.369 172.383 287.46C172.031 287.571 171.761 287.733 171.572 287.948C171.39 288.157 171.299 288.433 171.299 288.778C171.299 289.006 171.318 289.192 171.357 289.335C171.396 289.478 171.494 289.615 171.65 289.745C171.8 289.875 171.979 289.973 172.188 290.038C172.396 290.097 172.721 290.126 173.164 290.126C173.516 290.126 173.87 290.054 174.229 289.911C174.593 289.768 174.912 289.579 175.186 289.345ZM175.186 291.044C174.997 291.187 174.762 291.36 174.482 291.562C174.202 291.763 173.939 291.923 173.691 292.04C173.346 292.196 172.988 292.31 172.617 292.382C172.246 292.46 171.839 292.499 171.396 292.499C170.355 292.499 169.482 292.177 168.779 291.532C168.076 290.888 167.725 290.064 167.725 289.062C167.725 288.261 167.904 287.606 168.262 287.099C168.62 286.591 169.128 286.19 169.785 285.897C170.436 285.604 171.243 285.396 172.207 285.272C173.171 285.149 174.17 285.058 175.205 284.999V284.94C175.205 284.335 174.958 283.918 174.463 283.69C173.968 283.456 173.239 283.339 172.275 283.339C171.696 283.339 171.077 283.443 170.42 283.651C169.762 283.853 169.29 284.009 169.004 284.12H168.682V281.474C169.053 281.376 169.655 281.262 170.488 281.132C171.328 280.995 172.168 280.927 173.008 280.927C175.007 280.927 176.449 281.236 177.334 281.854C178.226 282.466 178.672 283.43 178.672 284.745V292.206H175.186V291.044ZM192.568 290.946C192.568 291.975 192.422 292.841 192.129 293.544C191.836 294.247 191.426 294.797 190.898 295.194C190.371 295.598 189.733 295.888 188.984 296.063C188.242 296.246 187.402 296.337 186.465 296.337C185.703 296.337 184.951 296.291 184.209 296.2C183.473 296.109 182.835 295.998 182.295 295.868V293.124H182.725C183.154 293.293 183.678 293.446 184.297 293.583C184.915 293.726 185.469 293.798 185.957 293.798C186.608 293.798 187.135 293.736 187.539 293.612C187.949 293.495 188.262 293.326 188.477 293.104C188.678 292.896 188.825 292.629 188.916 292.304C189.007 291.978 189.053 291.588 189.053 291.132V290.927C188.63 291.272 188.161 291.545 187.646 291.747C187.132 291.949 186.559 292.05 185.928 292.05C184.391 292.05 183.206 291.588 182.373 290.663C181.54 289.739 181.123 288.332 181.123 286.444C181.123 285.539 181.25 284.758 181.504 284.101C181.758 283.443 182.116 282.87 182.578 282.382C183.008 281.926 183.535 281.571 184.16 281.317C184.792 281.063 185.436 280.937 186.094 280.937C186.686 280.937 187.223 281.008 187.705 281.151C188.193 281.288 188.636 281.48 189.033 281.728L189.16 281.239H192.568V290.946ZM189.053 288.749V283.778C188.851 283.694 188.604 283.629 188.311 283.583C188.018 283.531 187.754 283.505 187.52 283.505C186.595 283.505 185.902 283.772 185.439 284.306C184.977 284.833 184.746 285.572 184.746 286.522C184.746 287.577 184.941 288.313 185.332 288.729C185.729 289.146 186.315 289.354 187.09 289.354C187.441 289.354 187.786 289.299 188.125 289.188C188.464 289.078 188.773 288.931 189.053 288.749ZM206.689 287.372H198.643C198.695 288.231 199.02 288.889 199.619 289.345C200.225 289.8 201.113 290.028 202.285 290.028C203.027 290.028 203.747 289.895 204.443 289.628C205.14 289.361 205.69 289.075 206.094 288.769H206.484V291.591C205.69 291.91 204.941 292.141 204.238 292.284C203.535 292.427 202.757 292.499 201.904 292.499C199.704 292.499 198.018 292.004 196.846 291.015C195.674 290.025 195.088 288.616 195.088 286.786C195.088 284.976 195.641 283.544 196.748 282.489C197.861 281.428 199.385 280.897 201.318 280.897C203.102 280.897 204.443 281.35 205.342 282.255C206.24 283.153 206.689 284.449 206.689 286.142V287.372ZM203.193 285.312C203.174 284.576 202.992 284.022 202.646 283.651C202.301 283.28 201.764 283.095 201.035 283.095C200.358 283.095 199.801 283.271 199.365 283.622C198.929 283.974 198.685 284.537 198.633 285.312H203.193ZM219.893 284.433V292.206H216.357V286.728C216.357 286.194 216.344 285.741 216.318 285.37C216.292 284.993 216.221 284.687 216.104 284.452C215.986 284.218 215.807 284.049 215.566 283.944C215.332 283.834 215 283.778 214.57 283.778C214.225 283.778 213.89 283.85 213.564 283.993C213.239 284.13 212.946 284.276 212.686 284.433V292.206H209.17V281.239H212.686V282.45C213.291 281.975 213.87 281.604 214.424 281.337C214.977 281.07 215.589 280.937 216.26 280.937C216.982 280.937 217.62 281.099 218.174 281.425C218.727 281.744 219.16 282.216 219.473 282.841C220.176 282.248 220.859 281.783 221.523 281.444C222.188 281.106 222.839 280.937 223.477 280.937C224.661 280.937 225.56 281.291 226.172 282.001C226.79 282.711 227.1 283.733 227.1 285.067V292.206H223.564V286.728C223.564 286.187 223.551 285.731 223.525 285.36C223.506 284.989 223.438 284.687 223.32 284.452C223.21 284.218 223.034 284.049 222.793 283.944C222.552 283.834 222.214 283.778 221.777 283.778C221.484 283.778 221.198 283.83 220.918 283.935C220.638 284.032 220.296 284.198 219.893 284.433Z" fill="white"/>
<defs>
<linearGradient id="paint0_linear_288_57" x1="165" y1="0" x2="165" y2="505" gradientUnits="userSpaceOnUse">
<stop offset="0.5" stop-color="#A1A1A1"/>
<stop offset="1" stop-color="#3C3C3C"/>
</linearGradient>
<clipPath id="clip0_288_57">
<rect width="171.836" height="173.404" fill="white" transform="matrix(0.798034 -0.602612 0.579425 0.815026 43 130.899)"/>
</clipPath>
<clipPath id="clip1_288_57">
<rect width="170.156" height="175.053" fill="white" transform="matrix(0.984259 -0.176729 0.166682 0.986011 81.9902 110.004)"/>
</clipPath>
</defs>
</svg>
