<svg width="180" height="195" viewBox="0 0 180 195" fill="none" xmlns="http://www.w3.org/2000/svg">
<g clip-path="url(#clip0_285_49)">
<path d="M125.101 80.2739C123.76 78.3661 120.798 77.3489 118.534 77.4098C117.61 77.4333 116.762 77.6817 116.12 78.2395C115.379 78.0802 114.713 77.7848 114.451 77.213C114.24 76.7677 114.39 76.238 114.662 75.427C114.938 74.6067 115.253 73.6739 114.929 72.6802C114.521 71.4333 113.171 69.938 108.929 70.0083C108.47 70.013 108.095 70.3927 108.104 70.8567C108.109 71.3161 108.484 71.6864 108.938 71.6864H108.953C111.413 71.6489 113.012 72.2114 113.335 73.2005C113.485 73.6645 113.293 74.2317 113.073 74.888C112.778 75.7552 112.417 76.8333 112.932 77.9255C113.396 78.9098 114.278 79.4302 115.234 79.7255C114.887 81.6567 117.128 83.6677 118.613 84.5442C120.217 85.4864 122.41 86.077 124.182 85.3645C126.46 84.4598 126.315 82.013 125.101 80.2739ZM108.887 74.3817H72.9479C72.4463 74.3817 71.9541 74.7802 71.8557 75.2723L69.7932 85.3739C69.6947 85.8614 70.0182 86.2645 70.5197 86.2645H111.315C111.812 86.2645 112.14 85.8661 112.042 85.3739L109.979 75.2723C109.876 74.7802 109.388 74.3817 108.887 74.3817ZM87.9244 68.4567H80.9072C79.8338 68.4567 78.9572 69.2723 78.9572 70.2755V72.0286H102.465V70.2755C102.465 69.277 101.584 68.4567 100.51 68.4567H93.4979V65.3208H112.182C113.649 65.3208 114.854 64.1161 114.854 62.6442V34.1208C114.854 32.6489 113.649 31.4442 112.182 31.4442H69.24C67.7682 31.4442 66.5635 32.6489 66.5635 34.1208V62.6489C66.5635 64.1208 67.7682 65.3255 69.24 65.3255H87.9244V68.4567Z" fill="#C5CFD1"/>
<path d="M72.1089 58.4161C70.9839 58.4161 70.0698 57.4973 70.0698 56.3723V37.3458C70.0698 36.2208 70.9839 35.302 72.1089 35.302H109.309C110.429 35.302 111.348 36.2208 111.348 37.3458V56.3723C111.348 57.4973 110.429 58.4161 109.309 58.4161H72.1089Z" fill="#597B91"/>
<mask id="mask0_285_49" style="mask-type:luminance" maskUnits="userSpaceOnUse" x="70" y="35" width="42" height="24">
<path d="M72.1089 58.4161C70.9839 58.4161 70.0698 57.4973 70.0698 56.3723V37.3458C70.0698 36.2208 70.9839 35.302 72.1089 35.302H109.309C110.429 35.302 111.348 36.2208 111.348 37.3458V56.3723C111.348 57.4973 110.429 58.4161 109.309 58.4161H72.1089Z" fill="white"/>
</mask>
<g mask="url(#mask0_285_49)">
<path d="M90.0433 34.1724L81.662 60.7786L68.7104 60.6474V34.4396L90.0433 34.1724Z" fill="#10264E"/>
</g>
<path d="M75.0153 76.988H107.087C107.589 76.988 107.997 77.3958 107.997 77.8974C107.997 78.399 107.589 78.8068 107.087 78.8068H75.0153C74.5185 78.8068 74.106 78.399 74.106 77.8974C74.106 77.3912 74.5185 76.988 75.0153 76.988ZM107.959 83.1896H74.1481C73.6466 83.1896 73.2388 82.7818 73.2388 82.2802C73.2388 81.7787 73.6466 81.3708 74.1481 81.3708H107.964C108.205 81.3715 108.436 81.4679 108.606 81.6389C108.776 81.8098 108.871 82.0414 108.871 82.2826C108.87 82.5237 108.774 82.7548 108.603 82.9249C108.432 83.095 108.2 83.1902 107.959 83.1896Z" fill="#10264E"/>
<path d="M109.22 37.4301V56.2833H72.1979V37.4301H109.22ZM109.314 35.302H72.1089C70.9839 35.302 70.0698 36.2208 70.0698 37.3458V56.3723C70.0698 57.4973 70.9839 58.4161 72.1089 58.4161H109.309C110.429 58.4161 111.348 57.4973 111.348 56.3723V37.3458C111.348 36.2208 110.429 35.302 109.314 35.302Z" fill="#597B91"/>
</g>
<path d="M15.2051 114.703H10.0957V113.156H11.5254V107.526H10.0957V105.979H15.2051V107.526H13.7754V113.156H15.2051V114.703ZM23.5312 114.703H21.4102V111.44C21.4102 111.174 21.3965 110.91 21.3691 110.649C21.3418 110.383 21.2949 110.188 21.2285 110.063C21.1504 109.918 21.0352 109.813 20.8828 109.746C20.7344 109.68 20.5254 109.647 20.2559 109.647C20.0645 109.647 19.8691 109.678 19.6699 109.74C19.4746 109.803 19.2617 109.902 19.0312 110.039V114.703H16.9219V108.123H19.0312V108.85C19.4062 108.557 19.7656 108.332 20.1094 108.176C20.457 108.02 20.8418 107.942 21.2637 107.942C21.9746 107.942 22.5293 108.149 22.9277 108.563C23.3301 108.977 23.5312 109.596 23.5312 110.42V114.703ZM32.1035 108.123L29.5664 114.703H27.1758L24.6562 108.123H26.8887L28.4121 112.647L29.918 108.123H32.1035ZM39.7617 111.803H34.9336C34.9648 112.318 35.1602 112.713 35.5195 112.986C35.8828 113.26 36.416 113.397 37.1191 113.397C37.5645 113.397 37.9961 113.317 38.4141 113.156C38.832 112.996 39.1621 112.824 39.4043 112.641H39.6387V114.334C39.1621 114.526 38.7129 114.664 38.291 114.75C37.8691 114.836 37.4023 114.879 36.8906 114.879C35.5703 114.879 34.5586 114.582 33.8555 113.988C33.1523 113.395 32.8008 112.549 32.8008 111.451C32.8008 110.365 33.1328 109.506 33.7969 108.873C34.4648 108.236 35.3789 107.918 36.5391 107.918C37.6094 107.918 38.4141 108.19 38.9531 108.733C39.4922 109.272 39.7617 110.049 39.7617 111.065V111.803ZM37.6641 110.567C37.6523 110.125 37.543 109.793 37.3359 109.57C37.1289 109.348 36.8066 109.236 36.3691 109.236C35.9629 109.236 35.6289 109.342 35.3672 109.553C35.1055 109.764 34.959 110.102 34.9277 110.567H37.6641ZM47.8594 114.703H45.7383V111.44C45.7383 111.174 45.7246 110.91 45.6973 110.649C45.6699 110.383 45.623 110.188 45.5566 110.063C45.4785 109.918 45.3633 109.813 45.2109 109.746C45.0625 109.68 44.8535 109.647 44.584 109.647C44.3926 109.647 44.1973 109.678 43.998 109.74C43.8027 109.803 43.5898 109.902 43.3594 110.039V114.703H41.25V108.123H43.3594V108.85C43.7344 108.557 44.0938 108.332 44.4375 108.176C44.7852 108.02 45.1699 107.942 45.5918 107.942C46.3027 107.942 46.8574 108.149 47.2559 108.563C47.6582 108.977 47.8594 109.596 47.8594 110.42V114.703ZM54.0117 114.645C53.7852 114.703 53.5449 114.748 53.291 114.779C53.0371 114.815 52.7266 114.832 52.3594 114.832C51.5391 114.832 50.9277 114.666 50.5254 114.334C50.127 114.002 49.9277 113.434 49.9277 112.629V109.553H49.0605V108.123H49.9277V106.242H52.0371V108.123H54.0117V109.553H52.0371V111.885C52.0371 112.115 52.0391 112.317 52.043 112.488C52.0469 112.66 52.0781 112.815 52.1367 112.951C52.1914 113.088 52.2871 113.197 52.4238 113.279C52.5645 113.358 52.7676 113.397 53.0332 113.397C53.1426 113.397 53.2852 113.373 53.4609 113.326C53.6406 113.279 53.7656 113.236 53.8359 113.197H54.0117V114.645ZM59.2617 112.986V111.615C58.9766 111.639 58.668 111.672 58.3359 111.715C58.0039 111.754 57.752 111.801 57.5801 111.856C57.3691 111.922 57.207 112.02 57.0938 112.149C56.9844 112.274 56.9297 112.44 56.9297 112.647C56.9297 112.783 56.9414 112.895 56.9648 112.981C56.9883 113.067 57.0469 113.149 57.1406 113.227C57.2305 113.305 57.3379 113.363 57.4629 113.402C57.5879 113.438 57.7832 113.455 58.0488 113.455C58.2598 113.455 58.4727 113.412 58.6875 113.326C58.9062 113.24 59.0977 113.127 59.2617 112.986ZM59.2617 114.006C59.1484 114.092 59.0078 114.195 58.8398 114.317C58.6719 114.438 58.5137 114.533 58.3652 114.604C58.1582 114.697 57.9434 114.766 57.7207 114.809C57.498 114.856 57.2539 114.879 56.9883 114.879C56.3633 114.879 55.8398 114.686 55.418 114.299C54.9961 113.912 54.7852 113.418 54.7852 112.817C54.7852 112.336 54.8926 111.943 55.1074 111.639C55.3223 111.334 55.627 111.094 56.0215 110.918C56.4121 110.742 56.8965 110.617 57.4746 110.543C58.0527 110.469 58.6523 110.414 59.2734 110.379V110.344C59.2734 109.981 59.125 109.731 58.8281 109.594C58.5312 109.453 58.0938 109.383 57.5156 109.383C57.168 109.383 56.7969 109.445 56.4023 109.57C56.0078 109.692 55.7246 109.785 55.5527 109.852H55.3594V108.264C55.582 108.205 55.9434 108.137 56.4434 108.059C56.9473 107.977 57.4512 107.936 57.9551 107.936C59.1543 107.936 60.0195 108.121 60.5508 108.492C61.0859 108.859 61.3535 109.438 61.3535 110.227V114.703H59.2617V114.006ZM60.3926 104.883V105L58.3301 107.186H56.8887L58.3359 104.883H60.3926ZM68.0625 110.133H67.875C67.7852 110.102 67.6406 110.078 67.4414 110.063C67.2422 110.047 67.0762 110.039 66.9434 110.039C66.6426 110.039 66.377 110.059 66.1465 110.098C65.916 110.137 65.668 110.203 65.4023 110.297V114.703H63.293V108.123H65.4023V109.09C65.8672 108.692 66.2715 108.428 66.6152 108.299C66.959 108.166 67.2754 108.1 67.5645 108.1C67.6387 108.1 67.7227 108.102 67.8164 108.106C67.9102 108.109 67.9922 108.115 68.0625 108.123V110.133ZM71.3672 114.703H69.2578V108.123H71.3672V114.703ZM71.4258 107.186H69.1992V105.586H71.4258V107.186ZM80.0859 111.416C80.0859 112.498 79.7695 113.352 79.1367 113.977C78.5078 114.598 77.623 114.908 76.4824 114.908C75.3418 114.908 74.4551 114.598 73.8223 113.977C73.1934 113.352 72.8789 112.498 72.8789 111.416C72.8789 110.326 73.1953 109.471 73.8281 108.85C74.4648 108.229 75.3496 107.918 76.4824 107.918C77.6309 107.918 78.5176 108.231 79.1426 108.856C79.7715 109.481 80.0859 110.334 80.0859 111.416ZM77.4902 113.016C77.627 112.848 77.7285 112.647 77.7949 112.412C77.8652 112.174 77.9004 111.846 77.9004 111.428C77.9004 111.041 77.8652 110.717 77.7949 110.455C77.7246 110.193 77.627 109.984 77.502 109.828C77.377 109.668 77.2266 109.555 77.0508 109.488C76.875 109.422 76.6855 109.389 76.4824 109.389C76.2793 109.389 76.0977 109.416 75.9375 109.471C75.7812 109.526 75.6309 109.635 75.4863 109.799C75.3574 109.951 75.2539 110.16 75.1758 110.426C75.1016 110.692 75.0645 111.026 75.0645 111.428C75.0645 111.787 75.0977 112.1 75.1641 112.365C75.2305 112.627 75.3281 112.838 75.457 112.998C75.582 113.151 75.7305 113.262 75.9023 113.332C76.0781 113.402 76.2773 113.438 76.5 113.438C76.6914 113.438 76.873 113.406 77.0449 113.344C77.2207 113.277 77.3691 113.168 77.4902 113.016ZM92.0977 114.703H89.9883V114.018C89.625 114.315 89.2852 114.533 88.9688 114.674C88.6523 114.815 88.2871 114.885 87.873 114.885C87.0723 114.885 86.4316 114.576 85.9512 113.959C85.4707 113.342 85.2305 112.51 85.2305 111.463C85.2305 110.904 85.3105 110.41 85.4707 109.981C85.6348 109.547 85.8574 109.176 86.1387 108.867C86.4043 108.574 86.7266 108.348 87.1055 108.188C87.4844 108.024 87.8633 107.942 88.2422 107.942C88.6367 107.942 88.959 107.984 89.209 108.07C89.4629 108.152 89.7227 108.258 89.9883 108.387V105.586H92.0977V114.703ZM89.9883 112.887V109.658C89.8398 109.596 89.6836 109.551 89.5195 109.524C89.3555 109.496 89.2051 109.483 89.0684 109.483C88.5137 109.483 88.0977 109.656 87.8203 110.004C87.543 110.348 87.4043 110.826 87.4043 111.44C87.4043 112.084 87.5156 112.553 87.7383 112.846C87.9609 113.135 88.3184 113.279 88.8105 113.279C89.002 113.279 89.2051 113.244 89.4199 113.174C89.6348 113.1 89.8242 113.004 89.9883 112.887ZM100.57 111.803H95.7422C95.7734 112.318 95.9688 112.713 96.3281 112.986C96.6914 113.26 97.2246 113.397 97.9277 113.397C98.373 113.397 98.8047 113.317 99.2227 113.156C99.6406 112.996 99.9707 112.824 100.213 112.641H100.447V114.334C99.9707 114.526 99.5215 114.664 99.0996 114.75C98.6777 114.836 98.2109 114.879 97.6992 114.879C96.3789 114.879 95.3672 114.582 94.6641 113.988C93.9609 113.395 93.6094 112.549 93.6094 111.451C93.6094 110.365 93.9414 109.506 94.6055 108.873C95.2734 108.236 96.1875 107.918 97.3477 107.918C98.418 107.918 99.2227 108.19 99.7617 108.733C100.301 109.272 100.57 110.049 100.57 111.065V111.803ZM98.4727 110.567C98.4609 110.125 98.3516 109.793 98.1445 109.57C97.9375 109.348 97.6152 109.236 97.1777 109.236C96.7715 109.236 96.4375 109.342 96.1758 109.553C95.9141 109.764 95.7676 110.102 95.7363 110.567H98.4727ZM112.594 110.039V114.703H110.473V111.416C110.473 111.096 110.465 110.824 110.449 110.602C110.434 110.375 110.391 110.192 110.32 110.051C110.25 109.91 110.143 109.809 109.998 109.746C109.857 109.68 109.658 109.647 109.4 109.647C109.193 109.647 108.992 109.69 108.797 109.776C108.602 109.858 108.426 109.945 108.27 110.039V114.703H106.16V108.123H108.27V108.85C108.633 108.565 108.98 108.342 109.312 108.182C109.645 108.022 110.012 107.942 110.414 107.942C110.848 107.942 111.23 108.039 111.562 108.234C111.895 108.426 112.154 108.709 112.342 109.084C112.764 108.729 113.174 108.449 113.572 108.246C113.971 108.043 114.361 107.942 114.744 107.942C115.455 107.942 115.994 108.154 116.361 108.58C116.732 109.006 116.918 109.619 116.918 110.42V114.703H114.797V111.416C114.797 111.092 114.789 110.818 114.773 110.596C114.762 110.373 114.721 110.192 114.65 110.051C114.584 109.91 114.479 109.809 114.334 109.746C114.189 109.68 113.986 109.647 113.725 109.647C113.549 109.647 113.377 109.678 113.209 109.74C113.041 109.799 112.836 109.899 112.594 110.039ZM122.848 112.986V111.615C122.562 111.639 122.254 111.672 121.922 111.715C121.59 111.754 121.338 111.801 121.166 111.856C120.955 111.922 120.793 112.02 120.68 112.149C120.57 112.274 120.516 112.44 120.516 112.647C120.516 112.783 120.527 112.895 120.551 112.981C120.574 113.067 120.633 113.149 120.727 113.227C120.816 113.305 120.924 113.363 121.049 113.402C121.174 113.438 121.369 113.455 121.635 113.455C121.846 113.455 122.059 113.412 122.273 113.326C122.492 113.24 122.684 113.127 122.848 112.986ZM122.848 114.006C122.734 114.092 122.594 114.195 122.426 114.317C122.258 114.438 122.1 114.533 121.951 114.604C121.744 114.697 121.529 114.766 121.307 114.809C121.084 114.856 120.84 114.879 120.574 114.879C119.949 114.879 119.426 114.686 119.004 114.299C118.582 113.912 118.371 113.418 118.371 112.817C118.371 112.336 118.479 111.943 118.693 111.639C118.908 111.334 119.213 111.094 119.607 110.918C119.998 110.742 120.482 110.617 121.061 110.543C121.639 110.469 122.238 110.414 122.859 110.379V110.344C122.859 109.981 122.711 109.731 122.414 109.594C122.117 109.453 121.68 109.383 121.102 109.383C120.754 109.383 120.383 109.445 119.988 109.57C119.594 109.692 119.311 109.785 119.139 109.852H118.945V108.264C119.168 108.205 119.529 108.137 120.029 108.059C120.533 107.977 121.037 107.936 121.541 107.936C122.74 107.936 123.605 108.121 124.137 108.492C124.672 108.859 124.939 109.438 124.939 110.227V114.703H122.848V114.006ZM123.979 104.883V105L121.916 107.186H120.475L121.922 104.883H123.979ZM133.277 117.117H131.168V114.059C130.824 114.336 130.488 114.543 130.16 114.68C129.832 114.817 129.463 114.885 129.053 114.885C128.248 114.885 127.605 114.576 127.125 113.959C126.648 113.342 126.41 112.51 126.41 111.463C126.41 110.904 126.49 110.41 126.65 109.981C126.814 109.547 127.037 109.176 127.318 108.867C127.584 108.574 127.906 108.348 128.285 108.188C128.664 108.024 129.043 107.942 129.422 107.942C129.793 107.942 130.104 107.984 130.354 108.07C130.607 108.152 130.875 108.268 131.156 108.416L131.232 108.123H133.277V117.117ZM131.168 112.887V109.658C131.02 109.596 130.863 109.551 130.699 109.524C130.535 109.496 130.385 109.483 130.248 109.483C129.693 109.483 129.277 109.656 129 110.004C128.723 110.348 128.584 110.826 128.584 111.44C128.584 112.084 128.695 112.553 128.918 112.846C129.141 113.135 129.498 113.279 129.99 113.279C130.182 113.279 130.385 113.244 130.6 113.174C130.814 113.1 131.004 113.004 131.168 112.887ZM141.826 114.703H139.717V113.977C139.326 114.274 138.969 114.5 138.645 114.656C138.32 114.809 137.934 114.885 137.484 114.885C136.758 114.885 136.197 114.676 135.803 114.258C135.412 113.84 135.217 113.223 135.217 112.406V108.123H137.338V111.387C137.338 111.719 137.348 111.996 137.367 112.219C137.391 112.438 137.441 112.619 137.52 112.764C137.594 112.908 137.705 113.014 137.854 113.08C138.006 113.147 138.217 113.18 138.486 113.18C138.666 113.18 138.865 113.147 139.084 113.08C139.303 113.014 139.514 112.916 139.717 112.787V108.123H141.826V114.703ZM145.934 114.703H143.824V108.123H145.934V114.703ZM145.992 107.186H143.766V105.586H145.992V107.186ZM154.535 114.703H152.414V111.44C152.414 111.174 152.4 110.91 152.373 110.649C152.346 110.383 152.299 110.188 152.232 110.063C152.154 109.918 152.039 109.813 151.887 109.746C151.738 109.68 151.529 109.647 151.26 109.647C151.068 109.647 150.873 109.678 150.674 109.74C150.479 109.803 150.266 109.902 150.035 110.039V114.703H147.926V108.123H150.035V108.85C150.41 108.557 150.77 108.332 151.113 108.176C151.461 108.02 151.846 107.942 152.268 107.942C152.979 107.942 153.533 108.149 153.932 108.563C154.334 108.977 154.535 109.596 154.535 110.42V114.703ZM160.465 112.986V111.615C160.18 111.639 159.871 111.672 159.539 111.715C159.207 111.754 158.955 111.801 158.783 111.856C158.572 111.922 158.41 112.02 158.297 112.149C158.188 112.274 158.133 112.44 158.133 112.647C158.133 112.783 158.145 112.895 158.168 112.981C158.191 113.067 158.25 113.149 158.344 113.227C158.434 113.305 158.541 113.363 158.666 113.402C158.791 113.438 158.986 113.455 159.252 113.455C159.463 113.455 159.676 113.412 159.891 113.326C160.109 113.24 160.301 113.127 160.465 112.986ZM160.465 114.006C160.352 114.092 160.211 114.195 160.043 114.317C159.875 114.438 159.717 114.533 159.568 114.604C159.361 114.697 159.146 114.766 158.924 114.809C158.701 114.856 158.457 114.879 158.191 114.879C157.566 114.879 157.043 114.686 156.621 114.299C156.199 113.912 155.988 113.418 155.988 112.817C155.988 112.336 156.096 111.943 156.311 111.639C156.525 111.334 156.83 111.094 157.225 110.918C157.615 110.742 158.1 110.617 158.678 110.543C159.256 110.469 159.855 110.414 160.477 110.379V110.344C160.477 109.981 160.328 109.731 160.031 109.594C159.734 109.453 159.297 109.383 158.719 109.383C158.371 109.383 158 109.445 157.605 109.57C157.211 109.692 156.928 109.785 156.756 109.852H156.562V108.264C156.785 108.205 157.146 108.137 157.646 108.059C158.15 107.977 158.654 107.936 159.158 107.936C160.357 107.936 161.223 108.121 161.754 108.492C162.289 108.859 162.557 109.438 162.557 110.227V114.703H160.465V114.006ZM170.215 112.617C170.215 113.297 169.91 113.846 169.301 114.264C168.691 114.678 167.857 114.885 166.799 114.885C166.213 114.885 165.682 114.83 165.205 114.721C164.729 114.611 164.346 114.49 164.057 114.358V112.623H164.25C164.355 112.697 164.477 112.779 164.613 112.869C164.754 112.955 164.951 113.049 165.205 113.151C165.424 113.24 165.672 113.318 165.949 113.385C166.227 113.447 166.523 113.479 166.84 113.479C167.254 113.479 167.561 113.434 167.76 113.344C167.959 113.25 168.059 113.113 168.059 112.934C168.059 112.774 168 112.658 167.883 112.588C167.766 112.514 167.543 112.443 167.215 112.377C167.059 112.342 166.846 112.305 166.576 112.266C166.311 112.223 166.068 112.172 165.85 112.113C165.252 111.957 164.809 111.715 164.52 111.387C164.23 111.055 164.086 110.643 164.086 110.151C164.086 109.518 164.385 108.992 164.982 108.574C165.584 108.152 166.404 107.942 167.443 107.942C167.936 107.942 168.406 107.992 168.855 108.094C169.309 108.192 169.662 108.297 169.916 108.41V110.074H169.734C169.422 109.859 169.064 109.686 168.662 109.553C168.264 109.416 167.859 109.348 167.449 109.348C167.109 109.348 166.822 109.395 166.588 109.488C166.357 109.582 166.242 109.715 166.242 109.887C166.242 110.043 166.295 110.162 166.4 110.244C166.506 110.326 166.754 110.408 167.145 110.49C167.359 110.533 167.59 110.576 167.836 110.619C168.086 110.658 168.336 110.709 168.586 110.772C169.141 110.916 169.551 111.145 169.816 111.457C170.082 111.766 170.215 112.152 170.215 112.617Z" fill="white"/>
<defs>
<clipPath id="clip0_285_49">
<rect width="60" height="60" fill="white" transform="translate(66.2637 28.8521)"/>
</clipPath>
</defs>
</svg>
