<svg width="245" height="400" viewBox="0 0 245 400" fill="none" xmlns="http://www.w3.org/2000/svg">
<rect width="245" height="400" rx="25" fill="url(#paint0_linear_285_49)" fill-opacity="0.85"/>
<g clip-path="url(#clip0_285_49)">
<path d="M200.165 184.474C197.262 179.931 190.847 177.51 185.944 177.655C183.944 177.71 182.107 178.302 180.717 179.63C179.113 179.251 177.671 178.547 177.103 177.186C176.646 176.126 176.971 174.864 177.56 172.934C178.159 170.981 178.839 168.76 178.138 166.393C177.255 163.425 174.332 159.864 165.146 160.032C164.151 160.043 163.339 160.947 163.359 162.052C163.37 163.146 164.182 164.027 165.166 164.027H165.197C170.526 163.938 173.987 165.277 174.687 167.632C175.012 168.737 174.596 170.088 174.119 171.65C173.479 173.715 172.698 176.282 173.814 178.882C174.819 181.226 176.727 182.465 178.798 183.168C178.047 187.766 182.899 192.554 186.117 194.641C189.588 196.885 194.338 198.291 198.175 196.594C203.108 194.44 202.793 188.614 200.165 184.474ZM165.055 170.445H87.232C86.1459 170.445 85.0801 171.393 84.867 172.565L80.4008 196.617C80.1876 197.777 80.888 198.737 81.9741 198.737H170.312C171.388 198.737 172.099 197.789 171.886 196.617L167.42 172.565C167.196 171.393 166.141 170.445 165.055 170.445ZM119.662 156.338H104.467C102.143 156.338 100.245 158.28 100.245 160.668V164.842H151.149V160.668C151.149 158.291 149.24 156.338 146.916 156.338H131.731V148.871H172.19C175.367 148.871 177.976 146.003 177.976 142.498V74.5854C177.976 71.0809 175.367 68.2126 172.19 68.2126H79.2031C76.0159 68.2126 73.4072 71.0809 73.4072 74.5854V142.51C73.4072 146.014 76.0159 148.882 79.2031 148.882H119.662V156.338Z" fill="#C5CFD1"/>
<path d="M85.4154 132.431C82.9793 132.431 81 130.244 81 127.565V82.264C81 79.5854 82.9793 77.3979 85.4154 77.3979H165.968C168.394 77.3979 170.384 79.5854 170.384 82.264V127.565C170.384 130.244 168.394 132.431 165.968 132.431H85.4154Z" fill="#597B91"/>
<mask id="mask0_285_49" style="mask-type:luminance" maskUnits="userSpaceOnUse" x="81" y="77" width="90" height="56">
<path d="M85.4154 132.431C82.9793 132.431 81 130.244 81 127.565V82.264C81 79.5854 82.9793 77.3979 85.4154 77.3979H165.968C168.394 77.3979 170.384 79.5854 170.384 82.264V127.565C170.384 130.244 168.394 132.431 165.968 132.431H85.4154Z" fill="white"/>
</mask>
<g mask="url(#mask0_285_49)">
<path d="M124.251 74.7083L106.102 138.056L78.0566 137.744V75.3444L124.251 74.7083Z" fill="#10264E"/>
</g>
<path d="M91.7083 176.65H161.157C162.243 176.65 163.126 177.621 163.126 178.815C163.126 180.01 162.243 180.981 161.157 180.981H91.7083C90.6324 180.981 89.7391 180.01 89.7391 178.815C89.7391 177.61 90.6324 176.65 91.7083 176.65ZM163.045 191.416H89.8305C88.7444 191.416 87.8613 190.445 87.8613 189.251C87.8613 188.056 88.7444 187.085 89.8305 187.085H163.055C163.577 187.087 164.078 187.316 164.446 187.724C164.814 188.131 165.02 188.682 165.019 189.256C165.018 189.83 164.809 190.381 164.439 190.786C164.068 191.191 163.567 191.417 163.045 191.416Z" fill="#10264E"/>
<path d="M165.776 82.4649V127.353H85.6082V82.4649H165.776ZM165.979 77.3979H85.4154C82.9793 77.3979 81 79.5854 81 82.264V127.565C81 130.244 82.9793 132.431 85.4154 132.431H165.968C168.394 132.431 170.384 130.244 170.384 127.565V82.264C170.384 79.5854 168.394 77.3979 165.979 77.3979Z" fill="#597B91"/>
</g>
<path d="M55.8105 225.52H47.2949V222.942H49.6777V213.557H47.2949V210.979H55.8105V213.557H53.4277V222.942H55.8105V225.52ZM69.6875 225.52H66.1523V220.08C66.1523 219.637 66.1296 219.198 66.084 218.762C66.0384 218.319 65.9603 217.994 65.8496 217.785C65.7194 217.544 65.5273 217.369 65.2734 217.258C65.026 217.147 64.6777 217.092 64.2285 217.092C63.9095 217.092 63.584 217.144 63.252 217.248C62.9264 217.352 62.5716 217.518 62.1875 217.746V225.52H58.6719V214.553H62.1875V215.764C62.8125 215.276 63.4115 214.901 63.9844 214.641C64.5638 214.38 65.2051 214.25 65.9082 214.25C67.0931 214.25 68.0176 214.595 68.6816 215.285C69.3522 215.975 69.6875 217.007 69.6875 218.381V225.52ZM83.9746 214.553L79.7461 225.52H75.7617L71.5625 214.553H75.2832L77.8223 222.092L80.332 214.553H83.9746ZM96.7383 220.686H88.6914C88.7435 221.545 89.069 222.203 89.668 222.658C90.2734 223.114 91.1621 223.342 92.334 223.342C93.0762 223.342 93.7956 223.208 94.4922 222.942C95.1888 222.675 95.7389 222.388 96.1426 222.082H96.5332V224.904C95.7389 225.223 94.9902 225.455 94.2871 225.598C93.584 225.741 92.806 225.813 91.9531 225.813C89.7526 225.813 88.0664 225.318 86.8945 224.328C85.7227 223.339 85.1367 221.929 85.1367 220.1C85.1367 218.29 85.6901 216.858 86.7969 215.803C87.9102 214.742 89.4336 214.211 91.3672 214.211C93.151 214.211 94.4922 214.664 95.3906 215.568C96.2891 216.467 96.7383 217.762 96.7383 219.455V220.686ZM93.2422 218.625C93.2227 217.889 93.0404 217.336 92.6953 216.965C92.3503 216.594 91.8132 216.408 91.084 216.408C90.4069 216.408 89.8503 216.584 89.4141 216.936C88.9779 217.287 88.7337 217.85 88.6816 218.625H93.2422ZM110.234 225.52H106.699V220.08C106.699 219.637 106.676 219.198 106.631 218.762C106.585 218.319 106.507 217.994 106.396 217.785C106.266 217.544 106.074 217.369 105.82 217.258C105.573 217.147 105.225 217.092 104.775 217.092C104.456 217.092 104.131 217.144 103.799 217.248C103.473 217.352 103.118 217.518 102.734 217.746V225.52H99.2188V214.553H102.734V215.764C103.359 215.276 103.958 214.901 104.531 214.641C105.111 214.38 105.752 214.25 106.455 214.25C107.64 214.25 108.564 214.595 109.229 215.285C109.899 215.975 110.234 217.007 110.234 218.381V225.52ZM120.488 225.422C120.111 225.52 119.71 225.595 119.287 225.647C118.864 225.705 118.346 225.734 117.734 225.734C116.367 225.734 115.348 225.458 114.678 224.904C114.014 224.351 113.682 223.404 113.682 222.063V216.936H112.236V214.553H113.682V211.418H117.197V214.553H120.488V216.936H117.197V220.822C117.197 221.207 117.201 221.542 117.207 221.828C117.214 222.115 117.266 222.372 117.363 222.6C117.454 222.828 117.614 223.01 117.842 223.147C118.076 223.277 118.415 223.342 118.857 223.342C119.04 223.342 119.277 223.303 119.57 223.225C119.87 223.147 120.078 223.075 120.195 223.01H120.488V225.422ZM129.238 222.658V220.373C128.763 220.412 128.249 220.468 127.695 220.539C127.142 220.604 126.722 220.682 126.436 220.774C126.084 220.884 125.814 221.047 125.625 221.262C125.443 221.47 125.352 221.747 125.352 222.092C125.352 222.32 125.371 222.505 125.41 222.649C125.449 222.792 125.547 222.929 125.703 223.059C125.853 223.189 126.032 223.287 126.24 223.352C126.449 223.41 126.774 223.44 127.217 223.44C127.568 223.44 127.923 223.368 128.281 223.225C128.646 223.082 128.965 222.893 129.238 222.658ZM129.238 224.358C129.049 224.501 128.815 224.673 128.535 224.875C128.255 225.077 127.992 225.236 127.744 225.354C127.399 225.51 127.041 225.624 126.67 225.695C126.299 225.774 125.892 225.813 125.449 225.813C124.408 225.813 123.535 225.49 122.832 224.846C122.129 224.201 121.777 223.378 121.777 222.375C121.777 221.574 121.956 220.92 122.314 220.412C122.673 219.904 123.18 219.504 123.838 219.211C124.489 218.918 125.296 218.71 126.26 218.586C127.223 218.462 128.223 218.371 129.258 218.313V218.254C129.258 217.649 129.01 217.232 128.516 217.004C128.021 216.77 127.292 216.652 126.328 216.652C125.749 216.652 125.13 216.757 124.473 216.965C123.815 217.167 123.343 217.323 123.057 217.434H122.734V214.787C123.105 214.69 123.708 214.576 124.541 214.445C125.381 214.309 126.221 214.24 127.061 214.24C129.059 214.24 130.501 214.55 131.387 215.168C132.279 215.78 132.725 216.744 132.725 218.059V225.52H129.238V224.358ZM131.123 209.152V209.348L127.686 212.99H125.283L127.695 209.152H131.123ZM143.906 217.902H143.594C143.444 217.85 143.203 217.811 142.871 217.785C142.539 217.759 142.262 217.746 142.041 217.746C141.54 217.746 141.097 217.779 140.713 217.844C140.329 217.909 139.915 218.02 139.473 218.176V225.52H135.957V214.553H139.473V216.164C140.247 215.5 140.921 215.061 141.494 214.846C142.067 214.624 142.594 214.514 143.076 214.514C143.2 214.514 143.34 214.517 143.496 214.524C143.652 214.53 143.789 214.54 143.906 214.553V217.902ZM149.414 225.52H145.898V214.553H149.414V225.52ZM149.512 212.99H145.801V210.324H149.512V212.99ZM163.945 220.041C163.945 221.845 163.418 223.267 162.363 224.309C161.315 225.344 159.84 225.861 157.939 225.861C156.038 225.861 154.561 225.344 153.506 224.309C152.458 223.267 151.934 221.845 151.934 220.041C151.934 218.225 152.461 216.799 153.516 215.764C154.577 214.729 156.051 214.211 157.939 214.211C159.854 214.211 161.331 214.732 162.373 215.774C163.421 216.815 163.945 218.238 163.945 220.041ZM159.619 222.707C159.847 222.427 160.016 222.092 160.127 221.701C160.244 221.304 160.303 220.757 160.303 220.061C160.303 219.416 160.244 218.876 160.127 218.44C160.01 218.003 159.847 217.655 159.639 217.395C159.43 217.128 159.18 216.939 158.887 216.828C158.594 216.718 158.278 216.662 157.939 216.662C157.601 216.662 157.298 216.708 157.031 216.799C156.771 216.89 156.52 217.072 156.279 217.346C156.064 217.6 155.892 217.948 155.762 218.391C155.638 218.833 155.576 219.39 155.576 220.061C155.576 220.66 155.632 221.18 155.742 221.623C155.853 222.059 156.016 222.411 156.23 222.678C156.439 222.932 156.686 223.117 156.973 223.234C157.266 223.352 157.598 223.41 157.969 223.41C158.288 223.41 158.59 223.358 158.877 223.254C159.17 223.143 159.417 222.961 159.619 222.707ZM183.965 225.52H180.449V224.377C179.844 224.872 179.277 225.236 178.75 225.471C178.223 225.705 177.614 225.822 176.924 225.822C175.589 225.822 174.521 225.308 173.721 224.279C172.92 223.251 172.52 221.864 172.52 220.119C172.52 219.188 172.653 218.365 172.92 217.649C173.193 216.926 173.564 216.307 174.033 215.793C174.476 215.305 175.013 214.927 175.645 214.66C176.276 214.387 176.908 214.25 177.539 214.25C178.197 214.25 178.734 214.322 179.15 214.465C179.574 214.602 180.007 214.777 180.449 214.992V210.324H183.965V225.52ZM180.449 222.492V217.111C180.202 217.007 179.941 216.932 179.668 216.887C179.395 216.841 179.144 216.818 178.916 216.818C177.992 216.818 177.298 217.108 176.836 217.688C176.374 218.261 176.143 219.058 176.143 220.08C176.143 221.154 176.328 221.936 176.699 222.424C177.07 222.906 177.666 223.147 178.486 223.147C178.805 223.147 179.144 223.088 179.502 222.971C179.86 222.847 180.176 222.688 180.449 222.492ZM198.086 220.686H190.039C190.091 221.545 190.417 222.203 191.016 222.658C191.621 223.114 192.51 223.342 193.682 223.342C194.424 223.342 195.143 223.208 195.84 222.942C196.536 222.675 197.087 222.388 197.49 222.082H197.881V224.904C197.087 225.223 196.338 225.455 195.635 225.598C194.932 225.741 194.154 225.813 193.301 225.813C191.1 225.813 189.414 225.318 188.242 224.328C187.07 223.339 186.484 221.929 186.484 220.1C186.484 218.29 187.038 216.858 188.145 215.803C189.258 214.742 190.781 214.211 192.715 214.211C194.499 214.211 195.84 214.664 196.738 215.568C197.637 216.467 198.086 217.762 198.086 219.455V220.686ZM194.59 218.625C194.57 217.889 194.388 217.336 194.043 216.965C193.698 216.594 193.161 216.408 192.432 216.408C191.755 216.408 191.198 216.584 190.762 216.936C190.326 217.287 190.081 217.85 190.029 218.625H194.59ZM80.332 232.746V240.52H76.7969V235.041C76.7969 234.507 76.7839 234.055 76.7578 233.684C76.7318 233.306 76.6602 233 76.543 232.766C76.4258 232.531 76.2467 232.362 76.0059 232.258C75.7715 232.147 75.4395 232.092 75.0098 232.092C74.6647 232.092 74.3294 232.164 74.0039 232.307C73.6784 232.443 73.3854 232.59 73.125 232.746V240.52H69.6094V229.553H73.125V230.764C73.7305 230.289 74.3099 229.917 74.8633 229.651C75.4167 229.384 76.0286 229.25 76.6992 229.25C77.4219 229.25 78.0599 229.413 78.6133 229.738C79.1667 230.057 79.5996 230.529 79.9121 231.154C80.6152 230.562 81.2988 230.096 81.9629 229.758C82.627 229.419 83.278 229.25 83.916 229.25C85.1009 229.25 85.9993 229.605 86.6113 230.315C87.2298 231.024 87.5391 232.046 87.5391 233.381V240.52H84.0039V235.041C84.0039 234.501 83.9909 234.045 83.9648 233.674C83.9453 233.303 83.877 233 83.7598 232.766C83.6491 232.531 83.4733 232.362 83.2324 232.258C82.9915 232.147 82.653 232.092 82.2168 232.092C81.9238 232.092 81.6374 232.144 81.3574 232.248C81.0775 232.346 80.7357 232.512 80.332 232.746ZM97.4219 237.658V235.373C96.9466 235.412 96.4323 235.468 95.8789 235.539C95.3255 235.604 94.9056 235.682 94.6191 235.774C94.2676 235.884 93.9974 236.047 93.8086 236.262C93.6263 236.47 93.5352 236.747 93.5352 237.092C93.5352 237.32 93.5547 237.505 93.5938 237.649C93.6328 237.792 93.7305 237.929 93.8867 238.059C94.0365 238.189 94.2155 238.287 94.4238 238.352C94.6322 238.41 94.9577 238.44 95.4004 238.44C95.752 238.44 96.1068 238.368 96.4648 238.225C96.8294 238.082 97.1484 237.893 97.4219 237.658ZM97.4219 239.358C97.2331 239.501 96.9987 239.673 96.7188 239.875C96.4388 240.077 96.1751 240.236 95.9277 240.354C95.5827 240.51 95.2246 240.624 94.8535 240.695C94.4824 240.774 94.0755 240.813 93.6328 240.813C92.5911 240.813 91.7188 240.49 91.0156 239.846C90.3125 239.201 89.9609 238.378 89.9609 237.375C89.9609 236.574 90.14 235.92 90.498 235.412C90.8561 234.904 91.3639 234.504 92.0215 234.211C92.6725 233.918 93.4798 233.71 94.4434 233.586C95.4069 233.462 96.4062 233.371 97.4414 233.313V233.254C97.4414 232.649 97.194 232.232 96.6992 232.004C96.2044 231.77 95.4753 231.652 94.5117 231.652C93.9323 231.652 93.3138 231.757 92.6562 231.965C91.9987 232.167 91.5267 232.323 91.2402 232.434H90.918V229.787C91.2891 229.69 91.8913 229.576 92.7246 229.445C93.5645 229.309 94.4043 229.24 95.2441 229.24C97.2428 229.24 98.6849 229.55 99.5703 230.168C100.462 230.78 100.908 231.744 100.908 233.059V240.52H97.4219V239.358ZM99.3066 224.152V224.348L95.8691 227.99H93.4668L95.8789 224.152H99.3066ZM114.805 244.543H111.289V239.445C110.716 239.908 110.156 240.253 109.609 240.481C109.062 240.708 108.447 240.822 107.764 240.822C106.423 240.822 105.352 240.308 104.551 239.279C103.757 238.251 103.359 236.864 103.359 235.119C103.359 234.188 103.493 233.365 103.76 232.649C104.033 231.926 104.404 231.307 104.873 230.793C105.316 230.305 105.853 229.927 106.484 229.66C107.116 229.387 107.747 229.25 108.379 229.25C108.997 229.25 109.515 229.322 109.932 229.465C110.355 229.602 110.801 229.794 111.27 230.041L111.396 229.553H114.805V244.543ZM111.289 237.492V232.111C111.042 232.007 110.781 231.932 110.508 231.887C110.234 231.841 109.984 231.818 109.756 231.818C108.831 231.818 108.138 232.108 107.676 232.688C107.214 233.261 106.982 234.058 106.982 235.08C106.982 236.154 107.168 236.936 107.539 237.424C107.91 237.906 108.506 238.147 109.326 238.147C109.645 238.147 109.984 238.088 110.342 237.971C110.7 237.847 111.016 237.688 111.289 237.492ZM129.053 240.52H125.537V239.309C124.886 239.804 124.29 240.181 123.75 240.442C123.21 240.695 122.565 240.822 121.816 240.822C120.605 240.822 119.671 240.474 119.014 239.777C118.363 239.081 118.037 238.052 118.037 236.692V229.553H121.572V234.992C121.572 235.546 121.589 236.008 121.621 236.379C121.66 236.744 121.745 237.046 121.875 237.287C121.999 237.528 122.184 237.704 122.432 237.815C122.686 237.925 123.037 237.981 123.486 237.981C123.786 237.981 124.118 237.925 124.482 237.815C124.847 237.704 125.199 237.541 125.537 237.326V229.553H129.053V240.52ZM135.898 240.52H132.383V229.553H135.898V240.52ZM135.996 227.99H132.285V225.324H135.996V227.99ZM150.234 240.52H146.699V235.08C146.699 234.637 146.676 234.198 146.631 233.762C146.585 233.319 146.507 232.994 146.396 232.785C146.266 232.544 146.074 232.369 145.82 232.258C145.573 232.147 145.225 232.092 144.775 232.092C144.456 232.092 144.131 232.144 143.799 232.248C143.473 232.352 143.118 232.518 142.734 232.746V240.52H139.219V229.553H142.734V230.764C143.359 230.276 143.958 229.901 144.531 229.641C145.111 229.38 145.752 229.25 146.455 229.25C147.64 229.25 148.564 229.595 149.229 230.285C149.899 230.975 150.234 232.007 150.234 233.381V240.52ZM160.117 237.658V235.373C159.642 235.412 159.128 235.468 158.574 235.539C158.021 235.604 157.601 235.682 157.314 235.774C156.963 235.884 156.693 236.047 156.504 236.262C156.322 236.47 156.23 236.747 156.23 237.092C156.23 237.32 156.25 237.505 156.289 237.649C156.328 237.792 156.426 237.929 156.582 238.059C156.732 238.189 156.911 238.287 157.119 238.352C157.327 238.41 157.653 238.44 158.096 238.44C158.447 238.44 158.802 238.368 159.16 238.225C159.525 238.082 159.844 237.893 160.117 237.658ZM160.117 239.358C159.928 239.501 159.694 239.673 159.414 239.875C159.134 240.077 158.87 240.236 158.623 240.354C158.278 240.51 157.92 240.624 157.549 240.695C157.178 240.774 156.771 240.813 156.328 240.813C155.286 240.813 154.414 240.49 153.711 239.846C153.008 239.201 152.656 238.378 152.656 237.375C152.656 236.574 152.835 235.92 153.193 235.412C153.551 234.904 154.059 234.504 154.717 234.211C155.368 233.918 156.175 233.71 157.139 233.586C158.102 233.462 159.102 233.371 160.137 233.313V233.254C160.137 232.649 159.889 232.232 159.395 232.004C158.9 231.77 158.171 231.652 157.207 231.652C156.628 231.652 156.009 231.757 155.352 231.965C154.694 232.167 154.222 232.323 153.936 232.434H153.613V229.787C153.984 229.69 154.587 229.576 155.42 229.445C156.26 229.309 157.1 229.24 157.939 229.24C159.938 229.24 161.38 229.55 162.266 230.168C163.158 230.78 163.604 231.744 163.604 233.059V240.52H160.117V239.358ZM176.367 237.043C176.367 238.176 175.859 239.091 174.844 239.787C173.828 240.477 172.438 240.822 170.674 240.822C169.697 240.822 168.812 240.731 168.018 240.549C167.223 240.367 166.585 240.165 166.104 239.943V237.053H166.426C166.602 237.177 166.803 237.313 167.031 237.463C167.266 237.606 167.594 237.762 168.018 237.932C168.382 238.082 168.796 238.212 169.258 238.322C169.72 238.427 170.215 238.479 170.742 238.479C171.432 238.479 171.943 238.404 172.275 238.254C172.607 238.098 172.773 237.87 172.773 237.57C172.773 237.304 172.676 237.111 172.48 236.994C172.285 236.871 171.914 236.753 171.367 236.643C171.107 236.584 170.752 236.522 170.303 236.457C169.86 236.386 169.456 236.301 169.092 236.203C168.096 235.943 167.357 235.539 166.875 234.992C166.393 234.439 166.152 233.752 166.152 232.932C166.152 231.877 166.65 231.001 167.646 230.305C168.649 229.602 170.016 229.25 171.748 229.25C172.568 229.25 173.353 229.335 174.102 229.504C174.857 229.667 175.446 229.843 175.869 230.031V232.805H175.566C175.046 232.447 174.45 232.157 173.779 231.936C173.115 231.708 172.441 231.594 171.758 231.594C171.191 231.594 170.713 231.672 170.322 231.828C169.938 231.984 169.746 232.206 169.746 232.492C169.746 232.753 169.834 232.951 170.01 233.088C170.186 233.225 170.599 233.361 171.25 233.498C171.608 233.57 171.992 233.641 172.402 233.713C172.819 233.778 173.236 233.863 173.652 233.967C174.577 234.208 175.26 234.589 175.703 235.109C176.146 235.624 176.367 236.268 176.367 237.043Z" fill="white"/>
<defs>
<linearGradient id="paint0_linear_285_49" x1="122.5" y1="0" x2="122.5" y2="400" gradientUnits="userSpaceOnUse">
<stop offset="0.505" stop-color="#A2A2A2"/>
<stop offset="1" stop-color="#3C3C3C"/>
</linearGradient>
<clipPath id="clip0_285_49">
<rect width="129.924" height="142.857" fill="white" transform="translate(72.7578 62.0408)"/>
</clipPath>
</defs>
</svg>
