<svg width="330" height="505" viewBox="0 0 330 505" fill="none" xmlns="http://www.w3.org/2000/svg">
<rect width="330" height="505" rx="25" fill="url(#paint0_linear_285_49)" fill-opacity="0.85"/>
<path d="M269.609 232.898C265.699 227.163 257.059 224.106 250.455 224.289C247.762 224.359 245.287 225.106 243.414 226.783C241.254 226.304 239.312 225.416 238.547 223.697C237.932 222.359 238.369 220.766 239.162 218.329C239.969 215.863 240.885 213.059 239.941 210.072C238.752 206.324 234.814 201.829 222.441 202.04C221.102 202.054 220.008 203.196 220.035 204.591C220.049 205.972 221.143 207.085 222.469 207.085H222.51C229.688 206.972 234.35 208.663 235.293 211.636C235.73 213.031 235.17 214.736 234.527 216.708C233.666 219.315 232.613 222.556 234.117 225.839C235.471 228.798 238.041 230.362 240.83 231.25C239.818 237.055 246.354 243.1 250.688 245.735C255.363 248.567 261.762 250.342 266.93 248.2C273.574 245.481 273.15 238.126 269.609 232.898ZM222.318 215.187H117.496C116.033 215.187 114.598 216.384 114.311 217.864L108.295 248.229C108.008 249.694 108.951 250.906 110.414 250.906H229.4C230.85 250.906 231.807 249.708 231.52 248.229L225.504 217.864C225.203 216.384 223.781 215.187 222.318 215.187ZM161.178 197.376H140.711C137.58 197.376 135.023 199.828 135.023 202.843V208.113H203.588V202.843C203.588 199.842 201.018 197.376 197.887 197.376H177.434V187.95H231.93C236.209 187.95 239.723 184.329 239.723 179.904V94.1642C239.723 89.7398 236.209 86.1185 231.93 86.1185H106.682C102.389 86.1185 98.875 89.7398 98.875 94.1642V179.918C98.875 184.343 102.389 187.964 106.682 187.964H161.178V197.376Z" fill="#C5CFD1"/>
<path d="M115.049 167.195C111.768 167.195 109.102 164.433 109.102 161.051V103.858C109.102 100.477 111.768 97.715 115.049 97.715H223.549C226.816 97.715 229.496 100.477 229.496 103.858V161.051C229.496 164.433 226.816 167.195 223.549 167.195H115.049Z" fill="#597B91"/>
<mask id="mask0_285_49" style="mask-type:luminance" maskUnits="userSpaceOnUse" x="109" y="97" width="121" height="71">
<path d="M115.049 167.195C111.768 167.195 109.102 164.433 109.102 161.051V103.858C109.102 100.477 111.768 97.715 115.049 97.715H223.549C226.816 97.715 229.496 100.477 229.496 103.858V161.051C229.496 164.433 226.816 167.195 223.549 167.195H115.049Z" fill="white"/>
</mask>
<g mask="url(#mask0_285_49)">
<path d="M167.357 94.3192L142.912 174.296L105.137 173.902V95.1224L167.357 94.3192Z" fill="#10264E"/>
</g>
<path d="M123.525 223.021H217.068C218.531 223.021 219.721 224.247 219.721 225.754C219.721 227.262 218.531 228.488 217.068 228.488H123.525C122.076 228.488 120.873 227.262 120.873 225.754C120.873 224.233 122.076 223.021 123.525 223.021ZM219.611 241.662H120.996C119.533 241.662 118.344 240.437 118.344 238.929C118.344 237.421 119.533 236.195 120.996 236.195H219.625C220.328 236.197 221.002 236.487 221.498 237.001C221.995 237.515 222.272 238.211 222.271 238.936C222.269 239.661 221.988 240.356 221.489 240.867C220.99 241.378 220.315 241.664 219.611 241.662Z" fill="#10264E"/>
<path d="M223.289 104.112V160.784H115.309V104.112H223.289ZM223.562 97.715H115.049C111.768 97.715 109.102 100.477 109.102 103.858V161.051C109.102 164.433 111.768 167.195 115.049 167.195H223.549C226.816 167.195 229.496 164.433 229.496 161.051V103.858C229.496 100.477 226.816 97.715 223.562 97.715Z" fill="#597B91"/>
<path d="M40.3418 292.206H31.8262V289.628H34.209V280.243H31.8262V277.665H40.3418V280.243H37.959V289.628H40.3418V292.206ZM54.2188 292.206H50.6836V286.767C50.6836 286.324 50.6608 285.884 50.6152 285.448C50.5697 285.006 50.4915 284.68 50.3809 284.472C50.2507 284.231 50.0586 284.055 49.8047 283.944C49.5573 283.834 49.209 283.778 48.7598 283.778C48.4408 283.778 48.1152 283.83 47.7832 283.935C47.4577 284.039 47.1029 284.205 46.7188 284.433V292.206H43.2031V281.239H46.7188V282.45C47.3438 281.962 47.9427 281.588 48.5156 281.327C49.0951 281.067 49.7363 280.937 50.4395 280.937C51.6243 280.937 52.5488 281.282 53.2129 281.972C53.8835 282.662 54.2188 283.694 54.2188 285.067V292.206ZM68.5059 281.239L64.2773 292.206H60.293L56.0938 281.239H59.8145L62.3535 288.778L64.8633 281.239H68.5059ZM81.2695 287.372H73.2227C73.2747 288.231 73.6003 288.889 74.1992 289.345C74.8047 289.8 75.6934 290.028 76.8652 290.028C77.6074 290.028 78.3268 289.895 79.0234 289.628C79.7201 289.361 80.2702 289.075 80.6738 288.769H81.0645V291.591C80.2702 291.91 79.5215 292.141 78.8184 292.284C78.1152 292.427 77.3372 292.499 76.4844 292.499C74.2839 292.499 72.5977 292.004 71.4258 291.015C70.2539 290.025 69.668 288.616 69.668 286.786C69.668 284.976 70.2214 283.544 71.3281 282.489C72.4414 281.428 73.9648 280.897 75.8984 280.897C77.6823 280.897 79.0234 281.35 79.9219 282.255C80.8203 283.153 81.2695 284.449 81.2695 286.142V287.372ZM77.7734 285.312C77.7539 284.576 77.5716 284.022 77.2266 283.651C76.8815 283.28 76.3444 283.095 75.6152 283.095C74.9382 283.095 74.3815 283.271 73.9453 283.622C73.5091 283.974 73.265 284.537 73.2129 285.312H77.7734ZM94.7656 292.206H91.2305V286.767C91.2305 286.324 91.2077 285.884 91.1621 285.448C91.1165 285.006 91.0384 284.68 90.9277 284.472C90.7975 284.231 90.6055 284.055 90.3516 283.944C90.1042 283.834 89.7559 283.778 89.3066 283.778C88.9876 283.778 88.6621 283.83 88.3301 283.935C88.0046 284.039 87.6497 284.205 87.2656 284.433V292.206H83.75V281.239H87.2656V282.45C87.8906 281.962 88.4896 281.588 89.0625 281.327C89.6419 281.067 90.2832 280.937 90.9863 280.937C92.1712 280.937 93.0957 281.282 93.7598 281.972C94.4303 282.662 94.7656 283.694 94.7656 285.067V292.206ZM105.02 292.108C104.642 292.206 104.242 292.281 103.818 292.333C103.395 292.392 102.878 292.421 102.266 292.421C100.898 292.421 99.8796 292.144 99.209 291.591C98.5449 291.037 98.2129 290.09 98.2129 288.749V283.622H96.7676V281.239H98.2129V278.104H101.729V281.239H105.02V283.622H101.729V287.509C101.729 287.893 101.732 288.228 101.738 288.515C101.745 288.801 101.797 289.058 101.895 289.286C101.986 289.514 102.145 289.696 102.373 289.833C102.607 289.963 102.946 290.028 103.389 290.028C103.571 290.028 103.809 289.989 104.102 289.911C104.401 289.833 104.609 289.761 104.727 289.696H105.02V292.108ZM113.77 289.345V287.06C113.294 287.099 112.78 287.154 112.227 287.226C111.673 287.291 111.253 287.369 110.967 287.46C110.615 287.571 110.345 287.733 110.156 287.948C109.974 288.157 109.883 288.433 109.883 288.778C109.883 289.006 109.902 289.192 109.941 289.335C109.98 289.478 110.078 289.615 110.234 289.745C110.384 289.875 110.563 289.973 110.771 290.038C110.98 290.097 111.305 290.126 111.748 290.126C112.1 290.126 112.454 290.054 112.812 289.911C113.177 289.768 113.496 289.579 113.77 289.345ZM113.77 291.044C113.581 291.187 113.346 291.36 113.066 291.562C112.786 291.763 112.523 291.923 112.275 292.04C111.93 292.196 111.572 292.31 111.201 292.382C110.83 292.46 110.423 292.499 109.98 292.499C108.939 292.499 108.066 292.177 107.363 291.532C106.66 290.888 106.309 290.064 106.309 289.062C106.309 288.261 106.488 287.606 106.846 287.099C107.204 286.591 107.712 286.19 108.369 285.897C109.02 285.604 109.827 285.396 110.791 285.272C111.755 285.149 112.754 285.058 113.789 284.999V284.94C113.789 284.335 113.542 283.918 113.047 283.69C112.552 283.456 111.823 283.339 110.859 283.339C110.28 283.339 109.661 283.443 109.004 283.651C108.346 283.853 107.874 284.009 107.588 284.12H107.266V281.474C107.637 281.376 108.239 281.262 109.072 281.132C109.912 280.995 110.752 280.927 111.592 280.927C113.59 280.927 115.033 281.236 115.918 281.854C116.81 282.466 117.256 283.43 117.256 284.745V292.206H113.77V291.044ZM115.654 275.839V276.034L112.217 279.677H109.814L112.227 275.839H115.654ZM128.438 284.589H128.125C127.975 284.537 127.734 284.498 127.402 284.472C127.07 284.446 126.794 284.433 126.572 284.433C126.071 284.433 125.628 284.465 125.244 284.53C124.86 284.595 124.447 284.706 124.004 284.862V292.206H120.488V281.239H124.004V282.851C124.779 282.187 125.452 281.747 126.025 281.532C126.598 281.311 127.126 281.2 127.607 281.2C127.731 281.2 127.871 281.203 128.027 281.21C128.184 281.216 128.32 281.226 128.438 281.239V284.589ZM133.945 292.206H130.43V281.239H133.945V292.206ZM134.043 279.677H130.332V277.011H134.043V279.677ZM148.477 286.728C148.477 288.531 147.949 289.953 146.895 290.995C145.846 292.03 144.372 292.548 142.471 292.548C140.57 292.548 139.092 292.03 138.037 290.995C136.989 289.953 136.465 288.531 136.465 286.728C136.465 284.911 136.992 283.485 138.047 282.45C139.108 281.415 140.583 280.897 142.471 280.897C144.385 280.897 145.863 281.418 146.904 282.46C147.952 283.502 148.477 284.924 148.477 286.728ZM144.15 289.394C144.378 289.114 144.548 288.778 144.658 288.388C144.775 287.991 144.834 287.444 144.834 286.747C144.834 286.103 144.775 285.562 144.658 285.126C144.541 284.69 144.378 284.341 144.17 284.081C143.962 283.814 143.711 283.625 143.418 283.515C143.125 283.404 142.809 283.349 142.471 283.349C142.132 283.349 141.829 283.394 141.562 283.485C141.302 283.576 141.051 283.759 140.811 284.032C140.596 284.286 140.423 284.634 140.293 285.077C140.169 285.52 140.107 286.076 140.107 286.747C140.107 287.346 140.163 287.867 140.273 288.31C140.384 288.746 140.547 289.097 140.762 289.364C140.97 289.618 141.217 289.804 141.504 289.921C141.797 290.038 142.129 290.097 142.5 290.097C142.819 290.097 143.122 290.045 143.408 289.94C143.701 289.83 143.949 289.647 144.15 289.394ZM168.496 292.206H164.98V291.063C164.375 291.558 163.809 291.923 163.281 292.157C162.754 292.392 162.145 292.509 161.455 292.509C160.12 292.509 159.053 291.994 158.252 290.966C157.451 289.937 157.051 288.55 157.051 286.806C157.051 285.875 157.184 285.051 157.451 284.335C157.725 283.612 158.096 282.994 158.564 282.479C159.007 281.991 159.544 281.614 160.176 281.347C160.807 281.073 161.439 280.937 162.07 280.937C162.728 280.937 163.265 281.008 163.682 281.151C164.105 281.288 164.538 281.464 164.98 281.679V277.011H168.496V292.206ZM164.98 289.179V283.798C164.733 283.694 164.473 283.619 164.199 283.573C163.926 283.528 163.675 283.505 163.447 283.505C162.523 283.505 161.829 283.795 161.367 284.374C160.905 284.947 160.674 285.744 160.674 286.767C160.674 287.841 160.859 288.622 161.23 289.11C161.602 289.592 162.197 289.833 163.018 289.833C163.337 289.833 163.675 289.774 164.033 289.657C164.391 289.534 164.707 289.374 164.98 289.179ZM182.617 287.372H174.57C174.622 288.231 174.948 288.889 175.547 289.345C176.152 289.8 177.041 290.028 178.213 290.028C178.955 290.028 179.674 289.895 180.371 289.628C181.068 289.361 181.618 289.075 182.021 288.769H182.412V291.591C181.618 291.91 180.869 292.141 180.166 292.284C179.463 292.427 178.685 292.499 177.832 292.499C175.632 292.499 173.945 292.004 172.773 291.015C171.602 290.025 171.016 288.616 171.016 286.786C171.016 284.976 171.569 283.544 172.676 282.489C173.789 281.428 175.312 280.897 177.246 280.897C179.03 280.897 180.371 281.35 181.27 282.255C182.168 283.153 182.617 284.449 182.617 286.142V287.372ZM179.121 285.312C179.102 284.576 178.919 284.022 178.574 283.651C178.229 283.28 177.692 283.095 176.963 283.095C176.286 283.095 175.729 283.271 175.293 283.622C174.857 283.974 174.613 284.537 174.561 285.312H179.121ZM202.656 284.433V292.206H199.121V286.728C199.121 286.194 199.108 285.741 199.082 285.37C199.056 284.993 198.984 284.687 198.867 284.452C198.75 284.218 198.571 284.049 198.33 283.944C198.096 283.834 197.764 283.778 197.334 283.778C196.989 283.778 196.654 283.85 196.328 283.993C196.003 284.13 195.71 284.276 195.449 284.433V292.206H191.934V281.239H195.449V282.45C196.055 281.975 196.634 281.604 197.188 281.337C197.741 281.07 198.353 280.937 199.023 280.937C199.746 280.937 200.384 281.099 200.938 281.425C201.491 281.744 201.924 282.216 202.236 282.841C202.939 282.248 203.623 281.783 204.287 281.444C204.951 281.106 205.602 280.937 206.24 280.937C207.425 280.937 208.324 281.291 208.936 282.001C209.554 282.711 209.863 283.733 209.863 285.067V292.206H206.328V286.728C206.328 286.187 206.315 285.731 206.289 285.36C206.27 284.989 206.201 284.687 206.084 284.452C205.973 284.218 205.798 284.049 205.557 283.944C205.316 283.834 204.977 283.778 204.541 283.778C204.248 283.778 203.962 283.83 203.682 283.935C203.402 284.032 203.06 284.198 202.656 284.433ZM219.746 289.345V287.06C219.271 287.099 218.757 287.154 218.203 287.226C217.65 287.291 217.23 287.369 216.943 287.46C216.592 287.571 216.322 287.733 216.133 287.948C215.951 288.157 215.859 288.433 215.859 288.778C215.859 289.006 215.879 289.192 215.918 289.335C215.957 289.478 216.055 289.615 216.211 289.745C216.361 289.875 216.54 289.973 216.748 290.038C216.956 290.097 217.282 290.126 217.725 290.126C218.076 290.126 218.431 290.054 218.789 289.911C219.154 289.768 219.473 289.579 219.746 289.345ZM219.746 291.044C219.557 291.187 219.323 291.36 219.043 291.562C218.763 291.763 218.499 291.923 218.252 292.04C217.907 292.196 217.549 292.31 217.178 292.382C216.807 292.46 216.4 292.499 215.957 292.499C214.915 292.499 214.043 292.177 213.34 291.532C212.637 290.888 212.285 290.064 212.285 289.062C212.285 288.261 212.464 287.606 212.822 287.099C213.18 286.591 213.688 286.19 214.346 285.897C214.997 285.604 215.804 285.396 216.768 285.272C217.731 285.149 218.73 285.058 219.766 284.999V284.94C219.766 284.335 219.518 283.918 219.023 283.69C218.529 283.456 217.799 283.339 216.836 283.339C216.257 283.339 215.638 283.443 214.98 283.651C214.323 283.853 213.851 284.009 213.564 284.12H213.242V281.474C213.613 281.376 214.215 281.262 215.049 281.132C215.889 280.995 216.729 280.927 217.568 280.927C219.567 280.927 221.009 281.236 221.895 281.854C222.786 282.466 223.232 283.43 223.232 284.745V292.206H219.746V291.044ZM221.631 275.839V276.034L218.193 279.677H215.791L218.203 275.839H221.631ZM237.129 296.229H233.613V291.132C233.04 291.594 232.48 291.939 231.934 292.167C231.387 292.395 230.771 292.509 230.088 292.509C228.747 292.509 227.676 291.994 226.875 290.966C226.081 289.937 225.684 288.55 225.684 286.806C225.684 285.875 225.817 285.051 226.084 284.335C226.357 283.612 226.729 282.994 227.197 282.479C227.64 281.991 228.177 281.614 228.809 281.347C229.44 281.073 230.072 280.937 230.703 280.937C231.322 280.937 231.839 281.008 232.256 281.151C232.679 281.288 233.125 281.48 233.594 281.728L233.721 281.239H237.129V296.229ZM233.613 289.179V283.798C233.366 283.694 233.105 283.619 232.832 283.573C232.559 283.528 232.308 283.505 232.08 283.505C231.156 283.505 230.462 283.795 230 284.374C229.538 284.947 229.307 285.744 229.307 286.767C229.307 287.841 229.492 288.622 229.863 289.11C230.234 289.592 230.83 289.833 231.65 289.833C231.969 289.833 232.308 289.774 232.666 289.657C233.024 289.534 233.34 289.374 233.613 289.179ZM251.377 292.206H247.861V290.995C247.21 291.49 246.615 291.868 246.074 292.128C245.534 292.382 244.889 292.509 244.141 292.509C242.93 292.509 241.995 292.16 241.338 291.464C240.687 290.767 240.361 289.739 240.361 288.378V281.239H243.896V286.679C243.896 287.232 243.913 287.694 243.945 288.065C243.984 288.43 244.069 288.733 244.199 288.974C244.323 289.215 244.508 289.39 244.756 289.501C245.01 289.612 245.361 289.667 245.811 289.667C246.11 289.667 246.442 289.612 246.807 289.501C247.171 289.39 247.523 289.228 247.861 289.013V281.239H251.377V292.206ZM258.223 292.206H254.707V281.239H258.223V292.206ZM258.32 279.677H254.609V277.011H258.32V279.677ZM272.559 292.206H269.023V286.767C269.023 286.324 269.001 285.884 268.955 285.448C268.91 285.006 268.831 284.68 268.721 284.472C268.59 284.231 268.398 284.055 268.145 283.944C267.897 283.834 267.549 283.778 267.1 283.778C266.781 283.778 266.455 283.83 266.123 283.935C265.798 284.039 265.443 284.205 265.059 284.433V292.206H261.543V281.239H265.059V282.45C265.684 281.962 266.283 281.588 266.855 281.327C267.435 281.067 268.076 280.937 268.779 280.937C269.964 280.937 270.889 281.282 271.553 281.972C272.223 282.662 272.559 283.694 272.559 285.067V292.206ZM282.441 289.345V287.06C281.966 287.099 281.452 287.154 280.898 287.226C280.345 287.291 279.925 287.369 279.639 287.46C279.287 287.571 279.017 287.733 278.828 287.948C278.646 288.157 278.555 288.433 278.555 288.778C278.555 289.006 278.574 289.192 278.613 289.335C278.652 289.478 278.75 289.615 278.906 289.745C279.056 289.875 279.235 289.973 279.443 290.038C279.652 290.097 279.977 290.126 280.42 290.126C280.771 290.126 281.126 290.054 281.484 289.911C281.849 289.768 282.168 289.579 282.441 289.345ZM282.441 291.044C282.253 291.187 282.018 291.36 281.738 291.562C281.458 291.763 281.195 291.923 280.947 292.04C280.602 292.196 280.244 292.31 279.873 292.382C279.502 292.46 279.095 292.499 278.652 292.499C277.611 292.499 276.738 292.177 276.035 291.532C275.332 290.888 274.98 290.064 274.98 289.062C274.98 288.261 275.16 287.606 275.518 287.099C275.876 286.591 276.383 286.19 277.041 285.897C277.692 285.604 278.499 285.396 279.463 285.272C280.426 285.149 281.426 285.058 282.461 284.999V284.94C282.461 284.335 282.214 283.918 281.719 283.69C281.224 283.456 280.495 283.339 279.531 283.339C278.952 283.339 278.333 283.443 277.676 283.651C277.018 283.853 276.546 284.009 276.26 284.12H275.938V281.474C276.309 281.376 276.911 281.262 277.744 281.132C278.584 280.995 279.424 280.927 280.264 280.927C282.262 280.927 283.704 281.236 284.59 281.854C285.482 282.466 285.928 283.43 285.928 284.745V292.206H282.441V291.044ZM298.691 288.729C298.691 289.862 298.184 290.777 297.168 291.474C296.152 292.164 294.762 292.509 292.998 292.509C292.021 292.509 291.136 292.418 290.342 292.235C289.548 292.053 288.91 291.851 288.428 291.63V288.739H288.75C288.926 288.863 289.128 289 289.355 289.149C289.59 289.293 289.919 289.449 290.342 289.618C290.706 289.768 291.12 289.898 291.582 290.009C292.044 290.113 292.539 290.165 293.066 290.165C293.757 290.165 294.268 290.09 294.6 289.94C294.932 289.784 295.098 289.556 295.098 289.257C295.098 288.99 295 288.798 294.805 288.681C294.609 288.557 294.238 288.44 293.691 288.329C293.431 288.271 293.076 288.209 292.627 288.144C292.184 288.072 291.781 287.987 291.416 287.89C290.42 287.629 289.681 287.226 289.199 286.679C288.717 286.125 288.477 285.438 288.477 284.618C288.477 283.563 288.975 282.688 289.971 281.991C290.973 281.288 292.34 280.937 294.072 280.937C294.893 280.937 295.677 281.021 296.426 281.19C297.181 281.353 297.77 281.529 298.193 281.718V284.491H297.891C297.37 284.133 296.774 283.843 296.104 283.622C295.439 283.394 294.766 283.28 294.082 283.28C293.516 283.28 293.037 283.358 292.646 283.515C292.262 283.671 292.07 283.892 292.07 284.179C292.07 284.439 292.158 284.638 292.334 284.774C292.51 284.911 292.923 285.048 293.574 285.185C293.932 285.256 294.316 285.328 294.727 285.399C295.143 285.465 295.56 285.549 295.977 285.653C296.901 285.894 297.585 286.275 298.027 286.796C298.47 287.31 298.691 287.955 298.691 288.729Z" fill="white"/>
<defs>
<linearGradient id="paint0_linear_285_49" x1="165" y1="0" x2="165" y2="505" gradientUnits="userSpaceOnUse">
<stop offset="0.505" stop-color="#A2A2A2"/>
<stop offset="1" stop-color="#3C3C3C"/>
</linearGradient>
</defs>
</svg>
