<svg width="145" height="145" viewBox="0 0 145 145" fill="none" xmlns="http://www.w3.org/2000/svg">
<g clip-path="url(#clip0_285_49)">
<path d="M100.776 59.6908C99.6959 58.2722 97.3094 57.5158 95.4856 57.5612C94.7417 57.5786 94.0582 57.7633 93.5409 58.1781C92.9443 58.0596 92.4081 57.84 92.1966 57.4148C92.0267 57.0836 92.1476 56.6898 92.3666 56.0868C92.5894 55.4768 92.8423 54.7832 92.5818 54.0442C92.2533 53.1171 91.1658 52.0052 87.7485 52.0574C87.3784 52.0609 87.0763 52.3433 87.0839 52.6883C87.0877 53.0299 87.3897 53.3053 87.756 53.3053H87.7673C89.7498 53.2774 91.0374 53.6957 91.2979 54.4311C91.4188 54.7762 91.264 55.1979 91.0865 55.6859C90.8486 56.3308 90.5578 57.1324 90.9732 57.9446C91.347 58.6765 92.0569 59.0634 92.8272 59.283C92.5478 60.7191 94.3528 62.2144 95.5498 62.8662C96.8412 63.5668 98.6084 64.006 100.036 63.4762C101.871 62.8035 101.754 60.984 100.776 59.6908ZM87.7145 55.3095H58.7636C58.3595 55.3095 57.9631 55.6058 57.8838 55.9717L56.2223 63.4832C56.143 63.8457 56.4035 64.1454 56.8076 64.1454H89.6705C90.0707 64.1454 90.3351 63.8491 90.2558 63.4832L88.5943 55.9717C88.5112 55.6058 88.1185 55.3095 87.7145 55.3095ZM70.828 50.9037H65.1753C64.3106 50.9037 63.6045 51.5102 63.6045 52.2561V53.5597H82.5413V52.2561C82.5413 51.5137 81.8314 50.9037 80.9667 50.9037H75.3177V48.5719H90.369C91.5509 48.5719 92.5214 47.6761 92.5214 46.5816V25.3719C92.5214 24.2774 91.5509 23.3816 90.369 23.3816H55.7767C54.591 23.3816 53.6206 24.2774 53.6206 25.3719V46.5851C53.6206 47.6795 54.591 48.5753 55.7767 48.5753H70.828V50.9037Z" fill="#C5CFD1"/>
<path d="M58.0874 43.4376C57.1812 43.4376 56.4448 42.7545 56.4448 41.9179V27.77C56.4448 26.9334 57.1812 26.2502 58.0874 26.2502H88.0541C88.9565 26.2502 89.6966 26.9334 89.6966 27.77V41.9179C89.6966 42.7545 88.9565 43.4376 88.0541 43.4376H58.0874Z" fill="#597B91"/>
<mask id="mask0_285_49" style="mask-type:luminance" maskUnits="userSpaceOnUse" x="56" y="26" width="34" height="18">
<path d="M58.0874 43.4376C57.1812 43.4376 56.4448 42.7545 56.4448 41.9179V27.77C56.4448 26.9334 57.1812 26.2502 58.0874 26.2502H88.0541C88.9565 26.2502 89.6966 26.9334 89.6966 27.77V41.9179C89.6966 42.7545 88.9565 43.4376 88.0541 43.4376H58.0874Z" fill="white"/>
</mask>
<g mask="url(#mask0_285_49)">
<path d="M72.5344 25.4103L65.7828 45.1944L55.3496 45.0968V25.609L72.5344 25.4103Z" fill="#10264E"/>
</g>
<path d="M60.4287 57.2474H86.2644C86.6684 57.2474 86.9969 57.5507 86.9969 57.9236C86.9969 58.2966 86.6684 58.5998 86.2644 58.5998H60.4287C60.0284 58.5998 59.6961 58.2966 59.6961 57.9236C59.6961 57.5472 60.0284 57.2474 60.4287 57.2474ZM86.9667 61.8589H59.7301C59.3261 61.8589 58.9976 61.5556 58.9976 61.1827C58.9976 60.8097 59.3261 60.5065 59.7301 60.5065H86.9705C87.1648 60.5069 87.3509 60.5786 87.4879 60.7057C87.6249 60.8329 87.7016 61.0051 87.7011 61.1844C87.7006 61.3637 87.623 61.5355 87.4852 61.662C87.3475 61.7885 87.161 61.8593 86.9667 61.8589Z" fill="#10264E"/>
<path d="M87.9823 27.8327V41.8517H58.1591V27.8327H87.9823ZM88.0578 26.2502H58.0874C57.1812 26.2502 56.4448 26.9334 56.4448 27.77V41.9179C56.4448 42.7545 57.1812 43.4376 58.0874 43.4376H88.0541C88.9565 43.4376 89.6966 42.7545 89.6966 41.9179V27.77C89.6966 26.9334 88.9565 26.2502 88.0578 26.2502Z" fill="#597B91"/>
</g>
<path d="M32.4863 79.1383H27.377V77.5914H28.8066V71.9606H27.377V70.4137H32.4863V71.9606H31.0566V77.5914H32.4863V79.1383ZM40.8125 79.1383H38.6914V75.8746C38.6914 75.609 38.6777 75.3453 38.6504 75.0836C38.623 74.818 38.5762 74.6227 38.5098 74.4977C38.4316 74.3531 38.3164 74.2477 38.1641 74.1813C38.0156 74.1149 37.8066 74.0817 37.5371 74.0817C37.3457 74.0817 37.1504 74.1129 36.9512 74.1754C36.7559 74.2379 36.543 74.3375 36.3125 74.4742V79.1383H34.2031V72.5582H36.3125V73.2848C36.6875 72.9918 37.0469 72.7672 37.3906 72.611C37.7383 72.4547 38.123 72.3766 38.5449 72.3766C39.2559 72.3766 39.8105 72.5836 40.209 72.9977C40.6113 73.4117 40.8125 74.0309 40.8125 74.8551V79.1383ZM49.3848 72.5582L46.8477 79.1383H44.457L41.9375 72.5582H44.1699L45.6934 77.0817L47.1992 72.5582H49.3848ZM57.043 76.2379H52.2148C52.2461 76.7535 52.4414 77.1481 52.8008 77.4215C53.1641 77.6949 53.6973 77.8317 54.4004 77.8317C54.8457 77.8317 55.2773 77.7516 55.6953 77.5914C56.1133 77.4313 56.4434 77.2594 56.6855 77.0758H56.9199V78.7692C56.4434 78.9606 55.9941 79.0992 55.5723 79.1852C55.1504 79.2711 54.6836 79.3141 54.1719 79.3141C52.8516 79.3141 51.8398 79.0172 51.1367 78.4235C50.4336 77.8297 50.082 76.984 50.082 75.8864C50.082 74.8004 50.4141 73.941 51.0781 73.3082C51.7461 72.6715 52.6602 72.3531 53.8203 72.3531C54.8906 72.3531 55.6953 72.6246 56.2344 73.1676C56.7734 73.7067 57.043 74.484 57.043 75.4996V76.2379ZM54.9453 75.0016C54.9336 74.5602 54.8242 74.2281 54.6172 74.0055C54.4102 73.7828 54.0879 73.6715 53.6504 73.6715C53.2441 73.6715 52.9102 73.777 52.6484 73.9879C52.3867 74.1989 52.2402 74.5367 52.209 75.0016H54.9453ZM65.1406 79.1383H63.0195V75.8746C63.0195 75.609 63.0059 75.3453 62.9785 75.0836C62.9512 74.818 62.9043 74.6227 62.8379 74.4977C62.7598 74.3531 62.6445 74.2477 62.4922 74.1813C62.3438 74.1149 62.1348 74.0817 61.8652 74.0817C61.6738 74.0817 61.4785 74.1129 61.2793 74.1754C61.084 74.2379 60.8711 74.3375 60.6406 74.4742V79.1383H58.5312V72.5582H60.6406V73.2848C61.0156 72.9918 61.375 72.7672 61.7188 72.611C62.0664 72.4547 62.4512 72.3766 62.873 72.3766C63.584 72.3766 64.1387 72.5836 64.5371 72.9977C64.9395 73.4117 65.1406 74.0309 65.1406 74.8551V79.1383ZM71.293 79.0797C71.0664 79.1383 70.8262 79.1832 70.5723 79.2145C70.3184 79.2496 70.0078 79.2672 69.6406 79.2672C68.8203 79.2672 68.209 79.1012 67.8066 78.7692C67.4082 78.4371 67.209 77.8688 67.209 77.0641V73.9879H66.3418V72.5582H67.209V70.6774H69.3184V72.5582H71.293V73.9879H69.3184V76.3199C69.3184 76.5504 69.3203 76.7516 69.3242 76.9235C69.3281 77.0953 69.3594 77.2496 69.418 77.3864C69.4727 77.5231 69.5684 77.6324 69.7051 77.7145C69.8457 77.7926 70.0488 77.8317 70.3145 77.8317C70.4238 77.8317 70.5664 77.8082 70.7422 77.7614C70.9219 77.7145 71.0469 77.6715 71.1172 77.6324H71.293V79.0797ZM76.543 77.4215V76.0504C76.2578 76.0739 75.9492 76.1071 75.6172 76.15C75.2852 76.1891 75.0332 76.236 74.8613 76.2906C74.6504 76.3571 74.4883 76.4547 74.375 76.5836C74.2656 76.7086 74.2109 76.8746 74.2109 77.0817C74.2109 77.2184 74.2227 77.3297 74.2461 77.4156C74.2695 77.5016 74.3281 77.5836 74.4219 77.6617C74.5117 77.7399 74.6191 77.7985 74.7441 77.8375C74.8691 77.8727 75.0645 77.8903 75.3301 77.8903C75.541 77.8903 75.7539 77.8473 75.9688 77.7614C76.1875 77.6754 76.3789 77.5621 76.543 77.4215ZM76.543 78.441C76.4297 78.527 76.2891 78.6305 76.1211 78.7516C75.9531 78.8727 75.7949 78.9684 75.6465 79.0387C75.4395 79.1324 75.2246 79.2008 75.002 79.2438C74.7793 79.2906 74.5352 79.3141 74.2695 79.3141C73.6445 79.3141 73.1211 79.1207 72.6992 78.734C72.2773 78.3473 72.0664 77.8531 72.0664 77.2516C72.0664 76.7711 72.1738 76.3785 72.3887 76.0739C72.6035 75.7692 72.9082 75.5289 73.3027 75.3531C73.6934 75.1774 74.1777 75.0524 74.7559 74.9781C75.334 74.9039 75.9336 74.8492 76.5547 74.8141V74.7789C76.5547 74.4156 76.4062 74.1656 76.1094 74.0289C75.8125 73.8883 75.375 73.818 74.7969 73.818C74.4492 73.818 74.0781 73.8805 73.6836 74.0055C73.2891 74.1266 73.0059 74.2203 72.834 74.2867H72.6406V72.6989C72.8633 72.6403 73.2246 72.5719 73.7246 72.4938C74.2285 72.4117 74.7324 72.3707 75.2363 72.3707C76.4355 72.3707 77.3008 72.5563 77.832 72.9274C78.3672 73.2946 78.6348 73.8727 78.6348 74.6617V79.1383H76.543V78.441ZM77.6738 69.318V69.4352L75.6113 71.6207H74.1699L75.6172 69.318H77.6738ZM85.3438 74.568H85.1562C85.0664 74.5367 84.9219 74.5133 84.7227 74.4977C84.5234 74.4821 84.3574 74.4742 84.2246 74.4742C83.9238 74.4742 83.6582 74.4938 83.4277 74.5328C83.1973 74.5719 82.9492 74.6383 82.6836 74.7321V79.1383H80.5742V72.5582H82.6836V73.525C83.1484 73.1266 83.5527 72.8629 83.8965 72.734C84.2402 72.6012 84.5566 72.5348 84.8457 72.5348C84.9199 72.5348 85.0039 72.5367 85.0977 72.5406C85.1914 72.5446 85.2734 72.5504 85.3438 72.5582V74.568ZM88.6484 79.1383H86.5391V72.5582H88.6484V79.1383ZM88.707 71.6207H86.4805V70.0211H88.707V71.6207ZM97.3672 75.8512C97.3672 76.9332 97.0508 77.7867 96.418 78.4117C95.7891 79.0328 94.9043 79.3434 93.7637 79.3434C92.623 79.3434 91.7363 79.0328 91.1035 78.4117C90.4746 77.7867 90.1602 76.9332 90.1602 75.8512C90.1602 74.7614 90.4766 73.9059 91.1094 73.2848C91.7461 72.6637 92.6309 72.3531 93.7637 72.3531C94.9121 72.3531 95.7988 72.6656 96.4238 73.2906C97.0527 73.9156 97.3672 74.7692 97.3672 75.8512ZM94.7715 77.4508C94.9082 77.2828 95.0098 77.0817 95.0762 76.8473C95.1465 76.609 95.1816 76.2809 95.1816 75.8629C95.1816 75.4762 95.1465 75.152 95.0762 74.8903C95.0059 74.6285 94.9082 74.4196 94.7832 74.2633C94.6582 74.1031 94.5078 73.9899 94.332 73.9235C94.1562 73.8571 93.9668 73.8239 93.7637 73.8239C93.5605 73.8239 93.3789 73.8512 93.2188 73.9059C93.0625 73.9606 92.9121 74.0699 92.7676 74.234C92.6387 74.3864 92.5352 74.5953 92.457 74.861C92.3828 75.1266 92.3457 75.4606 92.3457 75.8629C92.3457 76.2223 92.3789 76.5348 92.4453 76.8004C92.5117 77.0621 92.6094 77.2731 92.7383 77.4332C92.8633 77.5856 93.0117 77.6969 93.1836 77.7672C93.3594 77.8375 93.5586 77.8727 93.7812 77.8727C93.9727 77.8727 94.1543 77.8414 94.3262 77.7789C94.502 77.7125 94.6504 77.6031 94.7715 77.4508ZM109.379 79.1383H107.27V78.4528C106.906 78.7496 106.566 78.9684 106.25 79.109C105.934 79.2496 105.568 79.3199 105.154 79.3199C104.354 79.3199 103.713 79.0114 103.232 78.3942C102.752 77.777 102.512 76.9449 102.512 75.8981C102.512 75.3395 102.592 74.8453 102.752 74.4156C102.916 73.9821 103.139 73.611 103.42 73.3024C103.686 73.0094 104.008 72.7828 104.387 72.6227C104.766 72.4586 105.145 72.3766 105.523 72.3766C105.918 72.3766 106.24 72.4196 106.49 72.5055C106.744 72.5875 107.004 72.693 107.27 72.8219V70.0211H109.379V79.1383ZM107.27 77.3219V74.0934C107.121 74.0309 106.965 73.986 106.801 73.9586C106.637 73.9313 106.486 73.9176 106.35 73.9176C105.795 73.9176 105.379 74.0914 105.102 74.4391C104.824 74.7828 104.686 75.2614 104.686 75.8746C104.686 76.5192 104.797 76.9879 105.02 77.2809C105.242 77.5699 105.6 77.7145 106.092 77.7145C106.283 77.7145 106.486 77.6793 106.701 77.609C106.916 77.5348 107.105 77.4391 107.27 77.3219ZM117.852 76.2379H113.023C113.055 76.7535 113.25 77.1481 113.609 77.4215C113.973 77.6949 114.506 77.8317 115.209 77.8317C115.654 77.8317 116.086 77.7516 116.504 77.5914C116.922 77.4313 117.252 77.2594 117.494 77.0758H117.729V78.7692C117.252 78.9606 116.803 79.0992 116.381 79.1852C115.959 79.2711 115.492 79.3141 114.98 79.3141C113.66 79.3141 112.648 79.0172 111.945 78.4235C111.242 77.8297 110.891 76.984 110.891 75.8864C110.891 74.8004 111.223 73.941 111.887 73.3082C112.555 72.6715 113.469 72.3531 114.629 72.3531C115.699 72.3531 116.504 72.6246 117.043 73.1676C117.582 73.7067 117.852 74.484 117.852 75.4996V76.2379ZM115.754 75.0016C115.742 74.5602 115.633 74.2281 115.426 74.0055C115.219 73.7828 114.896 73.6715 114.459 73.6715C114.053 73.6715 113.719 73.777 113.457 73.9879C113.195 74.1989 113.049 74.5367 113.018 75.0016H115.754ZM47.1992 89.4742V94.1383H45.0781V90.8512C45.0781 90.5309 45.0703 90.2594 45.0547 90.0367C45.0391 89.8102 44.9961 89.6266 44.9258 89.486C44.8555 89.3453 44.748 89.2438 44.6035 89.1813C44.4629 89.1149 44.2637 89.0817 44.0059 89.0817C43.7988 89.0817 43.5977 89.1246 43.4023 89.2106C43.207 89.2926 43.0312 89.3805 42.875 89.4742V94.1383H40.7656V87.5582H42.875V88.2848C43.2383 87.9996 43.5859 87.777 43.918 87.6168C44.25 87.4567 44.6172 87.3766 45.0195 87.3766C45.4531 87.3766 45.8359 87.4742 46.168 87.6696C46.5 87.861 46.7598 88.1442 46.9473 88.5192C47.3691 88.1637 47.7793 87.8844 48.1777 87.6813C48.5762 87.4781 48.9668 87.3766 49.3496 87.3766C50.0605 87.3766 50.5996 87.5895 50.9668 88.0153C51.3379 88.441 51.5234 89.0543 51.5234 89.8551V94.1383H49.4023V90.8512C49.4023 90.527 49.3945 90.2535 49.3789 90.0309C49.3672 89.8082 49.3262 89.6266 49.2559 89.486C49.1895 89.3453 49.084 89.2438 48.9395 89.1813C48.7949 89.1149 48.5918 89.0817 48.3301 89.0817C48.1543 89.0817 47.9824 89.1129 47.8145 89.1754C47.6465 89.234 47.4414 89.3336 47.1992 89.4742ZM57.4531 92.4215V91.0504C57.168 91.0739 56.8594 91.1071 56.5273 91.15C56.1953 91.1891 55.9434 91.236 55.7715 91.2906C55.5605 91.3571 55.3984 91.4547 55.2852 91.5836C55.1758 91.7086 55.1211 91.8746 55.1211 92.0817C55.1211 92.2184 55.1328 92.3297 55.1562 92.4156C55.1797 92.5016 55.2383 92.5836 55.332 92.6617C55.4219 92.7399 55.5293 92.7985 55.6543 92.8375C55.7793 92.8727 55.9746 92.8903 56.2402 92.8903C56.4512 92.8903 56.6641 92.8473 56.8789 92.7614C57.0977 92.6754 57.2891 92.5621 57.4531 92.4215ZM57.4531 93.441C57.3398 93.527 57.1992 93.6305 57.0312 93.7516C56.8633 93.8727 56.7051 93.9684 56.5566 94.0387C56.3496 94.1324 56.1348 94.2008 55.9121 94.2438C55.6895 94.2906 55.4453 94.3141 55.1797 94.3141C54.5547 94.3141 54.0312 94.1207 53.6094 93.734C53.1875 93.3473 52.9766 92.8531 52.9766 92.2516C52.9766 91.7711 53.084 91.3785 53.2988 91.0739C53.5137 90.7692 53.8184 90.5289 54.2129 90.3531C54.6035 90.1774 55.0879 90.0524 55.666 89.9781C56.2441 89.9039 56.8438 89.8492 57.4648 89.8141V89.7789C57.4648 89.4156 57.3164 89.1656 57.0195 89.0289C56.7227 88.8883 56.2852 88.818 55.707 88.818C55.3594 88.818 54.9883 88.8805 54.5938 89.0055C54.1992 89.1266 53.916 89.2203 53.7441 89.2867H53.5508V87.6989C53.7734 87.6403 54.1348 87.5719 54.6348 87.4938C55.1387 87.4117 55.6426 87.3707 56.1465 87.3707C57.3457 87.3707 58.2109 87.5563 58.7422 87.9274C59.2773 88.2946 59.5449 88.8727 59.5449 89.6617V94.1383H57.4531V93.441ZM58.584 84.318V84.4352L56.5215 86.6207H55.0801L56.5273 84.318H58.584ZM67.8828 96.5524H65.7734V93.4938C65.4297 93.7711 65.0938 93.9781 64.7656 94.1149C64.4375 94.2516 64.0684 94.3199 63.6582 94.3199C62.8535 94.3199 62.2109 94.0114 61.7305 93.3942C61.2539 92.777 61.0156 91.9449 61.0156 90.8981C61.0156 90.3395 61.0957 89.8453 61.2559 89.4156C61.4199 88.9821 61.6426 88.611 61.9238 88.3024C62.1895 88.0094 62.5117 87.7828 62.8906 87.6227C63.2695 87.4586 63.6484 87.3766 64.0273 87.3766C64.3984 87.3766 64.709 87.4196 64.959 87.5055C65.2129 87.5875 65.4805 87.7028 65.7617 87.8512L65.8379 87.5582H67.8828V96.5524ZM65.7734 92.3219V89.0934C65.625 89.0309 65.4688 88.986 65.3047 88.9586C65.1406 88.9313 64.9902 88.9176 64.8535 88.9176C64.2988 88.9176 63.8828 89.0914 63.6055 89.4391C63.3281 89.7828 63.1895 90.2614 63.1895 90.8746C63.1895 91.5192 63.3008 91.9879 63.5234 92.2809C63.7461 92.5699 64.1035 92.7145 64.5957 92.7145C64.7871 92.7145 64.9902 92.6793 65.2051 92.609C65.4199 92.5348 65.6094 92.4391 65.7734 92.3219ZM76.4316 94.1383H74.3223V93.4117C73.9316 93.7086 73.5742 93.9352 73.25 94.0914C72.9258 94.2438 72.5391 94.3199 72.0898 94.3199C71.3633 94.3199 70.8027 94.111 70.4082 93.693C70.0176 93.275 69.8223 92.6578 69.8223 91.8414V87.5582H71.9434V90.8219C71.9434 91.1539 71.9531 91.4313 71.9727 91.6539C71.9961 91.8727 72.0469 92.0543 72.125 92.1989C72.1992 92.3434 72.3105 92.4489 72.459 92.5153C72.6113 92.5817 72.8223 92.6149 73.0918 92.6149C73.2715 92.6149 73.4707 92.5817 73.6895 92.5153C73.9082 92.4489 74.1191 92.3512 74.3223 92.2223V87.5582H76.4316V94.1383ZM80.5391 94.1383H78.4297V87.5582H80.5391V94.1383ZM80.5977 86.6207H78.3711V85.0211H80.5977V86.6207ZM89.1406 94.1383H87.0195V90.8746C87.0195 90.609 87.0059 90.3453 86.9785 90.0836C86.9512 89.818 86.9043 89.6227 86.8379 89.4977C86.7598 89.3531 86.6445 89.2477 86.4922 89.1813C86.3438 89.1149 86.1348 89.0817 85.8652 89.0817C85.6738 89.0817 85.4785 89.1129 85.2793 89.1754C85.084 89.2379 84.8711 89.3375 84.6406 89.4742V94.1383H82.5312V87.5582H84.6406V88.2848C85.0156 87.9918 85.375 87.7672 85.7188 87.611C86.0664 87.4547 86.4512 87.3766 86.873 87.3766C87.584 87.3766 88.1387 87.5836 88.5371 87.9977C88.9395 88.4117 89.1406 89.0309 89.1406 89.8551V94.1383ZM95.0703 92.4215V91.0504C94.7852 91.0739 94.4766 91.1071 94.1445 91.15C93.8125 91.1891 93.5605 91.236 93.3887 91.2906C93.1777 91.3571 93.0156 91.4547 92.9023 91.5836C92.793 91.7086 92.7383 91.8746 92.7383 92.0817C92.7383 92.2184 92.75 92.3297 92.7734 92.4156C92.7969 92.5016 92.8555 92.5836 92.9492 92.6617C93.0391 92.7399 93.1465 92.7985 93.2715 92.8375C93.3965 92.8727 93.5918 92.8903 93.8574 92.8903C94.0684 92.8903 94.2812 92.8473 94.4961 92.7614C94.7148 92.6754 94.9062 92.5621 95.0703 92.4215ZM95.0703 93.441C94.957 93.527 94.8164 93.6305 94.6484 93.7516C94.4805 93.8727 94.3223 93.9684 94.1738 94.0387C93.9668 94.1324 93.752 94.2008 93.5293 94.2438C93.3066 94.2906 93.0625 94.3141 92.7969 94.3141C92.1719 94.3141 91.6484 94.1207 91.2266 93.734C90.8047 93.3473 90.5938 92.8531 90.5938 92.2516C90.5938 91.7711 90.7012 91.3785 90.916 91.0739C91.1309 90.7692 91.4355 90.5289 91.8301 90.3531C92.2207 90.1774 92.7051 90.0524 93.2832 89.9781C93.8613 89.9039 94.4609 89.8492 95.082 89.8141V89.7789C95.082 89.4156 94.9336 89.1656 94.6367 89.0289C94.3398 88.8883 93.9023 88.818 93.3242 88.818C92.9766 88.818 92.6055 88.8805 92.2109 89.0055C91.8164 89.1266 91.5332 89.2203 91.3613 89.2867H91.168V87.6989C91.3906 87.6403 91.752 87.5719 92.252 87.4938C92.7559 87.4117 93.2598 87.3707 93.7637 87.3707C94.9629 87.3707 95.8281 87.5563 96.3594 87.9274C96.8945 88.2946 97.1621 88.8727 97.1621 89.6617V94.1383H95.0703V93.441ZM104.82 92.0524C104.82 92.7321 104.516 93.2809 103.906 93.6989C103.297 94.1129 102.463 94.3199 101.404 94.3199C100.818 94.3199 100.287 94.2653 99.8105 94.1559C99.334 94.0465 98.9512 93.9254 98.6621 93.7926V92.0582H98.8555C98.9609 92.1324 99.082 92.2145 99.2188 92.3043C99.3594 92.3903 99.5566 92.484 99.8105 92.5856C100.029 92.6754 100.277 92.7535 100.555 92.8199C100.832 92.8824 101.129 92.9137 101.445 92.9137C101.859 92.9137 102.166 92.8688 102.365 92.7789C102.564 92.6852 102.664 92.5485 102.664 92.3688C102.664 92.2086 102.605 92.0934 102.488 92.0231C102.371 91.9489 102.148 91.8785 101.82 91.8121C101.664 91.777 101.451 91.7399 101.182 91.7008C100.916 91.6578 100.674 91.6071 100.455 91.5485C99.8574 91.3922 99.4141 91.15 99.125 90.8219C98.8359 90.4899 98.6914 90.0778 98.6914 89.5856C98.6914 88.9528 98.9902 88.4274 99.5879 88.0094C100.189 87.5875 101.01 87.3766 102.049 87.3766C102.541 87.3766 103.012 87.4274 103.461 87.5289C103.914 87.6266 104.268 87.7321 104.521 87.8453V89.5094H104.34C104.027 89.2946 103.67 89.1207 103.268 88.9879C102.869 88.8512 102.465 88.7828 102.055 88.7828C101.715 88.7828 101.428 88.8297 101.193 88.9235C100.963 89.0172 100.848 89.15 100.848 89.3219C100.848 89.4781 100.9 89.5973 101.006 89.6793C101.111 89.7614 101.359 89.8434 101.75 89.9254C101.965 89.9684 102.195 90.0114 102.441 90.0543C102.691 90.0934 102.941 90.1442 103.191 90.2067C103.746 90.3512 104.156 90.5797 104.422 90.8922C104.688 91.2008 104.82 91.5875 104.82 92.0524Z" fill="white"/>
<defs>
<clipPath id="clip0_285_49">
<rect width="48.3333" height="44.6154" fill="white" transform="translate(53.3789 21.4541)"/>
</clipPath>
</defs>
</svg>
