<svg width="182" height="196" viewBox="0 0 182 196" fill="none" xmlns="http://www.w3.org/2000/svg">
<rect width="182" height="196" rx="25" fill="url(#paint0_linear_285_49)" fill-opacity="0.85"/>
<path d="M127.799 80.4218C126.413 78.514 123.352 77.4968 121.013 77.5578C120.058 77.5812 119.182 77.8297 118.518 78.3875C117.753 78.2281 117.065 77.9328 116.794 77.3609C116.576 76.9156 116.731 76.3859 117.012 75.575C117.298 74.7547 117.622 73.8219 117.288 72.8281C116.866 71.5812 115.471 70.0859 111.088 70.1562C110.613 70.1609 110.226 70.5406 110.235 71.0047C110.24 71.464 110.628 71.8343 111.098 71.8343H111.112C113.655 71.7968 115.307 72.3594 115.641 73.3484C115.796 73.8125 115.597 74.3797 115.37 75.0359C115.065 75.9031 114.692 76.9812 115.224 78.0734C115.704 79.0578 116.615 79.5781 117.603 79.8734C117.244 81.8047 119.56 83.8156 121.095 84.6922C122.752 85.6344 125.018 86.225 126.849 85.5125C129.203 84.6078 129.053 82.1609 127.799 80.4218ZM111.044 74.5297H73.9072C73.389 74.5297 72.8804 74.9281 72.7787 75.4203L70.6474 85.5219C70.5457 86.0094 70.8799 86.4125 71.3982 86.4125H113.553C114.067 86.4125 114.406 86.014 114.304 85.5219L112.173 75.4203C112.066 74.9281 111.563 74.5297 111.044 74.5297ZM89.383 68.6047H82.1319C81.0227 68.6047 80.1169 69.4203 80.1169 70.4234V72.1765H104.408V70.4234C104.408 69.425 103.498 68.6047 102.388 68.6047H95.1422V65.4687H114.449C115.966 65.4687 117.21 64.264 117.21 62.7922V34.2687C117.21 32.7969 115.966 31.5922 114.449 31.5922H70.0758C68.5549 31.5922 67.3101 32.7969 67.3101 34.2687V62.7969C67.3101 64.2687 68.5549 65.4734 70.0758 65.4734H89.383V68.6047Z" fill="#C5CFD1"/>
<path d="M73.0401 58.564C71.8776 58.564 70.9331 57.6453 70.9331 56.5203V37.4937C70.9331 36.3687 71.8776 35.45 73.0401 35.45H111.48C112.638 35.45 113.587 36.3687 113.587 37.4937V56.5203C113.587 57.6453 112.638 58.564 111.48 58.564H73.0401Z" fill="#597B91"/>
<mask id="mask0_285_49" style="mask-type:luminance" maskUnits="userSpaceOnUse" x="70" y="35" width="44" height="24">
<path d="M73.0401 58.564C71.8776 58.564 70.9331 57.6453 70.9331 56.5203V37.4937C70.9331 36.3687 71.8776 35.45 73.0401 35.45H111.48C112.638 35.45 113.587 36.3687 113.587 37.4937V56.5203C113.587 57.6453 112.638 58.564 111.48 58.564H73.0401Z" fill="white"/>
</mask>
<g mask="url(#mask0_285_49)">
<path d="M91.5722 34.3203L82.9116 60.9266L69.5283 60.7953V34.5875L91.5722 34.3203Z" fill="#10264E"/>
</g>
<path d="M76.0433 77.136H109.184C109.703 77.136 110.124 77.5438 110.124 78.0454C110.124 78.5469 109.703 78.9547 109.184 78.9547H76.0433C75.5299 78.9547 75.1036 78.5469 75.1036 78.0454C75.1036 77.5391 75.5299 77.136 76.0433 77.136ZM110.085 83.3375H75.1472C74.6289 83.3375 74.2075 82.9297 74.2075 82.4282C74.2075 81.9266 74.6289 81.5188 75.1472 81.5188H110.09C110.339 81.5194 110.578 81.6158 110.754 81.7868C110.93 81.9578 111.028 82.1893 111.027 82.4305C111.027 82.6717 110.927 82.9028 110.75 83.0729C110.574 83.243 110.334 83.3382 110.085 83.3375Z" fill="#10264E"/>
<path d="M111.388 37.5781V56.4312H73.1322V37.5781H111.388ZM111.485 35.45H73.0401C71.8776 35.45 70.9331 36.3687 70.9331 37.4937V56.5203C70.9331 57.6453 71.8776 58.564 73.0401 58.564H111.48C112.638 58.564 113.587 57.6453 113.587 56.5203V37.4937C113.587 36.3687 112.638 35.45 111.485 35.45Z" fill="#597B91"/>
<path d="M16.2051 115.215H11.0957V113.668H12.5254V108.037H11.0957V106.49H16.2051V108.037H14.7754V113.668H16.2051V115.215ZM24.5312 115.215H22.4102V111.951C22.4102 111.685 22.3965 111.422 22.3691 111.16C22.3418 110.894 22.2949 110.699 22.2285 110.574C22.1504 110.429 22.0352 110.324 21.8828 110.258C21.7344 110.191 21.5254 110.158 21.2559 110.158C21.0645 110.158 20.8691 110.189 20.6699 110.252C20.4746 110.314 20.2617 110.414 20.0312 110.551V115.215H17.9219V108.635H20.0312V109.361C20.4062 109.068 20.7656 108.844 21.1094 108.687C21.457 108.531 21.8418 108.453 22.2637 108.453C22.9746 108.453 23.5293 108.66 23.9277 109.074C24.3301 109.488 24.5312 110.107 24.5312 110.931V115.215ZM33.1035 108.635L30.5664 115.215H28.1758L25.6562 108.635H27.8887L29.4121 113.158L30.918 108.635H33.1035ZM40.7617 112.314H35.9336C35.9648 112.83 36.1602 113.224 36.5195 113.498C36.8828 113.771 37.416 113.908 38.1191 113.908C38.5645 113.908 38.9961 113.828 39.4141 113.668C39.832 113.508 40.1621 113.336 40.4043 113.152H40.6387V114.845C40.1621 115.037 39.7129 115.176 39.291 115.261C38.8691 115.347 38.4023 115.39 37.8906 115.39C36.5703 115.39 35.5586 115.094 34.8555 114.5C34.1523 113.906 33.8008 113.06 33.8008 111.963C33.8008 110.877 34.1328 110.017 34.7969 109.385C35.4648 108.748 36.3789 108.429 37.5391 108.429C38.6094 108.429 39.4141 108.701 39.9531 109.244C40.4922 109.783 40.7617 110.56 40.7617 111.576V112.314ZM38.6641 111.078C38.6523 110.636 38.543 110.304 38.3359 110.082C38.1289 109.859 37.8066 109.748 37.3691 109.748C36.9629 109.748 36.6289 109.853 36.3672 110.064C36.1055 110.275 35.959 110.613 35.9277 111.078H38.6641ZM48.8594 115.215H46.7383V111.951C46.7383 111.685 46.7246 111.422 46.6973 111.16C46.6699 110.894 46.623 110.699 46.5566 110.574C46.4785 110.429 46.3633 110.324 46.2109 110.258C46.0625 110.191 45.8535 110.158 45.584 110.158C45.3926 110.158 45.1973 110.189 44.998 110.252C44.8027 110.314 44.5898 110.414 44.3594 110.551V115.215H42.25V108.635H44.3594V109.361C44.7344 109.068 45.0938 108.844 45.4375 108.687C45.7852 108.531 46.1699 108.453 46.5918 108.453C47.3027 108.453 47.8574 108.66 48.2559 109.074C48.6582 109.488 48.8594 110.107 48.8594 110.931V115.215ZM55.0117 115.156C54.7852 115.215 54.5449 115.26 54.291 115.291C54.0371 115.326 53.7266 115.344 53.3594 115.344C52.5391 115.344 51.9277 115.177 51.5254 114.845C51.127 114.513 50.9277 113.945 50.9277 113.14V110.064H50.0605V108.635H50.9277V106.754H53.0371V108.635H55.0117V110.064H53.0371V112.396C53.0371 112.627 53.0391 112.828 53.043 113C53.0469 113.172 53.0781 113.326 53.1367 113.463C53.1914 113.599 53.2871 113.709 53.4238 113.791C53.5645 113.869 53.7676 113.908 54.0332 113.908C54.1426 113.908 54.2852 113.885 54.4609 113.838C54.6406 113.791 54.7656 113.748 54.8359 113.709H55.0117V115.156ZM60.2617 113.498V112.127C59.9766 112.15 59.668 112.183 59.3359 112.226C59.0039 112.265 58.752 112.312 58.5801 112.367C58.3691 112.433 58.207 112.531 58.0938 112.66C57.9844 112.785 57.9297 112.951 57.9297 113.158C57.9297 113.295 57.9414 113.406 57.9648 113.492C57.9883 113.578 58.0469 113.66 58.1406 113.738C58.2305 113.816 58.3379 113.875 58.4629 113.914C58.5879 113.949 58.7832 113.967 59.0488 113.967C59.2598 113.967 59.4727 113.924 59.6875 113.838C59.9062 113.752 60.0977 113.638 60.2617 113.498ZM60.2617 114.517C60.1484 114.603 60.0078 114.707 59.8398 114.828C59.6719 114.949 59.5137 115.045 59.3652 115.115C59.1582 115.209 58.9434 115.277 58.7207 115.32C58.498 115.367 58.2539 115.39 57.9883 115.39C57.3633 115.39 56.8398 115.197 56.418 114.81C55.9961 114.424 55.7852 113.929 55.7852 113.328C55.7852 112.847 55.8926 112.455 56.1074 112.15C56.3223 111.845 56.627 111.605 57.0215 111.429C57.4121 111.254 57.8965 111.129 58.4746 111.054C59.0527 110.98 59.6523 110.926 60.2734 110.89V110.855C60.2734 110.492 60.125 110.242 59.8281 110.105C59.5312 109.965 59.0938 109.894 58.5156 109.894C58.168 109.894 57.7969 109.957 57.4023 110.082C57.0078 110.203 56.7246 110.297 56.5527 110.363H56.3594V108.775C56.582 108.717 56.9434 108.648 57.4434 108.57C57.9473 108.488 58.4512 108.447 58.9551 108.447C60.1543 108.447 61.0195 108.633 61.5508 109.004C62.0859 109.371 62.3535 109.949 62.3535 110.738V115.215H60.2617V114.517ZM61.3926 105.394V105.511L59.3301 107.697H57.8887L59.3359 105.394H61.3926ZM69.0625 110.644H68.875C68.7852 110.613 68.6406 110.59 68.4414 110.574C68.2422 110.558 68.0762 110.551 67.9434 110.551C67.6426 110.551 67.377 110.57 67.1465 110.609C66.916 110.648 66.668 110.715 66.4023 110.808V115.215H64.293V108.635H66.4023V109.601C66.8672 109.203 67.2715 108.939 67.6152 108.81C67.959 108.677 68.2754 108.611 68.5645 108.611C68.6387 108.611 68.7227 108.613 68.8164 108.617C68.9102 108.621 68.9922 108.627 69.0625 108.635V110.644ZM72.3672 115.215H70.2578V108.635H72.3672V115.215ZM72.4258 107.697H70.1992V106.097H72.4258V107.697ZM81.0859 111.927C81.0859 113.01 80.7695 113.863 80.1367 114.488C79.5078 115.109 78.623 115.42 77.4824 115.42C76.3418 115.42 75.4551 115.109 74.8223 114.488C74.1934 113.863 73.8789 113.01 73.8789 111.927C73.8789 110.838 74.1953 109.982 74.8281 109.361C75.4648 108.74 76.3496 108.429 77.4824 108.429C78.6309 108.429 79.5176 108.742 80.1426 109.367C80.7715 109.992 81.0859 110.845 81.0859 111.927ZM78.4902 113.527C78.627 113.359 78.7285 113.158 78.7949 112.924C78.8652 112.685 78.9004 112.357 78.9004 111.939C78.9004 111.552 78.8652 111.228 78.7949 110.967C78.7246 110.705 78.627 110.496 78.502 110.34C78.377 110.179 78.2266 110.066 78.0508 110C77.875 109.933 77.6855 109.9 77.4824 109.9C77.2793 109.9 77.0977 109.927 76.9375 109.982C76.7812 110.037 76.6309 110.146 76.4863 110.31C76.3574 110.463 76.2539 110.672 76.1758 110.937C76.1016 111.203 76.0645 111.537 76.0645 111.939C76.0645 112.299 76.0977 112.611 76.1641 112.877C76.2305 113.138 76.3281 113.349 76.457 113.51C76.582 113.662 76.7305 113.773 76.9023 113.844C77.0781 113.914 77.2773 113.949 77.5 113.949C77.6914 113.949 77.873 113.918 78.0449 113.855C78.2207 113.789 78.3691 113.679 78.4902 113.527ZM93.0977 115.215H90.9883V114.529C90.625 114.826 90.2852 115.045 89.9688 115.185C89.6523 115.326 89.2871 115.396 88.873 115.396C88.0723 115.396 87.4316 115.088 86.9512 114.47C86.4707 113.853 86.2305 113.021 86.2305 111.974C86.2305 111.416 86.3105 110.922 86.4707 110.492C86.6348 110.058 86.8574 109.687 87.1387 109.379C87.4043 109.086 87.7266 108.859 88.1055 108.699C88.4844 108.535 88.8633 108.453 89.2422 108.453C89.6367 108.453 89.959 108.496 90.209 108.582C90.4629 108.664 90.7227 108.769 90.9883 108.898V106.097H93.0977V115.215ZM90.9883 113.398V110.17C90.8398 110.107 90.6836 110.062 90.5195 110.035C90.3555 110.008 90.2051 109.994 90.0684 109.994C89.5137 109.994 89.0977 110.168 88.8203 110.515C88.543 110.859 88.4043 111.338 88.4043 111.951C88.4043 112.595 88.5156 113.064 88.7383 113.357C88.9609 113.646 89.3184 113.791 89.8105 113.791C90.002 113.791 90.2051 113.756 90.4199 113.685C90.6348 113.611 90.8242 113.515 90.9883 113.398ZM101.57 112.314H96.7422C96.7734 112.83 96.9688 113.224 97.3281 113.498C97.6914 113.771 98.2246 113.908 98.9277 113.908C99.373 113.908 99.8047 113.828 100.223 113.668C100.641 113.508 100.971 113.336 101.213 113.152H101.447V114.845C100.971 115.037 100.521 115.176 100.1 115.261C99.6777 115.347 99.2109 115.39 98.6992 115.39C97.3789 115.39 96.3672 115.094 95.6641 114.5C94.9609 113.906 94.6094 113.06 94.6094 111.963C94.6094 110.877 94.9414 110.017 95.6055 109.385C96.2734 108.748 97.1875 108.429 98.3477 108.429C99.418 108.429 100.223 108.701 100.762 109.244C101.301 109.783 101.57 110.56 101.57 111.576V112.314ZM99.4727 111.078C99.4609 110.636 99.3516 110.304 99.1445 110.082C98.9375 109.859 98.6152 109.748 98.1777 109.748C97.7715 109.748 97.4375 109.853 97.1758 110.064C96.9141 110.275 96.7676 110.613 96.7363 111.078H99.4727ZM113.594 110.551V115.215H111.473V111.927C111.473 111.607 111.465 111.336 111.449 111.113C111.434 110.886 111.391 110.703 111.32 110.562C111.25 110.422 111.143 110.32 110.998 110.258C110.857 110.191 110.658 110.158 110.4 110.158C110.193 110.158 109.992 110.201 109.797 110.287C109.602 110.369 109.426 110.457 109.27 110.551V115.215H107.16V108.635H109.27V109.361C109.633 109.076 109.98 108.853 110.312 108.693C110.645 108.533 111.012 108.453 111.414 108.453C111.848 108.453 112.23 108.551 112.562 108.746C112.895 108.937 113.154 109.22 113.342 109.595C113.764 109.24 114.174 108.961 114.572 108.758C114.971 108.554 115.361 108.453 115.744 108.453C116.455 108.453 116.994 108.666 117.361 109.092C117.732 109.517 117.918 110.131 117.918 110.931V115.215H115.797V111.927C115.797 111.603 115.789 111.33 115.773 111.107C115.762 110.885 115.721 110.703 115.65 110.562C115.584 110.422 115.479 110.32 115.334 110.258C115.189 110.191 114.986 110.158 114.725 110.158C114.549 110.158 114.377 110.189 114.209 110.252C114.041 110.31 113.836 110.41 113.594 110.551ZM123.848 113.498V112.127C123.562 112.15 123.254 112.183 122.922 112.226C122.59 112.265 122.338 112.312 122.166 112.367C121.955 112.433 121.793 112.531 121.68 112.66C121.57 112.785 121.516 112.951 121.516 113.158C121.516 113.295 121.527 113.406 121.551 113.492C121.574 113.578 121.633 113.66 121.727 113.738C121.816 113.816 121.924 113.875 122.049 113.914C122.174 113.949 122.369 113.967 122.635 113.967C122.846 113.967 123.059 113.924 123.273 113.838C123.492 113.752 123.684 113.638 123.848 113.498ZM123.848 114.517C123.734 114.603 123.594 114.707 123.426 114.828C123.258 114.949 123.1 115.045 122.951 115.115C122.744 115.209 122.529 115.277 122.307 115.32C122.084 115.367 121.84 115.39 121.574 115.39C120.949 115.39 120.426 115.197 120.004 114.81C119.582 114.424 119.371 113.929 119.371 113.328C119.371 112.847 119.479 112.455 119.693 112.15C119.908 111.845 120.213 111.605 120.607 111.429C120.998 111.254 121.482 111.129 122.061 111.054C122.639 110.98 123.238 110.926 123.859 110.89V110.855C123.859 110.492 123.711 110.242 123.414 110.105C123.117 109.965 122.68 109.894 122.102 109.894C121.754 109.894 121.383 109.957 120.988 110.082C120.594 110.203 120.311 110.297 120.139 110.363H119.945V108.775C120.168 108.717 120.529 108.648 121.029 108.57C121.533 108.488 122.037 108.447 122.541 108.447C123.74 108.447 124.605 108.633 125.137 109.004C125.672 109.371 125.939 109.949 125.939 110.738V115.215H123.848V114.517ZM124.979 105.394V105.511L122.916 107.697H121.475L122.922 105.394H124.979ZM134.277 117.629H132.168V114.57C131.824 114.847 131.488 115.054 131.16 115.191C130.832 115.328 130.463 115.396 130.053 115.396C129.248 115.396 128.605 115.088 128.125 114.47C127.648 113.853 127.41 113.021 127.41 111.974C127.41 111.416 127.49 110.922 127.65 110.492C127.814 110.058 128.037 109.687 128.318 109.379C128.584 109.086 128.906 108.859 129.285 108.699C129.664 108.535 130.043 108.453 130.422 108.453C130.793 108.453 131.104 108.496 131.354 108.582C131.607 108.664 131.875 108.779 132.156 108.927L132.232 108.635H134.277V117.629ZM132.168 113.398V110.17C132.02 110.107 131.863 110.062 131.699 110.035C131.535 110.008 131.385 109.994 131.248 109.994C130.693 109.994 130.277 110.168 130 110.515C129.723 110.859 129.584 111.338 129.584 111.951C129.584 112.595 129.695 113.064 129.918 113.357C130.141 113.646 130.498 113.791 130.99 113.791C131.182 113.791 131.385 113.756 131.6 113.685C131.814 113.611 132.004 113.515 132.168 113.398ZM142.826 115.215H140.717V114.488C140.326 114.785 139.969 115.011 139.645 115.168C139.32 115.32 138.934 115.396 138.484 115.396C137.758 115.396 137.197 115.187 136.803 114.769C136.412 114.351 136.217 113.734 136.217 112.918V108.635H138.338V111.898C138.338 112.23 138.348 112.508 138.367 112.73C138.391 112.949 138.441 113.131 138.52 113.275C138.594 113.42 138.705 113.525 138.854 113.592C139.006 113.658 139.217 113.691 139.486 113.691C139.666 113.691 139.865 113.658 140.084 113.592C140.303 113.525 140.514 113.427 140.717 113.299V108.635H142.826V115.215ZM146.934 115.215H144.824V108.635H146.934V115.215ZM146.992 107.697H144.766V106.097H146.992V107.697ZM155.535 115.215H153.414V111.951C153.414 111.685 153.4 111.422 153.373 111.16C153.346 110.894 153.299 110.699 153.232 110.574C153.154 110.429 153.039 110.324 152.887 110.258C152.738 110.191 152.529 110.158 152.26 110.158C152.068 110.158 151.873 110.189 151.674 110.252C151.479 110.314 151.266 110.414 151.035 110.551V115.215H148.926V108.635H151.035V109.361C151.41 109.068 151.77 108.844 152.113 108.687C152.461 108.531 152.846 108.453 153.268 108.453C153.979 108.453 154.533 108.66 154.932 109.074C155.334 109.488 155.535 110.107 155.535 110.931V115.215ZM161.465 113.498V112.127C161.18 112.15 160.871 112.183 160.539 112.226C160.207 112.265 159.955 112.312 159.783 112.367C159.572 112.433 159.41 112.531 159.297 112.66C159.188 112.785 159.133 112.951 159.133 113.158C159.133 113.295 159.145 113.406 159.168 113.492C159.191 113.578 159.25 113.66 159.344 113.738C159.434 113.816 159.541 113.875 159.666 113.914C159.791 113.949 159.986 113.967 160.252 113.967C160.463 113.967 160.676 113.924 160.891 113.838C161.109 113.752 161.301 113.638 161.465 113.498ZM161.465 114.517C161.352 114.603 161.211 114.707 161.043 114.828C160.875 114.949 160.717 115.045 160.568 115.115C160.361 115.209 160.146 115.277 159.924 115.32C159.701 115.367 159.457 115.39 159.191 115.39C158.566 115.39 158.043 115.197 157.621 114.81C157.199 114.424 156.988 113.929 156.988 113.328C156.988 112.847 157.096 112.455 157.311 112.15C157.525 111.845 157.83 111.605 158.225 111.429C158.615 111.254 159.1 111.129 159.678 111.054C160.256 110.98 160.855 110.926 161.477 110.89V110.855C161.477 110.492 161.328 110.242 161.031 110.105C160.734 109.965 160.297 109.894 159.719 109.894C159.371 109.894 159 109.957 158.605 110.082C158.211 110.203 157.928 110.297 157.756 110.363H157.562V108.775C157.785 108.717 158.146 108.648 158.646 108.57C159.15 108.488 159.654 108.447 160.158 108.447C161.357 108.447 162.223 108.633 162.754 109.004C163.289 109.371 163.557 109.949 163.557 110.738V115.215H161.465V114.517ZM171.215 113.129C171.215 113.808 170.91 114.357 170.301 114.775C169.691 115.189 168.857 115.396 167.799 115.396C167.213 115.396 166.682 115.342 166.205 115.232C165.729 115.123 165.346 115.002 165.057 114.869V113.135H165.25C165.355 113.209 165.477 113.291 165.613 113.381C165.754 113.467 165.951 113.56 166.205 113.662C166.424 113.752 166.672 113.83 166.949 113.896C167.227 113.959 167.523 113.99 167.84 113.99C168.254 113.99 168.561 113.945 168.76 113.855C168.959 113.761 169.059 113.625 169.059 113.445C169.059 113.285 169 113.17 168.883 113.099C168.766 113.025 168.543 112.955 168.215 112.888C168.059 112.853 167.846 112.816 167.576 112.777C167.311 112.734 167.068 112.683 166.85 112.625C166.252 112.469 165.809 112.226 165.52 111.898C165.23 111.566 165.086 111.154 165.086 110.662C165.086 110.029 165.385 109.504 165.982 109.086C166.584 108.664 167.404 108.453 168.443 108.453C168.936 108.453 169.406 108.504 169.855 108.605C170.309 108.703 170.662 108.808 170.916 108.922V110.586H170.734C170.422 110.371 170.064 110.197 169.662 110.064C169.264 109.927 168.859 109.859 168.449 109.859C168.109 109.859 167.822 109.906 167.588 110C167.357 110.094 167.242 110.226 167.242 110.398C167.242 110.554 167.295 110.674 167.4 110.756C167.506 110.838 167.754 110.92 168.145 111.002C168.359 111.045 168.59 111.088 168.836 111.131C169.086 111.17 169.336 111.22 169.586 111.283C170.141 111.427 170.551 111.656 170.816 111.969C171.082 112.277 171.215 112.664 171.215 113.129Z" fill="white"/>
<defs>
<linearGradient id="paint0_linear_285_49" x1="91" y1="0" x2="91" y2="196" gradientUnits="userSpaceOnUse">
<stop offset="0.505" stop-color="#A2A2A2"/>
<stop offset="1" stop-color="#3C3C3C"/>
</linearGradient>
</defs>
</svg>
