<svg width="245" height="400" viewBox="0 0 245 400" fill="none" xmlns="http://www.w3.org/2000/svg">
<rect width="245" height="400" rx="25" fill="url(#paint0_linear_285_50)" fill-opacity="0.85098"/>
<path d="M153.311 140.042H90.9464C87.9244 140.042 85.4746 137.349 85.4746 134.026V70.4576C85.4746 67.1348 87.9244 64.4412 90.9464 64.4412H153.311C156.333 64.4412 158.783 67.1348 158.783 70.4576V134.026C158.783 137.348 156.333 140.042 153.311 140.042Z" fill="#E8E8E8"/>
<path d="M174.107 202.548H70.1501C64.2068 202.548 59.3887 197.25 59.3887 190.715V130.474C59.3887 123.939 64.2068 118.641 70.1503 118.641H174.107C180.05 118.641 184.869 123.939 184.869 130.474V190.715C184.869 197.25 180.05 202.548 174.107 202.548Z" fill="#C5CFD1"/>
<path d="M166.549 140.042C169.344 140.042 171.61 137.551 171.61 134.477C171.61 131.403 169.344 128.912 166.549 128.912C163.753 128.912 161.487 131.403 161.487 134.477C161.487 137.551 163.753 140.042 166.549 140.042Z" fill="white"/>
<path d="M152.087 140.042C154.882 140.042 157.148 137.551 157.148 134.477C157.148 131.403 154.882 128.912 152.087 128.912C149.291 128.912 147.025 131.403 147.025 134.477C147.025 137.551 149.291 140.042 152.087 140.042Z" fill="#FF473E"/>
<path d="M153.36 147.978H90.8975C84.2183 147.978 78.7358 153.855 78.7358 161.199V202.387H81.0197V202.666H165.521V161.199C165.521 153.855 160.039 147.978 153.36 147.978ZM83.5572 176.438V161.199C83.5572 156.688 86.7944 153.001 90.8975 153.001H153.36C157.463 153.001 160.7 156.688 160.7 161.199V176.438H83.5572ZM116.133 81.1481H95.932C95.5152 81.14 95.118 80.9522 94.8259 80.6252C94.5338 80.2982 94.3701 79.8582 94.3701 79.3998C94.3701 78.9415 94.5338 78.5014 94.8259 78.1745C95.118 77.8475 95.5152 77.6597 95.932 77.6515H116.133C116.549 77.6597 116.947 77.8475 117.239 78.1745C117.531 78.5014 117.695 78.9415 117.695 79.3998C117.695 79.8582 117.531 80.2982 117.239 80.6252C116.947 80.9522 116.549 81.14 116.133 81.1481ZM151.1 79.3998C151.1 78.9361 150.932 78.4914 150.634 78.1636C150.336 77.8357 149.931 77.6515 149.51 77.6515H123.944C123.522 77.6515 123.117 77.8357 122.819 78.1636C122.521 78.4914 122.354 78.9361 122.354 79.3998C122.354 79.8635 122.521 80.3082 122.819 80.6361C123.117 80.9639 123.522 81.1481 123.944 81.1481H149.51C149.931 81.1481 150.336 80.9639 150.634 80.6361C150.932 80.3082 151.1 79.8635 151.1 79.3998ZM148.011 106.204C148.011 105.741 147.844 105.296 147.546 104.968C147.247 104.64 146.843 104.456 146.421 104.456H115.496C115.079 104.464 114.682 104.652 114.39 104.979C114.098 105.306 113.934 105.746 113.934 106.204C113.934 106.663 114.098 107.103 114.39 107.43C114.682 107.757 115.079 107.944 115.496 107.953H146.421C146.843 107.953 147.247 107.768 147.546 107.44C147.844 107.113 148.011 106.668 148.011 106.204ZM140.597 92.8022C140.597 92.5726 140.556 92.3452 140.476 92.1331C140.396 91.921 140.279 91.7283 140.131 91.5659C139.983 91.4036 139.808 91.2748 139.615 91.1869C139.422 91.0991 139.216 91.0538 139.007 91.0538H95.9318C95.515 91.062 95.1178 91.2498 94.8257 91.5768C94.5336 91.9038 94.3699 92.3438 94.3699 92.8022C94.3699 93.2605 94.5336 93.7005 94.8257 94.0275C95.1178 94.3545 95.515 94.5423 95.9318 94.5505H139.007C139.216 94.5505 139.423 94.5053 139.615 94.4174C139.808 94.3295 139.984 94.2007 140.131 94.0384C140.279 93.876 140.396 93.6833 140.476 93.4712C140.556 93.2591 140.597 93.0317 140.597 92.8022ZM108.442 106.204C108.442 105.741 108.274 105.296 107.976 104.968C107.678 104.64 107.274 104.456 106.852 104.456H95.9318C95.515 104.464 95.1178 104.652 94.8257 104.979C94.5336 105.306 94.3699 105.746 94.3699 106.204C94.3699 106.663 94.5336 107.103 94.8257 107.43C95.1178 107.757 95.515 107.944 95.9318 107.953H106.852C107.274 107.953 107.678 107.768 107.976 107.44C108.275 107.113 108.442 106.668 108.442 106.204Z" fill="#10264E"/>
<path d="M55.8105 225.52H47.2949V222.942H49.6777V213.557H47.2949V210.979H55.8105V213.557H53.4277V222.942H55.8105V225.52ZM69.6875 225.52H66.1523V220.08C66.1523 219.637 66.1296 219.198 66.084 218.762C66.0384 218.319 65.9603 217.994 65.8496 217.785C65.7194 217.544 65.5273 217.369 65.2734 217.258C65.026 217.147 64.6777 217.092 64.2285 217.092C63.9095 217.092 63.584 217.144 63.252 217.248C62.9264 217.352 62.5716 217.518 62.1875 217.746V225.52H58.6719V214.553H62.1875V215.764C62.8125 215.276 63.4115 214.901 63.9844 214.641C64.5638 214.38 65.2051 214.25 65.9082 214.25C67.0931 214.25 68.0176 214.595 68.6816 215.285C69.3522 215.975 69.6875 217.007 69.6875 218.381V225.52ZM83.9746 214.553L79.7461 225.52H75.7617L71.5625 214.553H75.2832L77.8223 222.092L80.332 214.553H83.9746ZM96.7383 220.686H88.6914C88.7435 221.545 89.069 222.203 89.668 222.658C90.2734 223.114 91.1621 223.342 92.334 223.342C93.0762 223.342 93.7956 223.208 94.4922 222.942C95.1888 222.675 95.7389 222.388 96.1426 222.082H96.5332V224.904C95.7389 225.223 94.9902 225.455 94.2871 225.598C93.584 225.741 92.806 225.813 91.9531 225.813C89.7526 225.813 88.0664 225.318 86.8945 224.328C85.7227 223.339 85.1367 221.929 85.1367 220.1C85.1367 218.29 85.6901 216.858 86.7969 215.803C87.9102 214.742 89.4336 214.211 91.3672 214.211C93.151 214.211 94.4922 214.664 95.3906 215.568C96.2891 216.467 96.7383 217.762 96.7383 219.455V220.686ZM93.2422 218.625C93.2227 217.889 93.0404 217.336 92.6953 216.965C92.3503 216.594 91.8132 216.408 91.084 216.408C90.4069 216.408 89.8503 216.584 89.4141 216.936C88.9779 217.287 88.7337 217.85 88.6816 218.625H93.2422ZM110.234 225.52H106.699V220.08C106.699 219.637 106.676 219.198 106.631 218.762C106.585 218.319 106.507 217.994 106.396 217.785C106.266 217.544 106.074 217.369 105.82 217.258C105.573 217.147 105.225 217.092 104.775 217.092C104.456 217.092 104.131 217.144 103.799 217.248C103.473 217.352 103.118 217.518 102.734 217.746V225.52H99.2188V214.553H102.734V215.764C103.359 215.276 103.958 214.901 104.531 214.641C105.111 214.38 105.752 214.25 106.455 214.25C107.64 214.25 108.564 214.595 109.229 215.285C109.899 215.975 110.234 217.007 110.234 218.381V225.52ZM120.488 225.422C120.111 225.52 119.71 225.595 119.287 225.647C118.864 225.705 118.346 225.734 117.734 225.734C116.367 225.734 115.348 225.458 114.678 224.904C114.014 224.351 113.682 223.404 113.682 222.063V216.936H112.236V214.553H113.682V211.418H117.197V214.553H120.488V216.936H117.197V220.822C117.197 221.207 117.201 221.542 117.207 221.828C117.214 222.115 117.266 222.372 117.363 222.6C117.454 222.828 117.614 223.01 117.842 223.147C118.076 223.277 118.415 223.342 118.857 223.342C119.04 223.342 119.277 223.303 119.57 223.225C119.87 223.147 120.078 223.075 120.195 223.01H120.488V225.422ZM129.238 222.658V220.373C128.763 220.412 128.249 220.468 127.695 220.539C127.142 220.604 126.722 220.682 126.436 220.774C126.084 220.884 125.814 221.047 125.625 221.262C125.443 221.47 125.352 221.747 125.352 222.092C125.352 222.32 125.371 222.505 125.41 222.649C125.449 222.792 125.547 222.929 125.703 223.059C125.853 223.189 126.032 223.287 126.24 223.352C126.449 223.41 126.774 223.44 127.217 223.44C127.568 223.44 127.923 223.368 128.281 223.225C128.646 223.082 128.965 222.893 129.238 222.658ZM129.238 224.358C129.049 224.501 128.815 224.673 128.535 224.875C128.255 225.077 127.992 225.236 127.744 225.354C127.399 225.51 127.041 225.624 126.67 225.695C126.299 225.774 125.892 225.813 125.449 225.813C124.408 225.813 123.535 225.49 122.832 224.846C122.129 224.201 121.777 223.378 121.777 222.375C121.777 221.574 121.956 220.92 122.314 220.412C122.673 219.904 123.18 219.504 123.838 219.211C124.489 218.918 125.296 218.71 126.26 218.586C127.223 218.462 128.223 218.371 129.258 218.313V218.254C129.258 217.649 129.01 217.232 128.516 217.004C128.021 216.77 127.292 216.652 126.328 216.652C125.749 216.652 125.13 216.757 124.473 216.965C123.815 217.167 123.343 217.323 123.057 217.434H122.734V214.787C123.105 214.69 123.708 214.576 124.541 214.445C125.381 214.309 126.221 214.24 127.061 214.24C129.059 214.24 130.501 214.55 131.387 215.168C132.279 215.78 132.725 216.744 132.725 218.059V225.52H129.238V224.358ZM131.123 209.152V209.348L127.686 212.99H125.283L127.695 209.152H131.123ZM143.906 217.902H143.594C143.444 217.85 143.203 217.811 142.871 217.785C142.539 217.759 142.262 217.746 142.041 217.746C141.54 217.746 141.097 217.779 140.713 217.844C140.329 217.909 139.915 218.02 139.473 218.176V225.52H135.957V214.553H139.473V216.164C140.247 215.5 140.921 215.061 141.494 214.846C142.067 214.624 142.594 214.514 143.076 214.514C143.2 214.514 143.34 214.517 143.496 214.524C143.652 214.53 143.789 214.54 143.906 214.553V217.902ZM149.414 225.52H145.898V214.553H149.414V225.52ZM149.512 212.99H145.801V210.324H149.512V212.99ZM163.945 220.041C163.945 221.845 163.418 223.267 162.363 224.309C161.315 225.344 159.84 225.861 157.939 225.861C156.038 225.861 154.561 225.344 153.506 224.309C152.458 223.267 151.934 221.845 151.934 220.041C151.934 218.225 152.461 216.799 153.516 215.764C154.577 214.729 156.051 214.211 157.939 214.211C159.854 214.211 161.331 214.732 162.373 215.774C163.421 216.815 163.945 218.238 163.945 220.041ZM159.619 222.707C159.847 222.427 160.016 222.092 160.127 221.701C160.244 221.304 160.303 220.757 160.303 220.061C160.303 219.416 160.244 218.876 160.127 218.44C160.01 218.003 159.847 217.655 159.639 217.395C159.43 217.128 159.18 216.939 158.887 216.828C158.594 216.718 158.278 216.662 157.939 216.662C157.601 216.662 157.298 216.708 157.031 216.799C156.771 216.89 156.52 217.072 156.279 217.346C156.064 217.6 155.892 217.948 155.762 218.391C155.638 218.833 155.576 219.39 155.576 220.061C155.576 220.66 155.632 221.18 155.742 221.623C155.853 222.059 156.016 222.411 156.23 222.678C156.439 222.932 156.686 223.117 156.973 223.234C157.266 223.352 157.598 223.41 157.969 223.41C158.288 223.41 158.59 223.358 158.877 223.254C159.17 223.143 159.417 222.961 159.619 222.707ZM183.965 225.52H180.449V224.377C179.844 224.872 179.277 225.236 178.75 225.471C178.223 225.705 177.614 225.822 176.924 225.822C175.589 225.822 174.521 225.308 173.721 224.279C172.92 223.251 172.52 221.864 172.52 220.119C172.52 219.188 172.653 218.365 172.92 217.649C173.193 216.926 173.564 216.307 174.033 215.793C174.476 215.305 175.013 214.927 175.645 214.66C176.276 214.387 176.908 214.25 177.539 214.25C178.197 214.25 178.734 214.322 179.15 214.465C179.574 214.602 180.007 214.777 180.449 214.992V210.324H183.965V225.52ZM180.449 222.492V217.111C180.202 217.007 179.941 216.932 179.668 216.887C179.395 216.841 179.144 216.818 178.916 216.818C177.992 216.818 177.298 217.108 176.836 217.688C176.374 218.261 176.143 219.058 176.143 220.08C176.143 221.154 176.328 221.936 176.699 222.424C177.07 222.906 177.666 223.147 178.486 223.147C178.805 223.147 179.144 223.088 179.502 222.971C179.86 222.847 180.176 222.688 180.449 222.492ZM198.086 220.686H190.039C190.091 221.545 190.417 222.203 191.016 222.658C191.621 223.114 192.51 223.342 193.682 223.342C194.424 223.342 195.143 223.208 195.84 222.942C196.536 222.675 197.087 222.388 197.49 222.082H197.881V224.904C197.087 225.223 196.338 225.455 195.635 225.598C194.932 225.741 194.154 225.813 193.301 225.813C191.1 225.813 189.414 225.318 188.242 224.328C187.07 223.339 186.484 221.929 186.484 220.1C186.484 218.29 187.038 216.858 188.145 215.803C189.258 214.742 190.781 214.211 192.715 214.211C194.499 214.211 195.84 214.664 196.738 215.568C197.637 216.467 198.086 217.762 198.086 219.455V220.686ZM194.59 218.625C194.57 217.889 194.388 217.336 194.043 216.965C193.698 216.594 193.161 216.408 192.432 216.408C191.755 216.408 191.198 216.584 190.762 216.936C190.326 217.287 190.081 217.85 190.029 218.625H194.59ZM58.7402 240.52H55.2246V229.553H58.7402V240.52ZM58.8379 227.99H55.127V225.324H58.8379V227.99ZM72.7832 232.746V240.52H69.248V235.041C69.248 234.507 69.235 234.055 69.209 233.684C69.1829 233.306 69.1113 233 68.9941 232.766C68.877 232.531 68.6979 232.362 68.457 232.258C68.2227 232.147 67.8906 232.092 67.4609 232.092C67.1159 232.092 66.7806 232.164 66.4551 232.307C66.1296 232.443 65.8366 232.59 65.5762 232.746V240.52H62.0605V229.553H65.5762V230.764C66.1816 230.289 66.7611 229.917 67.3145 229.651C67.8678 229.384 68.4798 229.25 69.1504 229.25C69.873 229.25 70.5111 229.413 71.0645 229.738C71.6178 230.057 72.0508 230.529 72.3633 231.154C73.0664 230.562 73.75 230.096 74.4141 229.758C75.0781 229.419 75.7292 229.25 76.3672 229.25C77.5521 229.25 78.4505 229.605 79.0625 230.315C79.681 231.024 79.9902 232.046 79.9902 233.381V240.52H76.4551V235.041C76.4551 234.501 76.4421 234.045 76.416 233.674C76.3965 233.303 76.3281 233 76.2109 232.766C76.1003 232.531 75.9245 232.362 75.6836 232.258C75.4427 232.147 75.1042 232.092 74.668 232.092C74.375 232.092 74.0885 232.144 73.8086 232.248C73.5286 232.346 73.1868 232.512 72.7832 232.746ZM94.6777 234.885C94.6777 235.79 94.5378 236.613 94.2578 237.356C93.9844 238.098 93.623 238.71 93.1738 239.192C92.7051 239.699 92.1745 240.083 91.582 240.344C90.9896 240.604 90.3548 240.734 89.6777 240.734C89.0527 240.734 88.5221 240.666 88.0859 240.529C87.6497 240.399 87.2038 240.214 86.748 239.973V244.543H83.2324V229.553H86.748V230.695C87.2884 230.266 87.8385 229.917 88.3984 229.651C88.9648 229.384 89.6159 229.25 90.3516 229.25C91.7188 229.25 92.7799 229.751 93.5352 230.754C94.2969 231.757 94.6777 233.134 94.6777 234.885ZM91.0547 234.953C91.0547 233.886 90.8724 233.111 90.5078 232.629C90.1432 232.147 89.5671 231.906 88.7793 231.906C88.4473 231.906 88.1055 231.958 87.7539 232.063C87.4023 232.16 87.0671 232.304 86.748 232.492V238.01C86.9824 238.101 87.2331 238.16 87.5 238.186C87.7669 238.212 88.0306 238.225 88.291 238.225C89.222 238.225 89.9154 237.955 90.3711 237.414C90.8268 236.867 91.0547 236.047 91.0547 234.953ZM105.166 232.902H104.854C104.704 232.85 104.463 232.811 104.131 232.785C103.799 232.759 103.522 232.746 103.301 232.746C102.799 232.746 102.357 232.779 101.973 232.844C101.589 232.909 101.175 233.02 100.732 233.176V240.52H97.2168V229.553H100.732V231.164C101.507 230.5 102.181 230.061 102.754 229.846C103.327 229.624 103.854 229.514 104.336 229.514C104.46 229.514 104.6 229.517 104.756 229.524C104.912 229.53 105.049 229.54 105.166 229.553V232.902ZM117.959 235.686H109.912C109.964 236.545 110.29 237.203 110.889 237.658C111.494 238.114 112.383 238.342 113.555 238.342C114.297 238.342 115.016 238.208 115.713 237.942C116.41 237.675 116.96 237.388 117.363 237.082H117.754V239.904C116.96 240.223 116.211 240.455 115.508 240.598C114.805 240.741 114.027 240.813 113.174 240.813C110.973 240.813 109.287 240.318 108.115 239.328C106.943 238.339 106.357 236.929 106.357 235.1C106.357 233.29 106.911 231.858 108.018 230.803C109.131 229.742 110.654 229.211 112.588 229.211C114.372 229.211 115.713 229.664 116.611 230.568C117.51 231.467 117.959 232.762 117.959 234.455V235.686ZM114.463 233.625C114.443 232.889 114.261 232.336 113.916 231.965C113.571 231.594 113.034 231.408 112.305 231.408C111.628 231.408 111.071 231.584 110.635 231.936C110.199 232.287 109.954 232.85 109.902 233.625H114.463ZM129.971 237.043C129.971 238.176 129.463 239.091 128.447 239.787C127.432 240.477 126.042 240.822 124.277 240.822C123.301 240.822 122.415 240.731 121.621 240.549C120.827 240.367 120.189 240.165 119.707 239.943V237.053H120.029C120.205 237.177 120.407 237.313 120.635 237.463C120.869 237.606 121.198 237.762 121.621 237.932C121.986 238.082 122.399 238.212 122.861 238.322C123.324 238.427 123.818 238.479 124.346 238.479C125.036 238.479 125.547 238.404 125.879 238.254C126.211 238.098 126.377 237.87 126.377 237.57C126.377 237.304 126.279 237.111 126.084 236.994C125.889 236.871 125.518 236.753 124.971 236.643C124.71 236.584 124.355 236.522 123.906 236.457C123.464 236.386 123.06 236.301 122.695 236.203C121.699 235.943 120.96 235.539 120.479 234.992C119.997 234.439 119.756 233.752 119.756 232.932C119.756 231.877 120.254 231.001 121.25 230.305C122.253 229.602 123.62 229.25 125.352 229.25C126.172 229.25 126.956 229.335 127.705 229.504C128.46 229.667 129.049 229.843 129.473 230.031V232.805H129.17C128.649 232.447 128.053 232.157 127.383 231.936C126.719 231.708 126.045 231.594 125.361 231.594C124.795 231.594 124.316 231.672 123.926 231.828C123.542 231.984 123.35 232.206 123.35 232.492C123.35 232.753 123.438 232.951 123.613 233.088C123.789 233.225 124.202 233.361 124.854 233.498C125.212 233.57 125.596 233.641 126.006 233.713C126.423 233.778 126.839 233.863 127.256 233.967C128.18 234.208 128.864 234.589 129.307 235.109C129.749 235.624 129.971 236.268 129.971 237.043ZM141.846 237.043C141.846 238.176 141.338 239.091 140.322 239.787C139.307 240.477 137.917 240.822 136.152 240.822C135.176 240.822 134.29 240.731 133.496 240.549C132.702 240.367 132.064 240.165 131.582 239.943V237.053H131.904C132.08 237.177 132.282 237.313 132.51 237.463C132.744 237.606 133.073 237.762 133.496 237.932C133.861 238.082 134.274 238.212 134.736 238.322C135.199 238.427 135.693 238.479 136.221 238.479C136.911 238.479 137.422 238.404 137.754 238.254C138.086 238.098 138.252 237.87 138.252 237.57C138.252 237.304 138.154 237.111 137.959 236.994C137.764 236.871 137.393 236.753 136.846 236.643C136.585 236.584 136.23 236.522 135.781 236.457C135.339 236.386 134.935 236.301 134.57 236.203C133.574 235.943 132.835 235.539 132.354 234.992C131.872 234.439 131.631 233.752 131.631 232.932C131.631 231.877 132.129 231.001 133.125 230.305C134.128 229.602 135.495 229.25 137.227 229.25C138.047 229.25 138.831 229.335 139.58 229.504C140.335 229.667 140.924 229.843 141.348 230.031V232.805H141.045C140.524 232.447 139.928 232.157 139.258 231.936C138.594 231.708 137.92 231.594 137.236 231.594C136.67 231.594 136.191 231.672 135.801 231.828C135.417 231.984 135.225 232.206 135.225 232.492C135.225 232.753 135.312 232.951 135.488 233.088C135.664 233.225 136.077 233.361 136.729 233.498C137.087 233.57 137.471 233.641 137.881 233.713C138.298 233.778 138.714 233.863 139.131 233.967C140.055 234.208 140.739 234.589 141.182 235.109C141.624 235.624 141.846 236.268 141.846 237.043ZM155.4 235.041C155.4 236.845 154.873 238.267 153.818 239.309C152.77 240.344 151.296 240.861 149.395 240.861C147.493 240.861 146.016 240.344 144.961 239.309C143.913 238.267 143.389 236.845 143.389 235.041C143.389 233.225 143.916 231.799 144.971 230.764C146.032 229.729 147.507 229.211 149.395 229.211C151.309 229.211 152.786 229.732 153.828 230.774C154.876 231.815 155.4 233.238 155.4 235.041ZM151.074 237.707C151.302 237.427 151.471 237.092 151.582 236.701C151.699 236.304 151.758 235.757 151.758 235.061C151.758 234.416 151.699 233.876 151.582 233.44C151.465 233.003 151.302 232.655 151.094 232.395C150.885 232.128 150.635 231.939 150.342 231.828C150.049 231.718 149.733 231.662 149.395 231.662C149.056 231.662 148.753 231.708 148.486 231.799C148.226 231.89 147.975 232.072 147.734 232.346C147.52 232.6 147.347 232.948 147.217 233.391C147.093 233.833 147.031 234.39 147.031 235.061C147.031 235.66 147.087 236.18 147.197 236.623C147.308 237.059 147.471 237.411 147.686 237.678C147.894 237.932 148.141 238.117 148.428 238.234C148.721 238.352 149.053 238.41 149.424 238.41C149.743 238.41 150.046 238.358 150.332 238.254C150.625 238.143 150.872 237.961 151.074 237.707ZM165.869 232.902H165.557C165.407 232.85 165.166 232.811 164.834 232.785C164.502 232.759 164.225 232.746 164.004 232.746C163.503 232.746 163.06 232.779 162.676 232.844C162.292 232.909 161.878 233.02 161.436 233.176V240.52H157.92V229.553H161.436V231.164C162.21 230.5 162.884 230.061 163.457 229.846C164.03 229.624 164.557 229.514 165.039 229.514C165.163 229.514 165.303 229.517 165.459 229.524C165.615 229.53 165.752 229.54 165.869 229.553V232.902ZM174.502 237.658V235.373C174.027 235.412 173.512 235.468 172.959 235.539C172.406 235.604 171.986 235.682 171.699 235.774C171.348 235.884 171.077 236.047 170.889 236.262C170.706 236.47 170.615 236.747 170.615 237.092C170.615 237.32 170.635 237.505 170.674 237.649C170.713 237.792 170.811 237.929 170.967 238.059C171.117 238.189 171.296 238.287 171.504 238.352C171.712 238.41 172.038 238.44 172.48 238.44C172.832 238.44 173.187 238.368 173.545 238.225C173.91 238.082 174.229 237.893 174.502 237.658ZM174.502 239.358C174.313 239.501 174.079 239.673 173.799 239.875C173.519 240.077 173.255 240.236 173.008 240.354C172.663 240.51 172.305 240.624 171.934 240.695C171.562 240.774 171.156 240.813 170.713 240.813C169.671 240.813 168.799 240.49 168.096 239.846C167.393 239.201 167.041 238.378 167.041 237.375C167.041 236.574 167.22 235.92 167.578 235.412C167.936 234.904 168.444 234.504 169.102 234.211C169.753 233.918 170.56 233.71 171.523 233.586C172.487 233.462 173.486 233.371 174.521 233.313V233.254C174.521 232.649 174.274 232.232 173.779 232.004C173.285 231.77 172.555 231.652 171.592 231.652C171.012 231.652 170.394 231.757 169.736 231.965C169.079 232.167 168.607 232.323 168.32 232.434H167.998V229.787C168.369 229.69 168.971 229.576 169.805 229.445C170.645 229.309 171.484 229.24 172.324 229.24C174.323 229.24 175.765 229.55 176.65 230.168C177.542 230.78 177.988 231.744 177.988 233.059V240.52H174.502V239.358ZM190.752 237.043C190.752 238.176 190.244 239.091 189.229 239.787C188.213 240.477 186.823 240.822 185.059 240.822C184.082 240.822 183.197 240.731 182.402 240.549C181.608 240.367 180.97 240.165 180.488 239.943V237.053H180.811C180.986 237.177 181.188 237.313 181.416 237.463C181.65 237.606 181.979 237.762 182.402 237.932C182.767 238.082 183.18 238.212 183.643 238.322C184.105 238.427 184.6 238.479 185.127 238.479C185.817 238.479 186.328 238.404 186.66 238.254C186.992 238.098 187.158 237.87 187.158 237.57C187.158 237.304 187.061 237.111 186.865 236.994C186.67 236.871 186.299 236.753 185.752 236.643C185.492 236.584 185.137 236.522 184.688 236.457C184.245 236.386 183.841 236.301 183.477 236.203C182.48 235.943 181.742 235.539 181.26 234.992C180.778 234.439 180.537 233.752 180.537 232.932C180.537 231.877 181.035 231.001 182.031 230.305C183.034 229.602 184.401 229.25 186.133 229.25C186.953 229.25 187.738 229.335 188.486 229.504C189.242 229.667 189.831 229.843 190.254 230.031V232.805H189.951C189.43 232.447 188.835 232.157 188.164 231.936C187.5 231.708 186.826 231.594 186.143 231.594C185.576 231.594 185.098 231.672 184.707 231.828C184.323 231.984 184.131 232.206 184.131 232.492C184.131 232.753 184.219 232.951 184.395 233.088C184.57 233.225 184.984 233.361 185.635 233.498C185.993 233.57 186.377 233.641 186.787 233.713C187.204 233.778 187.62 233.863 188.037 233.967C188.962 234.208 189.645 234.589 190.088 235.109C190.531 235.624 190.752 236.268 190.752 237.043Z" fill="white"/>
<defs>
<linearGradient id="paint0_linear_285_50" x1="122.5" y1="0" x2="122.5" y2="400" gradientUnits="userSpaceOnUse">
<stop offset="0.5" stop-color="#A1A1A1"/>
<stop offset="1" stop-color="#3C3C3C"/>
</linearGradient>
</defs>
</svg>
