<svg width="330" height="505" viewBox="0 0 330 505" fill="none" xmlns="http://www.w3.org/2000/svg">
<rect width="330" height="505" rx="25" fill="url(#paint0_linear_285_50)" fill-opacity="0.85098"/>
<path d="M206.5 176.803H122.499C118.429 176.803 115.129 173.403 115.129 169.208V88.9528C115.129 84.7578 118.429 81.3571 122.499 81.3571H206.5C210.571 81.3571 213.871 84.7578 213.871 88.9528V169.208C213.871 173.402 210.571 176.803 206.5 176.803Z" fill="#E8E8E8"/>
<path d="M234.512 255.717H94.4881C86.4829 255.717 79.9932 249.029 79.9932 240.778V164.724C79.9932 156.473 86.4829 149.785 94.4884 149.785H234.512C242.517 149.785 249.007 156.473 249.007 164.724V240.778C249.007 249.029 242.517 255.717 234.512 255.717Z" fill="#C5CFD1"/>
<path d="M224.331 176.803C228.096 176.803 231.149 173.658 231.149 169.777C231.149 165.897 228.096 162.751 224.331 162.751C220.566 162.751 217.514 165.897 217.514 169.777C217.514 173.658 220.566 176.803 224.331 176.803Z" fill="white"/>
<path d="M204.852 176.803C208.617 176.803 211.67 173.658 211.67 169.777C211.67 165.897 208.617 162.751 204.852 162.751C201.087 162.751 198.035 165.897 198.035 169.777C198.035 173.658 201.087 176.803 204.852 176.803Z" fill="#FF473E"/>
<path d="M206.566 186.823H122.434C113.437 186.823 106.053 194.242 106.053 203.514V255.513H109.129V255.866H222.947V203.514C222.947 194.242 215.563 186.823 206.566 186.823ZM112.547 222.753V203.514C112.547 197.818 116.907 193.163 122.434 193.163H206.566C212.093 193.163 216.453 197.818 216.453 203.514V222.753H112.547ZM156.424 102.45H129.215C128.654 102.439 128.119 102.202 127.725 101.789C127.332 101.377 127.111 100.821 127.111 100.242C127.111 99.6638 127.332 99.1082 127.725 98.6954C128.119 98.2826 128.654 98.0455 129.215 98.0352H156.424C156.985 98.0455 157.52 98.2826 157.914 98.6954C158.307 99.1082 158.528 99.6638 158.528 100.242C158.528 100.821 158.307 101.377 157.914 101.789C157.52 102.202 156.985 102.439 156.424 102.45ZM203.523 100.242C203.523 99.657 203.297 99.0956 202.895 98.6816C202.494 98.2677 201.949 98.0352 201.381 98.0352H166.945C166.377 98.0352 165.832 98.2677 165.43 98.6816C165.029 99.0956 164.803 99.657 164.803 100.242C164.803 100.828 165.029 101.389 165.43 101.803C165.832 102.217 166.377 102.45 166.945 102.45H201.381C201.949 102.45 202.494 102.217 202.895 101.803C203.297 101.389 203.523 100.828 203.523 100.242ZM199.363 134.083C199.363 133.498 199.137 132.936 198.735 132.522C198.334 132.108 197.789 131.876 197.221 131.876H155.566C155.005 131.886 154.47 132.123 154.077 132.536C153.683 132.949 153.463 133.504 153.463 134.083C153.463 134.662 153.683 135.217 154.077 135.63C154.47 136.043 155.005 136.28 155.566 136.29H197.221C197.789 136.29 198.334 136.058 198.735 135.644C199.137 135.23 199.363 134.668 199.363 134.083ZM189.376 117.163C189.376 116.873 189.32 116.586 189.213 116.318C189.105 116.05 188.947 115.807 188.748 115.602C188.549 115.397 188.313 115.235 188.054 115.124C187.794 115.013 187.515 114.956 187.234 114.956H129.215C128.653 114.966 128.118 115.203 127.725 115.616C127.331 116.029 127.111 116.584 127.111 117.163C127.111 117.742 127.331 118.297 127.725 118.71C128.118 119.123 128.653 119.36 129.215 119.37H187.234C187.516 119.37 187.794 119.313 188.054 119.202C188.314 119.091 188.55 118.929 188.749 118.724C188.947 118.519 189.105 118.275 189.213 118.008C189.32 117.74 189.376 117.453 189.376 117.163ZM146.065 134.083C146.065 133.498 145.839 132.936 145.438 132.522C145.036 132.108 144.491 131.876 143.923 131.876H129.215C128.653 131.886 128.118 132.123 127.725 132.536C127.331 132.949 127.111 133.504 127.111 134.083C127.111 134.662 127.331 135.217 127.725 135.63C128.118 136.043 128.653 136.28 129.215 136.29H143.923C144.491 136.29 145.036 136.058 145.438 135.644C145.84 135.23 146.065 134.668 146.065 134.083Z" fill="#10264E"/>
<path d="M25.957 292.206H17.4414V289.628H19.8242V280.243H17.4414V277.665H25.957V280.243H23.5742V289.628H25.957V292.206ZM39.834 292.206H36.2988V286.767C36.2988 286.324 36.276 285.884 36.2305 285.448C36.1849 285.006 36.1068 284.68 35.9961 284.472C35.8659 284.231 35.6738 284.055 35.4199 283.944C35.1725 283.834 34.8242 283.778 34.375 283.778C34.056 283.778 33.7305 283.83 33.3984 283.935C33.0729 284.039 32.7181 284.205 32.334 284.433V292.206H28.8184V281.239H32.334V282.45C32.959 281.962 33.5579 281.588 34.1309 281.327C34.7103 281.067 35.3516 280.937 36.0547 280.937C37.2396 280.937 38.1641 281.282 38.8281 281.972C39.4987 282.662 39.834 283.694 39.834 285.067V292.206ZM54.1211 281.239L49.8926 292.206H45.9082L41.709 281.239H45.4297L47.9688 288.778L50.4785 281.239H54.1211ZM66.8848 287.372H58.8379C58.89 288.231 59.2155 288.889 59.8145 289.345C60.4199 289.8 61.3086 290.028 62.4805 290.028C63.2227 290.028 63.9421 289.895 64.6387 289.628C65.3353 289.361 65.8854 289.075 66.2891 288.769H66.6797V291.591C65.8854 291.91 65.1367 292.141 64.4336 292.284C63.7305 292.427 62.9525 292.499 62.0996 292.499C59.8991 292.499 58.2129 292.004 57.041 291.015C55.8691 290.025 55.2832 288.616 55.2832 286.786C55.2832 284.976 55.8366 283.544 56.9434 282.489C58.0566 281.428 59.5801 280.897 61.5137 280.897C63.2975 280.897 64.6387 281.35 65.5371 282.255C66.4355 283.153 66.8848 284.449 66.8848 286.142V287.372ZM63.3887 285.312C63.3691 284.576 63.1868 284.022 62.8418 283.651C62.4967 283.28 61.9596 283.095 61.2305 283.095C60.5534 283.095 59.9967 283.271 59.5605 283.622C59.1243 283.974 58.8802 284.537 58.8281 285.312H63.3887ZM80.3809 292.206H76.8457V286.767C76.8457 286.324 76.8229 285.884 76.7773 285.448C76.7318 285.006 76.6536 284.68 76.543 284.472C76.4128 284.231 76.2207 284.055 75.9668 283.944C75.7194 283.834 75.3711 283.778 74.9219 283.778C74.6029 283.778 74.2773 283.83 73.9453 283.935C73.6198 284.039 73.265 284.205 72.8809 284.433V292.206H69.3652V281.239H72.8809V282.45C73.5059 281.962 74.1048 281.588 74.6777 281.327C75.2572 281.067 75.8984 280.937 76.6016 280.937C77.7865 280.937 78.7109 281.282 79.375 281.972C80.0456 282.662 80.3809 283.694 80.3809 285.067V292.206ZM90.6348 292.108C90.2572 292.206 89.8568 292.281 89.4336 292.333C89.0104 292.392 88.4928 292.421 87.8809 292.421C86.5137 292.421 85.4948 292.144 84.8242 291.591C84.1602 291.037 83.8281 290.09 83.8281 288.749V283.622H82.3828V281.239H83.8281V278.104H87.3438V281.239H90.6348V283.622H87.3438V287.509C87.3438 287.893 87.347 288.228 87.3535 288.515C87.36 288.801 87.4121 289.058 87.5098 289.286C87.6009 289.514 87.7604 289.696 87.9883 289.833C88.2227 289.963 88.5612 290.028 89.0039 290.028C89.1862 290.028 89.4238 289.989 89.7168 289.911C90.0163 289.833 90.2246 289.761 90.3418 289.696H90.6348V292.108ZM99.3848 289.345V287.06C98.9095 287.099 98.3952 287.154 97.8418 287.226C97.2884 287.291 96.8685 287.369 96.582 287.46C96.2305 287.571 95.9603 287.733 95.7715 287.948C95.5892 288.157 95.498 288.433 95.498 288.778C95.498 289.006 95.5176 289.192 95.5566 289.335C95.5957 289.478 95.6934 289.615 95.8496 289.745C95.9993 289.875 96.1784 289.973 96.3867 290.038C96.5951 290.097 96.9206 290.126 97.3633 290.126C97.7148 290.126 98.0697 290.054 98.4277 289.911C98.7923 289.768 99.1113 289.579 99.3848 289.345ZM99.3848 291.044C99.196 291.187 98.9616 291.36 98.6816 291.562C98.4017 291.763 98.138 291.923 97.8906 292.04C97.5456 292.196 97.1875 292.31 96.8164 292.382C96.4453 292.46 96.0384 292.499 95.5957 292.499C94.554 292.499 93.6816 292.177 92.9785 291.532C92.2754 290.888 91.9238 290.064 91.9238 289.062C91.9238 288.261 92.1029 287.606 92.4609 287.099C92.819 286.591 93.3268 286.19 93.9844 285.897C94.6354 285.604 95.4427 285.396 96.4062 285.272C97.3698 285.149 98.3691 285.058 99.4043 284.999V284.94C99.4043 284.335 99.1569 283.918 98.6621 283.69C98.1673 283.456 97.4382 283.339 96.4746 283.339C95.8952 283.339 95.2767 283.443 94.6191 283.651C93.9616 283.853 93.4896 284.009 93.2031 284.12H92.8809V281.474C93.252 281.376 93.8542 281.262 94.6875 281.132C95.5273 280.995 96.3672 280.927 97.207 280.927C99.2057 280.927 100.648 281.236 101.533 281.854C102.425 282.466 102.871 283.43 102.871 284.745V292.206H99.3848V291.044ZM101.27 275.839V276.034L97.832 279.677H95.4297L97.8418 275.839H101.27ZM114.053 284.589H113.74C113.59 284.537 113.35 284.498 113.018 284.472C112.686 284.446 112.409 284.433 112.188 284.433C111.686 284.433 111.243 284.465 110.859 284.53C110.475 284.595 110.062 284.706 109.619 284.862V292.206H106.104V281.239H109.619V282.851C110.394 282.187 111.068 281.747 111.641 281.532C112.214 281.311 112.741 281.2 113.223 281.2C113.346 281.2 113.486 281.203 113.643 281.21C113.799 281.216 113.936 281.226 114.053 281.239V284.589ZM119.561 292.206H116.045V281.239H119.561V292.206ZM119.658 279.677H115.947V277.011H119.658V279.677ZM134.092 286.728C134.092 288.531 133.564 289.953 132.51 290.995C131.462 292.03 129.987 292.548 128.086 292.548C126.185 292.548 124.707 292.03 123.652 290.995C122.604 289.953 122.08 288.531 122.08 286.728C122.08 284.911 122.607 283.485 123.662 282.45C124.723 281.415 126.198 280.897 128.086 280.897C130 280.897 131.478 281.418 132.52 282.46C133.568 283.502 134.092 284.924 134.092 286.728ZM129.766 289.394C129.993 289.114 130.163 288.778 130.273 288.388C130.391 287.991 130.449 287.444 130.449 286.747C130.449 286.103 130.391 285.562 130.273 285.126C130.156 284.69 129.993 284.341 129.785 284.081C129.577 283.814 129.326 283.625 129.033 283.515C128.74 283.404 128.424 283.349 128.086 283.349C127.747 283.349 127.445 283.394 127.178 283.485C126.917 283.576 126.667 283.759 126.426 284.032C126.211 284.286 126.038 284.634 125.908 285.077C125.785 285.52 125.723 286.076 125.723 286.747C125.723 287.346 125.778 287.867 125.889 288.31C125.999 288.746 126.162 289.097 126.377 289.364C126.585 289.618 126.833 289.804 127.119 289.921C127.412 290.038 127.744 290.097 128.115 290.097C128.434 290.097 128.737 290.045 129.023 289.94C129.316 289.83 129.564 289.647 129.766 289.394ZM154.111 292.206H150.596V291.063C149.99 291.558 149.424 291.923 148.896 292.157C148.369 292.392 147.76 292.509 147.07 292.509C145.736 292.509 144.668 291.994 143.867 290.966C143.066 289.937 142.666 288.55 142.666 286.806C142.666 285.875 142.799 285.051 143.066 284.335C143.34 283.612 143.711 282.994 144.18 282.479C144.622 281.991 145.16 281.614 145.791 281.347C146.423 281.073 147.054 280.937 147.686 280.937C148.343 280.937 148.88 281.008 149.297 281.151C149.72 281.288 150.153 281.464 150.596 281.679V277.011H154.111V292.206ZM150.596 289.179V283.798C150.348 283.694 150.088 283.619 149.814 283.573C149.541 283.528 149.29 283.505 149.062 283.505C148.138 283.505 147.445 283.795 146.982 284.374C146.52 284.947 146.289 285.744 146.289 286.767C146.289 287.841 146.475 288.622 146.846 289.11C147.217 289.592 147.812 289.833 148.633 289.833C148.952 289.833 149.29 289.774 149.648 289.657C150.007 289.534 150.322 289.374 150.596 289.179ZM168.232 287.372H160.186C160.238 288.231 160.563 288.889 161.162 289.345C161.768 289.8 162.656 290.028 163.828 290.028C164.57 290.028 165.29 289.895 165.986 289.628C166.683 289.361 167.233 289.075 167.637 288.769H168.027V291.591C167.233 291.91 166.484 292.141 165.781 292.284C165.078 292.427 164.3 292.499 163.447 292.499C161.247 292.499 159.561 292.004 158.389 291.015C157.217 290.025 156.631 288.616 156.631 286.786C156.631 284.976 157.184 283.544 158.291 282.489C159.404 281.428 160.928 280.897 162.861 280.897C164.645 280.897 165.986 281.35 166.885 282.255C167.783 283.153 168.232 284.449 168.232 286.142V287.372ZM164.736 285.312C164.717 284.576 164.535 284.022 164.189 283.651C163.844 283.28 163.307 283.095 162.578 283.095C161.901 283.095 161.344 283.271 160.908 283.622C160.472 283.974 160.228 284.537 160.176 285.312H164.736ZM181.064 292.206H177.549V281.239H181.064V292.206ZM181.162 279.677H177.451V277.011H181.162V279.677ZM195.107 284.433V292.206H191.572V286.728C191.572 286.194 191.559 285.741 191.533 285.37C191.507 284.993 191.436 284.687 191.318 284.452C191.201 284.218 191.022 284.049 190.781 283.944C190.547 283.834 190.215 283.778 189.785 283.778C189.44 283.778 189.105 283.85 188.779 283.993C188.454 284.13 188.161 284.276 187.9 284.433V292.206H184.385V281.239H187.9V282.45C188.506 281.975 189.085 281.604 189.639 281.337C190.192 281.07 190.804 280.937 191.475 280.937C192.197 280.937 192.835 281.099 193.389 281.425C193.942 281.744 194.375 282.216 194.688 282.841C195.391 282.248 196.074 281.783 196.738 281.444C197.402 281.106 198.053 280.937 198.691 280.937C199.876 280.937 200.775 281.291 201.387 282.001C202.005 282.711 202.314 283.733 202.314 285.067V292.206H198.779V286.728C198.779 286.187 198.766 285.731 198.74 285.36C198.721 284.989 198.652 284.687 198.535 284.452C198.424 284.218 198.249 284.049 198.008 283.944C197.767 283.834 197.428 283.778 196.992 283.778C196.699 283.778 196.413 283.83 196.133 283.935C195.853 284.032 195.511 284.198 195.107 284.433ZM217.002 286.571C217.002 287.476 216.862 288.3 216.582 289.042C216.309 289.784 215.947 290.396 215.498 290.878C215.029 291.386 214.499 291.77 213.906 292.03C213.314 292.291 212.679 292.421 212.002 292.421C211.377 292.421 210.846 292.353 210.41 292.216C209.974 292.086 209.528 291.9 209.072 291.659V296.229H205.557V281.239H209.072V282.382C209.613 281.952 210.163 281.604 210.723 281.337C211.289 281.07 211.94 280.937 212.676 280.937C214.043 280.937 215.104 281.438 215.859 282.44C216.621 283.443 217.002 284.82 217.002 286.571ZM213.379 286.64C213.379 285.572 213.197 284.797 212.832 284.315C212.467 283.834 211.891 283.593 211.104 283.593C210.771 283.593 210.43 283.645 210.078 283.749C209.727 283.847 209.391 283.99 209.072 284.179V289.696C209.307 289.787 209.557 289.846 209.824 289.872C210.091 289.898 210.355 289.911 210.615 289.911C211.546 289.911 212.24 289.641 212.695 289.101C213.151 288.554 213.379 287.733 213.379 286.64ZM227.49 284.589H227.178C227.028 284.537 226.787 284.498 226.455 284.472C226.123 284.446 225.846 284.433 225.625 284.433C225.124 284.433 224.681 284.465 224.297 284.53C223.913 284.595 223.499 284.706 223.057 284.862V292.206H219.541V281.239H223.057V282.851C223.831 282.187 224.505 281.747 225.078 281.532C225.651 281.311 226.178 281.2 226.66 281.2C226.784 281.2 226.924 281.203 227.08 281.21C227.236 281.216 227.373 281.226 227.49 281.239V284.589ZM240.283 287.372H232.236C232.288 288.231 232.614 288.889 233.213 289.345C233.818 289.8 234.707 290.028 235.879 290.028C236.621 290.028 237.34 289.895 238.037 289.628C238.734 289.361 239.284 289.075 239.688 288.769H240.078V291.591C239.284 291.91 238.535 292.141 237.832 292.284C237.129 292.427 236.351 292.499 235.498 292.499C233.298 292.499 231.611 292.004 230.439 291.015C229.268 290.025 228.682 288.616 228.682 286.786C228.682 284.976 229.235 283.544 230.342 282.489C231.455 281.428 232.979 280.897 234.912 280.897C236.696 280.897 238.037 281.35 238.936 282.255C239.834 283.153 240.283 284.449 240.283 286.142V287.372ZM236.787 285.312C236.768 284.576 236.585 284.022 236.24 283.651C235.895 283.28 235.358 283.095 234.629 283.095C233.952 283.095 233.395 283.271 232.959 283.622C232.523 283.974 232.279 284.537 232.227 285.312H236.787ZM252.295 288.729C252.295 289.862 251.787 290.777 250.771 291.474C249.756 292.164 248.366 292.509 246.602 292.509C245.625 292.509 244.74 292.418 243.945 292.235C243.151 292.053 242.513 291.851 242.031 291.63V288.739H242.354C242.529 288.863 242.731 289 242.959 289.149C243.193 289.293 243.522 289.449 243.945 289.618C244.31 289.768 244.723 289.898 245.186 290.009C245.648 290.113 246.143 290.165 246.67 290.165C247.36 290.165 247.871 290.09 248.203 289.94C248.535 289.784 248.701 289.556 248.701 289.257C248.701 288.99 248.604 288.798 248.408 288.681C248.213 288.557 247.842 288.44 247.295 288.329C247.035 288.271 246.68 288.209 246.23 288.144C245.788 288.072 245.384 287.987 245.02 287.89C244.023 287.629 243.285 287.226 242.803 286.679C242.321 286.125 242.08 285.438 242.08 284.618C242.08 283.563 242.578 282.688 243.574 281.991C244.577 281.288 245.944 280.937 247.676 280.937C248.496 280.937 249.281 281.021 250.029 281.19C250.785 281.353 251.374 281.529 251.797 281.718V284.491H251.494C250.973 284.133 250.378 283.843 249.707 283.622C249.043 283.394 248.369 283.28 247.686 283.28C247.119 283.28 246.641 283.358 246.25 283.515C245.866 283.671 245.674 283.892 245.674 284.179C245.674 284.439 245.762 284.638 245.938 284.774C246.113 284.911 246.527 285.048 247.178 285.185C247.536 285.256 247.92 285.328 248.33 285.399C248.747 285.465 249.163 285.549 249.58 285.653C250.505 285.894 251.188 286.275 251.631 286.796C252.074 287.31 252.295 287.955 252.295 288.729ZM264.17 288.729C264.17 289.862 263.662 290.777 262.646 291.474C261.631 292.164 260.241 292.509 258.477 292.509C257.5 292.509 256.615 292.418 255.82 292.235C255.026 292.053 254.388 291.851 253.906 291.63V288.739H254.229C254.404 288.863 254.606 289 254.834 289.149C255.068 289.293 255.397 289.449 255.82 289.618C256.185 289.768 256.598 289.898 257.061 290.009C257.523 290.113 258.018 290.165 258.545 290.165C259.235 290.165 259.746 290.09 260.078 289.94C260.41 289.784 260.576 289.556 260.576 289.257C260.576 288.99 260.479 288.798 260.283 288.681C260.088 288.557 259.717 288.44 259.17 288.329C258.91 288.271 258.555 288.209 258.105 288.144C257.663 288.072 257.259 287.987 256.895 287.89C255.898 287.629 255.16 287.226 254.678 286.679C254.196 286.125 253.955 285.438 253.955 284.618C253.955 283.563 254.453 282.688 255.449 281.991C256.452 281.288 257.819 280.937 259.551 280.937C260.371 280.937 261.156 281.021 261.904 281.19C262.66 281.353 263.249 281.529 263.672 281.718V284.491H263.369C262.848 284.133 262.253 283.843 261.582 283.622C260.918 283.394 260.244 283.28 259.561 283.28C258.994 283.28 258.516 283.358 258.125 283.515C257.741 283.671 257.549 283.892 257.549 284.179C257.549 284.439 257.637 284.638 257.812 284.774C257.988 284.911 258.402 285.048 259.053 285.185C259.411 285.256 259.795 285.328 260.205 285.399C260.622 285.465 261.038 285.549 261.455 285.653C262.38 285.894 263.063 286.275 263.506 286.796C263.949 287.31 264.17 287.955 264.17 288.729ZM277.725 286.728C277.725 288.531 277.197 289.953 276.143 290.995C275.094 292.03 273.62 292.548 271.719 292.548C269.818 292.548 268.34 292.03 267.285 290.995C266.237 289.953 265.713 288.531 265.713 286.728C265.713 284.911 266.24 283.485 267.295 282.45C268.356 281.415 269.831 280.897 271.719 280.897C273.633 280.897 275.111 281.418 276.152 282.46C277.201 283.502 277.725 284.924 277.725 286.728ZM273.398 289.394C273.626 289.114 273.796 288.778 273.906 288.388C274.023 287.991 274.082 287.444 274.082 286.747C274.082 286.103 274.023 285.562 273.906 285.126C273.789 284.69 273.626 284.341 273.418 284.081C273.21 283.814 272.959 283.625 272.666 283.515C272.373 283.404 272.057 283.349 271.719 283.349C271.38 283.349 271.077 283.394 270.811 283.485C270.55 283.576 270.299 283.759 270.059 284.032C269.844 284.286 269.671 284.634 269.541 285.077C269.417 285.52 269.355 286.076 269.355 286.747C269.355 287.346 269.411 287.867 269.521 288.31C269.632 288.746 269.795 289.097 270.01 289.364C270.218 289.618 270.465 289.804 270.752 289.921C271.045 290.038 271.377 290.097 271.748 290.097C272.067 290.097 272.37 290.045 272.656 289.94C272.949 289.83 273.197 289.647 273.398 289.394ZM288.193 284.589H287.881C287.731 284.537 287.49 284.498 287.158 284.472C286.826 284.446 286.549 284.433 286.328 284.433C285.827 284.433 285.384 284.465 285 284.53C284.616 284.595 284.202 284.706 283.76 284.862V292.206H280.244V281.239H283.76V282.851C284.535 282.187 285.208 281.747 285.781 281.532C286.354 281.311 286.882 281.2 287.363 281.2C287.487 281.2 287.627 281.203 287.783 281.21C287.939 281.216 288.076 281.226 288.193 281.239V284.589ZM296.826 289.345V287.06C296.351 287.099 295.837 287.154 295.283 287.226C294.73 287.291 294.31 287.369 294.023 287.46C293.672 287.571 293.402 287.733 293.213 287.948C293.031 288.157 292.939 288.433 292.939 288.778C292.939 289.006 292.959 289.192 292.998 289.335C293.037 289.478 293.135 289.615 293.291 289.745C293.441 289.875 293.62 289.973 293.828 290.038C294.036 290.097 294.362 290.126 294.805 290.126C295.156 290.126 295.511 290.054 295.869 289.911C296.234 289.768 296.553 289.579 296.826 289.345ZM296.826 291.044C296.637 291.187 296.403 291.36 296.123 291.562C295.843 291.763 295.579 291.923 295.332 292.04C294.987 292.196 294.629 292.31 294.258 292.382C293.887 292.46 293.48 292.499 293.037 292.499C291.995 292.499 291.123 292.177 290.42 291.532C289.717 290.888 289.365 290.064 289.365 289.062C289.365 288.261 289.544 287.606 289.902 287.099C290.26 286.591 290.768 286.19 291.426 285.897C292.077 285.604 292.884 285.396 293.848 285.272C294.811 285.149 295.811 285.058 296.846 284.999V284.94C296.846 284.335 296.598 283.918 296.104 283.69C295.609 283.456 294.88 283.339 293.916 283.339C293.337 283.339 292.718 283.443 292.061 283.651C291.403 283.853 290.931 284.009 290.645 284.12H290.322V281.474C290.693 281.376 291.296 281.262 292.129 281.132C292.969 280.995 293.809 280.927 294.648 280.927C296.647 280.927 298.089 281.236 298.975 281.854C299.867 282.466 300.312 283.43 300.312 284.745V292.206H296.826V291.044ZM313.076 288.729C313.076 289.862 312.568 290.777 311.553 291.474C310.537 292.164 309.147 292.509 307.383 292.509C306.406 292.509 305.521 292.418 304.727 292.235C303.932 292.053 303.294 291.851 302.812 291.63V288.739H303.135C303.311 288.863 303.512 289 303.74 289.149C303.975 289.293 304.303 289.449 304.727 289.618C305.091 289.768 305.505 289.898 305.967 290.009C306.429 290.113 306.924 290.165 307.451 290.165C308.141 290.165 308.652 290.09 308.984 289.94C309.316 289.784 309.482 289.556 309.482 289.257C309.482 288.99 309.385 288.798 309.189 288.681C308.994 288.557 308.623 288.44 308.076 288.329C307.816 288.271 307.461 288.209 307.012 288.144C306.569 288.072 306.165 287.987 305.801 287.89C304.805 287.629 304.066 287.226 303.584 286.679C303.102 286.125 302.861 285.438 302.861 284.618C302.861 283.563 303.359 282.688 304.355 281.991C305.358 281.288 306.725 280.937 308.457 280.937C309.277 280.937 310.062 281.021 310.811 281.19C311.566 281.353 312.155 281.529 312.578 281.718V284.491H312.275C311.755 284.133 311.159 283.843 310.488 283.622C309.824 283.394 309.15 283.28 308.467 283.28C307.9 283.28 307.422 283.358 307.031 283.515C306.647 283.671 306.455 283.892 306.455 284.179C306.455 284.439 306.543 284.638 306.719 284.774C306.895 284.911 307.308 285.048 307.959 285.185C308.317 285.256 308.701 285.328 309.111 285.399C309.528 285.465 309.945 285.549 310.361 285.653C311.286 285.894 311.969 286.275 312.412 286.796C312.855 287.31 313.076 287.955 313.076 288.729Z" fill="white"/>
<defs>
<linearGradient id="paint0_linear_285_50" x1="165" y1="0" x2="165" y2="505" gradientUnits="userSpaceOnUse">
<stop offset="0.5" stop-color="#A1A1A1"/>
<stop offset="1" stop-color="#3C3C3C"/>
</linearGradient>
</defs>
</svg>
